{
.appVersion = "3108";
.formatVersion = 3;
axes = (
{
name = Weight;
tag = wght;
}
);
customParameters = (
{
name = openTypeOS2Panose;
value = (
0,
0,
0,
0,
0,
0,
0,
0,
0,
0
);
},
{
name = fsType;
value = (
);
},
{
name = "Variable Font Origin";
value = "80ECBAB3-F383-4124-9E35-EC531BFDEBDA";
},
{
name = "Use Typo Metrics";
value = 1;
},
{
name = "Axis Mappings";
value = {
wght = {
100 = 100;
200 = 200;
300 = 300;
400 = 400;
500 = 500;
600 = 625;
700 = 720;
800 = 820;
900 = 900;
};
};
}
);
date = "2022-05-13 13:45:33 +0000";
familyName = Gantari;
featurePrefixes = (
{
automatic = 1;
code = "languagesystem DFLT dflt;

languagesystem latn dflt;
languagesystem latn AZE;
languagesystem latn CRT;
languagesystem latn KAZ;
languagesystem latn TAT;
languagesystem latn TRK;
languagesystem latn ROM;
languagesystem latn MOL;
languagesystem latn CAT;
";
name = Languagesystems;
}
);
features = (
{
code = "feature frac;
  feature ordn;
  feature sups;";
tag = aalt;
},
{
code = "@_A = [A Agrave Aacute Acircumflex Atilde Adieresis Aring Delta];
@_A1 = [A Agrave Aacute Acircumflex Atilde Adieresis Aring AE Delta];
@_C = [C Ccedilla];
@_C1 = [C G O Q Ccedilla Ograve Oacute Ocircumflex Otilde Odieresis Oslash OE];
@_D = [D O Q Eth Ograve Oacute Ocircumflex Otilde Odieresis Oslash Thorn];
@_G = [G];
@_J = [J];
@_J1 = [J];
@_K = [K];
@_L = [L Lslash];
@_R = [R];
@_S = [S Scaron];
@_T = [T];
@_U = [U Ugrave Uacute Ucircumflex Udieresis];
@_W = [W];
@_Y = [Y Yacute Ydieresis];
@_Z = [Z Zcaron];
@_a = [a agrave aacute acircumflex atilde adieresis aring];
@_a1 = [a agrave aacute acircumflex atilde adieresis aring ae];
@_b = [b e o p ae egrave eacute ecircumflex edieresis eth ograve oacute ocircumflex otilde odieresis oslash thorn oe];
@_c1 = [c d e g o q ccedilla egrave eacute ecircumflex edieresis eth ograve oacute ocircumflex otilde odieresis oslash oe];
@_h = [h m n ntilde];
@_k = [k];
@_m1 = [m n p r mu ntilde dotlessi];
@_r = [r];
@_s = [s scaron];
@_t1 = [t];

glyphs = (
{
color = 6;
glyphname = A;
kernLeft = _A1;
kernRight = _A;
lastChange = "2022-05-20 09:19:55 +0000";
layers = (
{
anchors = (
{
name = bottom;
pos = (356,0);
},
{
name = ogonek;
pos = (710,0);
},
{
name = top;
pos = (356,668);
}
);
background = {
shapes = (
{
closed = 1;
nodes = (
(208,0,l),
(239,97,l),
(473,97,l),
(504,0,l),
(710,0,l),
(461,668,l),
(251,668,l),
(2,0,l)
);
},
{
closed = 1;
nodes = (
(356,471,l),
(425,251,l),
(287,251,l)
);
}
);
};
layerId = "42F8977D-8264-44FF-8A66-A72BD7D3E619";
shapes = (
{
closed = 1;
nodes = (
(208,0,l),
(239,97,l),
(473,97,l),
(504,0,l),
(710,0,l),
(461,668,l),
(251,668,l),
(2,0,l)
);
},
{
closed = 1;
nodes = (
(356,471,l),
(425,251,l),
(287,251,l)
);
}
);
width = 712;
},
{
anchors = (
{
name = bottom;
pos = (348,0);
},
{
name = ogonek;
pos = (660,0);
},
{
name = top;
pos = (348,668);
}
);
background = {
shapes = (
{
closed = 1;
nodes = (
(98,0,l),
(163,158,l),
(531,158,l),
(596,0,l),
(660,0,l),
(379,668,l),
(316,668,l),
(35,0,l)
);
},
{
closed = 1;
nodes = (
(347,604,l),
(510,209,l),
(184,209,l)
);
}
);
};
layerId = "5AACEF06-708C-4913-83FC-D570AD12060A";
shapes = (
{
closed = 1;
nodes = (
(98,0,l),
(163,158,l),
(531,158,l),
(596,0,l),
(660,0,l),
(379,668,l),
(316,668,l),
(35,0,l)
);
},
{
closed = 1;
nodes = (
(347,604,l),
(510,209,l),
(184,209,l)
);
}
);
width = 695;
},
{
anchors = (
{
name = bottom;
pos = (353,0);
},
{
name = ogonek;
pos = (691,0);
},
{
name = top;
pos = (353,668);
}
);
background = {
shapes = (
{
closed = 1;
nodes = (
(167,0,l),
(210,120,l),
(495,120,l),
(538,0,l),
(691,0,l),
(430,668,l),
(275,668,l),
(14,0,l)
);
},
{
closed = 1;
nodes = (
(353,521,l),
(456,235,l),
(249,235,l)
);
}
);
};
layerId = "ED0E349C-8452-4A2C-86CF-88CCE81BCF85";
shapes = (
{
closed = 1;
nodes = (
(167,0,l),
(210,120,l),
(495,120,l),
(538,0,l),
(691,0,l),
(430,668,l),
(275,668,l),
(14,0,l)
);
},
{
closed = 1;
nodes = (
(353,521,l),
(456,235,l),
(249,235,l)
);
}
);
width = 706;
},
{
anchors = (
{
name = bottom;
pos = (355,0);
},
{
name = ogonek;
pos = (701,0);
},
{
name = top;
pos = (355,668);
}
);
background = {
shapes = (
{
closed = 1;
nodes = (
(189,0,l),
(226,108,l),
(483,108,l),
(520,0,l),
(701,0,l),
(447,668,l),
(262,668,l),
(8,0,l)
);
},
{
closed = 1;
nodes = (
(354,494,l),
(440,244,l),
(269,244,l)
);
}
);
};
layerId = "19C37293-DF0C-4049-8F1C-5BECA685D590";
shapes = (
{
closed = 1;
nodes = (
(189,0,l),
(226,108,l),
(483,108,l),
(520,0,l),
(701,0,l),
(447,668,l),
(262,668,l),
(8,0,l)
);
},
{
closed = 1;
nodes = (
(354,494,l),
(440,244,l),
(269,244,l)
);
}
);
width = 709;
},
{
anchors = (
{
name = bottom;
pos = (350,0);
},
{
name = ogonek;
pos = (670,0);
},
{
name = top;
pos = (350,668);
}
);
background = {
shapes = (
{
closed = 1;
nodes = (
(121,0,l),
(178,146,l),
(519,146,l),
(577,0,l),
(670,0,l),
(396,668,l),
(302,668,l),
(28,0,l)
);
},
{
closed = 1;
nodes = (
(349,577,l),
(491,218,l),
(207,218,l)
);
}
);
};
layerId = "80ECBAB3-F383-4124-9E35-EC531BFDEBDA";
shapes = (
{
closed = 1;
nodes = (
(121,0,l),
(178,146,l),
(519,146,l),
(577,0,l),
(670,0,l),
(396,668,l),
(302,668,l),
(28,0,l)
);
},
{
closed = 1;
nodes = (
(349,577,l),
(491,218,l),
(207,218,l)
);
}
);
width = 699;
},
{
anchors = (
{
name = bottom;
pos = (352,0);
},
{
name = ogonek;
pos = (681,0);
},
{
name = top;
pos = (352,668);
}
);
background = {
shapes = (
{
closed = 1;
nodes = (
(145,0,l),
(195,132,l),
(506,132,l),
(557,0,l),
(681,0,l),
(414,668,l),
(288,668,l),
(21,0,l)
);
},
{
closed = 1;
nodes = (
(351,547,l),
(473,227,l),
(229,227,l)
);
}
);
};
layerId = "96D04FCA-9746-4118-8F04-D3655F0185C2";
shapes = (
{
closed = 1;
nodes = (
(145,0,l),
(195,132,l),
(506,132,l),
(557,0,l),
(681,0,l),
(414,668,l),
(288,668,l),
(21,0,l)
);
},
{
closed = 1;
nodes = (
(351,547,l),
(473,227,l),
(229,227,l)
);
}
);
width = 703;
},
{
anchors = (
{
name = bottom;
pos = (346,0);
},
{
name = ogonek;
pos = (650,0);
},
{
name = top;
pos = (346,668);
}
);
background = {
shapes = (
{
closed = 1;
nodes = (
(76,0,l),
(149,171,l),
(543,171,l),
(616,0,l),
(650,0,l),
(362,668,l),
(330,668,l),
(42,0,l)
);
},
{
closed = 1;
nodes = (
(346,631,l),
(530,201,l),
(162,201,l)
);
}
);
};
layerId = "1750929F-40DF-47FF-8B11-7621AD6711F1";
shapes = (
{
closed = 1;
nodes = (
(76,0,l),
(149,171,l),
(543,171,l),
(616,0,l),
(650,0,l),
(362,668,l),
(330,668,l),
(42,0,l)
);
},
{
closed = 1;
nodes = (
(346,631,l),
(530,201,l),
(162,201,l)
);
}
);
width = 692;
}
);
unicode = 65;
},
{
color = 10;
glyphname = Aacute;
kernLeft = _A1;
kernRight = _A;
lastChange = "2022-05-20 09:34:44 +0000";
layers = (
{
background = {
shapes = (
{
closed = 1;
nodes = (
(208,0,l),
(239,97,l),
(473,97,l),
(504,0,l),
(710,0,l),
(461,668,l),
(251,668,l),
(2,0,l)
);
},
{
closed = 1;
nodes = (
(356,471,l),
(425,251,l),
(287,251,l)
);
},
{
closed = 1;
nodes = (
(416,726,l),
(530,888,l),
(356,888,l),
(296,726,l)
);
}
);
};
layerId = "42F8977D-8264-44FF-8A66-A72BD7D3E619";
shapes = (
{
ref = A;
},
{
pos = (101,198);
ref = acutecomb;
}
);
width = 712;
},
{
background = {
shapes = (
{
closed = 1;
nodes = (
(98,0,l),
(163,158,l),
(531,158,l),
(596,0,l),
(660,0,l),
(379,668,l),
(316,668,l),
(35,0,l)
);
},
{
closed = 1;
nodes = (
(347,604,l),
(510,209,l),
(184,209,l)
);
},
{
closed = 1;
nodes = (
(368,742,l),
(464,888,l),
(405,888,l),
(327,742,l)
);
}
);
};
layerId = "5AACEF06-708C-4913-83FC-D570AD12060A";
shapes = (
{
ref = A;
},
{
pos = (94,198);
ref = acutecomb;
}
);
width = 695;
},
{
background = {
shapes = (
{
closed = 1;
nodes = (
(167,0,l),
(210,120,l),
(495,120,l),
(538,0,l),
(691,0,l),
(430,668,l),
(275,668,l),
(14,0,l)
);
},
{
closed = 1;
nodes = (
(353,521,l),
(456,235,l),
(249,235,l)
);
},
{
closed = 1;
nodes = (
(398,732,l),
(506,888,l),
(374,888,l),
(308,732,l)
);
}
);
};
layerId = "ED0E349C-8452-4A2C-86CF-88CCE81BCF85";
shapes = (
{
ref = A;
},
{
pos = (99,198);
ref = acutecomb;
}
);
width = 706;
},
{
background = {
shapes = (
{
closed = 1;
nodes = (
(189,0,l),
(226,108,l),
(483,108,l),
(520,0,l),
(701,0,l),
(447,668,l),
(262,668,l),
(8,0,l)
);
},
{
closed = 1;
nodes = (
(354,494,l),
(440,244,l),
(269,244,l)
);
},
{
closed = 1;
nodes = (
(408,729,l),
(519,888,l),
(365,888,l),
(301,729,l)
);
}
);
};
layerId = "19C37293-DF0C-4049-8F1C-5BECA685D590";
shapes = (
{
ref = A;
},
{
pos = (98,198);
ref = acutecomb;
}
);
width = 709;
},
{
background = {
shapes = (
{
closed = 1;
nodes = (
(121,0,l),
(178,146,l),
(519,146,l),
(577,0,l),
(670,0,l),
(396,668,l),
(302,668,l),
(28,0,l)
);
},
{
closed = 1;
nodes = (
(349,577,l),
(491,218,l),
(207,218,l)
);
},
{
closed = 1;
nodes = (
(378,739,l),
(478,888,l),
(395,888,l),
(321,739,l)
);
}
);
};
layerId = "80ECBAB3-F383-4124-9E35-EC531BFDEBDA";
shapes = (
{
ref = A;
},
{
pos = (95,198);
ref = acutecomb;
}
);
width = 699;
},
{
background = {
shapes = (
{
closed = 1;
nodes = (
(145,0,l),
(195,132,l),
(506,132,l),
(557,0,l),
(681,0,l),
(414,668,l),
(288,668,l),
(21,0,l)
);
},
{
closed = 1;
nodes = (
(351,547,l),
(473,227,l),
(229,227,l)
);
},
{
closed = 1;
nodes = (
(389,735,l),
(493,888,l),
(384,888,l),
(314,735,l)
);
}
);
};
layerId = "96D04FCA-9746-4118-8F04-D3655F0185C2";
shapes = (
{
ref = A;
},
{
pos = (97,198);
ref = acutecomb;
}
);
width = 703;
},
{
background = {
shapes = (
{
closed = 1;
nodes = (
(76,0,l),
(149,171,l),
(543,171,l),
(616,0,l),
(650,0,l),
(362,668,l),
(330,668,l),
(42,0,l)
);
},
{
closed = 1;
nodes = (
(346,631,l),
(530,201,l),
(162,201,l)
);
},
{
closed = 1;
nodes = (
(358,746,l),
(451,888,l),
(415,888,l),
(334,746,l)
);
}
);
};
layerId = "1750929F-40DF-47FF-8B11-7621AD6711F1";
shapes = (
{
ref = A;
},
{
pos = (91,198);
ref = acutecomb;
}
);
width = 692;
}
);
unicode = 193;
},
{
color = 10;
glyphname = Acircumflex;
kernLeft = _A1;
kernRight = _A;
lastChange = "2022-05-20 09:19:55 +0000";
layers = (
{
background = {
shapes = (
{
closed = 1;
nodes = (
(208,0,l),
(239,97,l),
(473,97,l),
(504,0,l),
(710,0,l),
(461,668,l),
(251,668,l),
(2,0,l)
);
},
{
closed = 1;
nodes = (
(356,471,l),
(425,251,l),
(287,251,l)
);
},
{
closed = 1;
nodes = (
(312,726,l),
(356,797,l),
(400,726,l),
(530,726,l),
(436,888,l),
(276,888,l),
(182,726,l)
);
}
);
};
layerId = "42F8977D-8264-44FF-8A66-A72BD7D3E619";
shapes = (
{
ref = A;
},
{
pos = (56,198);
ref = circumflexcomb;
}
);
width = 712;
},
{
background = {
shapes = (
{
closed = 1;
nodes = (
(98,0,l),
(163,158,l),
(531,158,l),
(596,0,l),
(660,0,l),
(379,668,l),
(316,668,l),
(35,0,l)
);
},
{
closed = 1;
nodes = (
(347,604,l),
(510,209,l),
(184,209,l)
);
},
{
closed = 1;
nodes = (
(264,742,l),
(347,855,l),
(431,742,l),
(480,742,l),
(376,888,l),
(319,888,l),
(215,742,l)
);
}
);
};
layerId = "5AACEF06-708C-4913-83FC-D570AD12060A";
shapes = (
{
ref = A;
},
{
pos = (48,198);
ref = circumflexcomb;
}
);
width = 695;
},
{
background = {
shapes = (
{
closed = 1;
nodes = (
(167,0,l),
(210,120,l),
(495,120,l),
(538,0,l),
(691,0,l),
(430,668,l),
(275,668,l),
(14,0,l)
);
},
{
closed = 1;
nodes = (
(353,521,l),
(456,235,l),
(249,235,l)
);
},
{
closed = 1;
nodes = (
(294,732,l),
(353,819,l),
(412,732,l),
(511,732,l),
(413,888,l),
(292,888,l),
(194,732,l)
);
}
);
};
layerId = "ED0E349C-8452-4A2C-86CF-88CCE81BCF85";
shapes = (
{
ref = A;
},
{
pos = (53,198);
ref = circumflexcomb;
}
);
width = 706;
},
{
background = {
shapes = (
{
closed = 1;
nodes = (
(189,0,l),
(226,108,l),
(483,108,l),
(520,0,l),
(701,0,l),
(447,668,l),
(262,668,l),
(8,0,l)
);
},
{
closed = 1;
nodes = (
(354,494,l),
(440,244,l),
(269,244,l)
);
},
{
closed = 1;
nodes = (
(304,729,l),
(354,807,l),
(405,729,l),
(521,729,l),
(425,888,l),
(283,888,l),
(188,729,l)
);
}
);
};
layerId = "19C37293-DF0C-4049-8F1C-5BECA685D590";
shapes = (
{
ref = A;
},
{
pos = (55,198);
ref = circumflexcomb;
}
);
width = 709;
},
{
background = {
shapes = (
{
closed = 1;
nodes = (
(121,0,l),
(178,146,l),
(519,146,l),
(577,0,l),
(670,0,l),
(396,668,l),
(302,668,l),
(28,0,l)
);
},
{
closed = 1;
nodes = (
(349,577,l),
(491,218,l),
(207,218,l)
);
},
{
closed = 1;
nodes = (
(274,739,l),
(349,843,l),
(425,739,l),
(490,739,l),
(388,888,l),
(310,888,l),
(208,739,l)
);
}
);
};
layerId = "80ECBAB3-F383-4124-9E35-EC531BFDEBDA";
shapes = (
{
ref = A;
},
{
pos = (50,198);
ref = circumflexcomb;
}
);
width = 699;
},
{
background = {
shapes = (
{
closed = 1;
nodes = (
(145,0,l),
(195,132,l),
(506,132,l),
(557,0,l),
(681,0,l),
(414,668,l),
(288,668,l),
(21,0,l)
);
},
{
closed = 1;
nodes = (
(351,547,l),
(473,227,l),
(229,227,l)
);
},
{
closed = 1;
nodes = (
(285,735,l),
(351,830,l),
(418,735,l),
(501,735,l),
(401,888,l),
(300,888,l),
(201,735,l)
);
}
);
};
layerId = "96D04FCA-9746-4118-8F04-D3655F0185C2";
shapes = (
{
ref = A;
},
{
pos = (52,198);
ref = circumflexcomb;
}
);
width = 703;
},
{
background = {
shapes = (
{
closed = 1;
nodes = (
(76,0,l),
(149,171,l),
(543,171,l),
(616,0,l),
(650,0,l),
(362,668,l),
(330,668,l),
(42,0,l)
);
},
{
closed = 1;
nodes = (
(346,631,l),
(530,201,l),
(162,201,l)
);
},
{
closed = 1;
nodes = (
(254,746,l),
(346,867,l),
(438,746,l),
(470,746,l),
(364,888,l),
(328,888,l),
(222,746,l)
);
}
);
};
layerId = "1750929F-40DF-47FF-8B11-7621AD6711F1";
shapes = (
{
ref = A;
},
{
pos = (46,198);
ref = circumflexcomb;
}
);
width = 692;
}
);
unicode = 194;
},
{
color = 10;
glyphname = Adieresis;
kernLeft = _A1;
kernRight = _A;
lastChange = "2022-05-20 09:19:55 +0000";
layers = (
{
background = {
shapes = (
{
closed = 1;
nodes = (
(208,0,l),
(239,97,l),
(473,97,l),
(504,0,l),
(710,0,l),
(461,668,l),
(251,668,l),
(2,0,l)
);
},
{
closed = 1;
nodes = (
(356,471,l),
(425,251,l),
(287,251,l)
);
},
{
closed = 1;
nodes = (
(302,728,o),
(334,762,o),
(334,807,cs),
(334,852,o),
(302,886,o),
(251,886,cs),
(200,886,o),
(168,852,o),
(168,807,cs),
(168,762,o),
(200,728,o),
(251,728,cs)
);
},
{
closed = 1;
nodes = (
(512,728,o),
(544,762,o),
(544,807,cs),
(544,852,o),
(512,886,o),
(461,886,cs),
(410,886,o),
(378,852,o),
(378,807,cs),
(378,762,o),
(410,728,o),
(461,728,cs)
);
}
);
};
layerId = "42F8977D-8264-44FF-8A66-A72BD7D3E619";
shapes = (
{
ref = A;
},
{
pos = (56,198);
ref = dieresiscomb;
}
);
width = 712;
},
{
background = {
shapes = (
{
closed = 1;
nodes = (
(98,0,l),
(163,158,l),
(531,158,l),
(596,0,l),
(660,0,l),
(379,668,l),
(316,668,l),
(35,0,l)
);
},
{
closed = 1;
nodes = (
(347,604,l),
(510,209,l),
(184,209,l)
);
},
{
closed = 1;
nodes = (
(277,782,o),
(291,795,o),
(291,815,cs),
(291,835,o),
(277,848,o),
(256,848,cs),
(235,848,o),
(221,835,o),
(221,815,cs),
(221,795,o),
(235,782,o),
(256,782,cs)
);
},
{
closed = 1;
nodes = (
(460,782,o),
(474,795,o),
(474,815,cs),
(474,835,o),
(460,848,o),
(439,848,cs),
(418,848,o),
(404,835,o),
(404,815,cs),
(404,795,o),
(418,782,o),
(439,782,cs)
);
}
);
};
layerId = "5AACEF06-708C-4913-83FC-D570AD12060A";
shapes = (
{
ref = A;
},
{
pos = (48,198);
ref = dieresiscomb;
}
);
width = 695;
},
{
background = {
shapes = (
{
closed = 1;
nodes = (
(167,0,l),
(210,120,l),
(495,120,l),
(538,0,l),
(691,0,l),
(430,668,l),
(275,668,l),
(14,0,l)
);
},
{
closed = 1;
nodes = (
(353,521,l),
(456,235,l),
(249,235,l)
);
},
{
closed = 1;
nodes = (
(293,748,o),
(318,774,o),
(318,810,cs),
(318,846,o),
(293,872,o),
(253,872,cs),
(213,872,o),
(187,846,o),
(187,810,cs),
(187,774,o),
(213,748,o),
(253,748,cs)
);
},
{
closed = 1;
nodes = (
(492,748,o),
(518,774,o),
(518,810,cs),
(518,846,o),
(492,872,o),
(453,872,cs),
(413,872,o),
(387,846,o),
(387,810,cs),
(387,774,o),
(413,748,o),
(453,748,cs)
);
}
);
};
layerId = "ED0E349C-8452-4A2C-86CF-88CCE81BCF85";
shapes = (
{
ref = A;
},
{
pos = (53,198);
ref = dieresiscomb;
}
);
width = 706;
},
{
background = {
shapes = (
{
closed = 1;
nodes = (
(189,0,l),
(226,108,l),
(483,108,l),
(520,0,l),
(701,0,l),
(447,668,l),
(262,668,l),
(8,0,l)
);
},
{
closed = 1;
nodes = (
(354,494,l),
(440,244,l),
(269,244,l)
);
},
{
closed = 1;
nodes = (
(297,737,o),
(327,768,o),
(327,809,cs),
(327,849,o),
(297,880,o),
(252,880,cs),
(207,880,o),
(177,849,o),
(177,809,cs),
(177,768,o),
(207,737,o),
(252,737,cs)
);
},
{
closed = 1;
nodes = (
(502,737,o),
(532,768,o),
(532,809,cs),
(532,849,o),
(502,880,o),
(457,880,cs),
(412,880,o),
(382,849,o),
(382,809,cs),
(382,768,o),
(412,737,o),
(457,737,cs)
);
}
);
};
layerId = "19C37293-DF0C-4049-8F1C-5BECA685D590";
shapes = (
{
ref = A;
},
{
pos = (55,198);
ref = dieresiscomb;
}
);
width = 709;
},
{
background = {
shapes = (
{
closed = 1;
nodes = (
(121,0,l),
(178,146,l),
(519,146,l),
(577,0,l),
(670,0,l),
(396,668,l),
(302,668,l),
(28,0,l)
);
},
{
closed = 1;
nodes = (
(349,577,l),
(491,218,l),
(207,218,l)
);
},
{
closed = 1;
nodes = (
(283,770,o),
(301,787,o),
(301,814,cs),
(301,839,o),
(283,857,o),
(255,857,cs),
(227,857,o),
(209,839,o),
(209,814,cs),
(209,787,o),
(227,770,o),
(255,770,cs)
);
},
{
closed = 1;
nodes = (
(471,770,o),
(489,787,o),
(489,814,cs),
(489,839,o),
(471,857,o),
(443,857,cs),
(415,857,o),
(397,839,o),
(397,814,cs),
(397,787,o),
(415,770,o),
(443,770,cs)
);
}
);
};
layerId = "80ECBAB3-F383-4124-9E35-EC531BFDEBDA";
shapes = (
{
ref = A;
},
{
pos = (50,198);
ref = dieresiscomb;
}
);
width = 699;
},
{
background = {
shapes = (
{
closed = 1;
nodes = (
(145,0,l),
(195,132,l),
(506,132,l),
(557,0,l),
(681,0,l),
(414,668,l),
(288,668,l),
(21,0,l)
);
},
{
closed = 1;
nodes = (
(351,547,l),
(473,227,l),
(229,227,l)
);
},
{
closed = 1;
nodes = (
(289,758,o),
(310,781,o),
(310,812,cs),
(310,843,o),
(289,865,o),
(254,865,cs),
(219,865,o),
(198,843,o),
(198,812,cs),
(198,781,o),
(219,758,o),
(254,758,cs)
);
},
{
closed = 1;
nodes = (
(483,758,o),
(504,781,o),
(504,812,cs),
(504,843,o),
(483,865,o),
(448,865,cs),
(413,865,o),
(392,843,o),
(392,812,cs),
(392,781,o),
(413,758,o),
(448,758,cs)
);
}
);
};
layerId = "96D04FCA-9746-4118-8F04-D3655F0185C2";
shapes = (
{
ref = A;
},
{
pos = (52,198);
ref = dieresiscomb;
}
);
width = 703;
},
{
background = {
shapes = (
{
closed = 1;
nodes = (
(76,0,l),
(149,171,l),
(543,171,l),
(616,0,l),
(650,0,l),
(362,668,l),
(330,668,l),
(42,0,l)
);
},
{
closed = 1;
nodes = (
(346,631,l),
(530,201,l),
(162,201,l)
);
},
{
closed = 1;
nodes = (
(272,795,o),
(281,802,o),
(281,817,cs),
(281,832,o),
(272,839,o),
(257,839,cs),
(242,839,o),
(233,832,o),
(233,817,cs),
(233,802,o),
(242,795,o),
(257,795,cs)
);
},
{
closed = 1;
nodes = (
(450,795,o),
(459,802,o),
(459,817,cs),
(459,832,o),
(450,839,o),
(435,839,cs),
(420,839,o),
(411,832,o),
(411,817,cs),
(411,802,o),
(420,795,o),
(435,795,cs)
);
}
);
};
layerId = "1750929F-40DF-47FF-8B11-7621AD6711F1";
shapes = (
{
ref = A;
},
{
pos = (46,198);
ref = dieresiscomb;
}
);
width = 692;
}
);
unicode = 196;
},
{
color = 10;
glyphname = Agrave;
kernLeft = _A1;
kernRight = _A;
lastChange = "2022-05-20 09:35:09 +0000";
layers = (
{
background = {
shapes = (
{
closed = 1;
nodes = (
(208,0,l),
(239,97,l),
(473,97,l),
(504,0,l),
(710,0,l),
(461,668,l),
(251,668,l),
(2,0,l)
);
},
{
closed = 1;
nodes = (
(356,471,l),
(425,251,l),
(287,251,l)
);
},
{
closed = 1;
nodes = (
(416,726,l),
(356,888,l),
(182,888,l),
(296,726,l)
);
}
);
};
layerId = "42F8977D-8264-44FF-8A66-A72BD7D3E619";
shapes = (
{
ref = A;
},
{
pos = (20,198);
ref = gravecomb;
}
);
width = 712;
},
{
background = {
shapes = (
{
closed = 1;
nodes = (
(98,0,l),
(163,158,l),
(531,158,l),
(596,0,l),
(660,0,l),
(379,668,l),
(316,668,l),
(35,0,l)
);
},
{
closed = 1;
nodes = (
(347,604,l),
(510,209,l),
(184,209,l)
);
},
{
closed = 1;
nodes = (
(368,742,l),
(290,888,l),
(231,888,l),
(327,742,l)
);
}
);
};
layerId = "5AACEF06-708C-4913-83FC-D570AD12060A";
shapes = (
{
ref = A;
},
{
pos = (14,198);
ref = gravecomb;
}
);
width = 695;
},
{
background = {
shapes = (
{
closed = 1;
nodes = (
(167,0,l),
(210,120,l),
(495,120,l),
(538,0,l),
(691,0,l),
(430,668,l),
(275,668,l),
(14,0,l)
);
},
{
closed = 1;
nodes = (
(353,521,l),
(456,235,l),
(249,235,l)
);
},
{
closed = 1;
nodes = (
(398,732,l),
(332,888,l),
(200,888,l),
(308,732,l)
);
}
);
};
layerId = "ED0E349C-8452-4A2C-86CF-88CCE81BCF85";
shapes = (
{
ref = A;
},
{
pos = (19,198);
ref = gravecomb;
}
);
width = 706;
},
{
background = {
shapes = (
{
closed = 1;
nodes = (
(189,0,l),
(226,108,l),
(483,108,l),
(520,0,l),
(701,0,l),
(447,668,l),
(262,668,l),
(8,0,l)
);
},
{
closed = 1;
nodes = (
(354,494,l),
(440,244,l),
(269,244,l)
);
},
{
closed = 1;
nodes = (
(408,729,l),
(345,888,l),
(191,888,l),
(301,729,l)
);
}
);
};
layerId = "19C37293-DF0C-4049-8F1C-5BECA685D590";
shapes = (
{
ref = A;
},
{
pos = (19,198);
ref = gravecomb;
}
);
width = 709;
},
{
background = {
shapes = (
{
closed = 1;
nodes = (
(121,0,l),
(178,146,l),
(519,146,l),
(577,0,l),
(670,0,l),
(396,668,l),
(302,668,l),
(28,0,l)
);
},
{
closed = 1;
nodes = (
(349,577,l),
(491,218,l),
(207,218,l)
);
},
{
closed = 1;
nodes = (
(378,739,l),
(304,888,l),
(221,888,l),
(321,739,l)
);
}
);
};
layerId = "80ECBAB3-F383-4124-9E35-EC531BFDEBDA";
shapes = (
{
ref = A;
},
{
pos = (16,198);
ref = gravecomb;
}
);
width = 699;
},
{
background = {
shapes = (
{
closed = 1;
nodes = (
(145,0,l),
(195,132,l),
(506,132,l),
(557,0,l),
(681,0,l),
(414,668,l),
(288,668,l),
(21,0,l)
);
},
{
closed = 1;
nodes = (
(351,547,l),
(473,227,l),
(229,227,l)
);
},
{
closed = 1;
nodes = (
(389,735,l),
(319,888,l),
(210,888,l),
(314,735,l)
);
}
);
};
layerId = "96D04FCA-9746-4118-8F04-D3655F0185C2";
shapes = (
{
ref = A;
},
{
pos = (16,198);
ref = gravecomb;
}
);
width = 703;
},
{
background = {
shapes = (
{
closed = 1;
nodes = (
(76,0,l),
(149,171,l),
(543,171,l),
(616,0,l),
(650,0,l),
(362,668,l),
(330,668,l),
(42,0,l)
);
},
{
closed = 1;
nodes = (
(346,631,l),
(530,201,l),
(162,201,l)
);
},
{
closed = 1;
nodes = (
(358,746,l),
(277,888,l),
(241,888,l),
(334,746,l)
);
}
);
};
layerId = "1750929F-40DF-47FF-8B11-7621AD6711F1";
shapes = (
{
ref = A;
},
{
pos = (12,198);
ref = gravecomb;
}
);
width = 692;
}
);
unicode = 192;
},
{
color = 10;
glyphname = Aring;
kernLeft = _A1;
kernRight = _A;
lastChange = "2022-05-20 09:19:55 +0000";
layers = (
{
background = {
shapes = (
{
closed = 1;
nodes = (
(208,0,l),
(239,97,l),
(473,97,l),
(504,0,l),
(710,0,l),
(461,668,l),
(251,668,l),
(2,0,l)
);
},
{
closed = 1;
nodes = (
(356,471,l),
(425,251,l),
(287,251,l)
);
},
{
closed = 1;
nodes = (
(432,696,o),
(480,740,o),
(480,807,cs),
(480,874,o),
(432,918,o),
(356,918,cs),
(280,918,o),
(232,874,o),
(232,807,cs),
(232,740,o),
(280,696,o),
(356,696,cs)
);
},
{
closed = 1;
nodes = (
(331,764,o),
(312,782,o),
(312,807,cs),
(312,832,o),
(331,850,o),
(356,850,cs),
(381,850,o),
(400,832,o),
(400,807,cs),
(400,782,o),
(381,764,o),
(356,764,cs)
);
}
);
};
layerId = "42F8977D-8264-44FF-8A66-A72BD7D3E619";
shapes = (
{
ref = A;
},
{
pos = (56,198);
ref = ringcomb;
}
);
width = 712;
},
{
background = {
shapes = (
{
closed = 1;
nodes = (
(98,0,l),
(163,158,l),
(531,158,l),
(596,0,l),
(660,0,l),
(379,668,l),
(316,668,l),
(35,0,l)
);
},
{
closed = 1;
nodes = (
(347,604,l),
(510,209,l),
(184,209,l)
);
},
{
closed = 1;
nodes = (
(414,712,o),
(457,755,o),
(457,815,cs),
(457,875,o),
(414,918,o),
(347,918,cs),
(280,918,o),
(238,875,o),
(238,815,cs),
(238,755,o),
(280,712,o),
(347,712,cs)
);
},
{
closed = 1;
nodes = (
(304,745,o),
(276,774,o),
(276,815,cs),
(276,856,o),
(304,885,o),
(347,885,cs),
(391,885,o),
(419,856,o),
(419,815,cs),
(419,774,o),
(391,745,o),
(347,745,cs)
);
}
);
};
layerId = "5AACEF06-708C-4913-83FC-D570AD12060A";
shapes = (
{
ref = A;
},
{
pos = (48,198);
ref = ringcomb;
}
);
width = 695;
},
{
background = {
shapes = (
{
closed = 1;
nodes = (
(167,0,l),
(210,120,l),
(495,120,l),
(538,0,l),
(691,0,l),
(430,668,l),
(275,668,l),
(14,0,l)
);
},
{
closed = 1;
nodes = (
(353,521,l),
(456,235,l),
(249,235,l)
);
},
{
closed = 1;
nodes = (
(425,702,o),
(472,746,o),
(472,810,cs),
(472,874,o),
(425,918,o),
(353,918,cs),
(280,918,o),
(234,874,o),
(234,810,cs),
(234,746,o),
(280,702,o),
(353,702,cs)
);
},
{
closed = 1;
nodes = (
(321,757,o),
(299,779,o),
(299,810,cs),
(299,841,o),
(321,863,o),
(353,863,cs),
(385,863,o),
(407,841,o),
(407,810,cs),
(407,779,o),
(385,757,o),
(353,757,cs)
);
}
);
};
layerId = "ED0E349C-8452-4A2C-86CF-88CCE81BCF85";
shapes = (
{
ref = A;
},
{
pos = (53,198);
ref = ringcomb;
}
);
width = 706;
},
{
background = {
shapes = (
{
closed = 1;
nodes = (
(189,0,l),
(226,108,l),
(483,108,l),
(520,0,l),
(701,0,l),
(447,668,l),
(262,668,l),
(8,0,l)
);
},
{
closed = 1;
nodes = (
(354,494,l),
(440,244,l),
(269,244,l)
);
},
{
closed = 1;
nodes = (
(430,699,o),
(476,744,o),
(476,809,cs),
(476,873,o),
(430,918,o),
(354,918,cs),
(279,918,o),
(233,873,o),
(233,809,cs),
(233,744,o),
(279,699,o),
(354,699,cs)
);
},
{
closed = 1;
nodes = (
(326,761,o),
(306,781,o),
(306,809,cs),
(306,836,o),
(326,856,o),
(354,856,cs),
(383,856,o),
(403,836,o),
(403,809,cs),
(403,781,o),
(383,761,o),
(354,761,cs)
);
}
);
};
layerId = "19C37293-DF0C-4049-8F1C-5BECA685D590";
shapes = (
{
ref = A;
},
{
pos = (55,198);
ref = ringcomb;
}
);
width = 709;
},
{
background = {
shapes = (
{
closed = 1;
nodes = (
(121,0,l),
(178,146,l),
(519,146,l),
(577,0,l),
(670,0,l),
(396,668,l),
(302,668,l),
(28,0,l)
);
},
{
closed = 1;
nodes = (
(349,577,l),
(491,218,l),
(207,218,l)
);
},
{
closed = 1;
nodes = (
(417,709,o),
(462,753,o),
(462,814,cs),
(462,874,o),
(417,918,o),
(349,918,cs),
(281,918,o),
(237,874,o),
(237,814,cs),
(237,753,o),
(281,709,o),
(349,709,cs)
);
},
{
closed = 1;
nodes = (
(310,749,o),
(284,775,o),
(284,814,cs),
(284,851,o),
(310,878,o),
(349,878,cs),
(389,878,o),
(415,851,o),
(415,814,cs),
(415,775,o),
(389,749,o),
(349,749,cs)
);
}
);
};
layerId = "80ECBAB3-F383-4124-9E35-EC531BFDEBDA";
shapes = (
{
ref = A;
},
{
pos = (50,198);
ref = ringcomb;
}
);
width = 699;
},
{
background = {
shapes = (
{
closed = 1;
nodes = (
(145,0,l),
(195,132,l),
(506,132,l),
(557,0,l),
(681,0,l),
(414,668,l),
(288,668,l),
(21,0,l)
);
},
{
closed = 1;
nodes = (
(351,547,l),
(473,227,l),
(229,227,l)
);
},
{
closed = 1;
nodes = (
(422,705,o),
(467,749,o),
(467,812,cs),
(467,875,o),
(422,918,o),
(351,918,cs),
(280,918,o),
(236,875,o),
(236,812,cs),
(236,749,o),
(280,705,o),
(351,705,cs)
);
},
{
closed = 1;
nodes = (
(316,753,o),
(292,777,o),
(292,812,cs),
(292,847,o),
(316,870,o),
(351,870,cs),
(387,870,o),
(411,847,o),
(411,812,cs),
(411,777,o),
(387,753,o),
(351,753,cs)
);
}
);
};
layerId = "96D04FCA-9746-4118-8F04-D3655F0185C2";
shapes = (
{
ref = A;
},
{
pos = (52,198);
ref = ringcomb;
}
);
width = 703;
},
{
background = {
shapes = (
{
closed = 1;
nodes = (
(76,0,l),
(149,171,l),
(543,171,l),
(616,0,l),
(650,0,l),
(362,668,l),
(330,668,l),
(42,0,l)
);
},
{
closed = 1;
nodes = (
(346,631,l),
(530,201,l),
(162,201,l)
);
},
{
closed = 1;
nodes = (
(410,716,o),
(453,758,o),
(453,817,cs),
(453,876,o),
(410,918,o),
(346,918,cs),
(282,918,o),
(239,876,o),
(239,817,cs),
(239,758,o),
(282,716,o),
(346,716,cs)
);
},
{
closed = 1;
nodes = (
(299,742,o),
(269,773,o),
(269,817,cs),
(269,861,o),
(299,892,o),
(346,892,cs),
(393,892,o),
(423,861,o),
(423,817,cs),
(423,773,o),
(393,742,o),
(346,742,cs)
);
}
);
};
layerId = "1750929F-40DF-47FF-8B11-7621AD6711F1";
shapes = (
{
ref = A;
},
{
pos = (46,198);
ref = ringcomb;
}
);
width = 692;
}
);
unicode = 197;
},
{
color = 10;
glyphname = Atilde;
kernLeft = _A1;
kernRight = _A;
lastChange = "2022-05-20 09:19:55 +0000";
layers = (
{
background = {
shapes = (
{
closed = 1;
nodes = (
(208,0,l),
(239,97,l),
(473,97,l),
(504,0,l),
(710,0,l),
(461,668,l),
(251,668,l),
(2,0,l)
);
},
{
closed = 1;
nodes = (
(356,471,l),
(425,251,l),
(287,251,l)
);
},
{
closed = 1;
nodes = (
(268,726,l),
(269,757,o),
(280,778,o),
(296,778,cs),
(323,778,o),
(361,726,o),
(422,726,cs),
(510,726,o),
(540,797,o),
(540,888,c),
(444,888,l),
(443,857,o),
(432,836,o),
(416,836,cs),
(389,836,o),
(351,888,o),
(290,888,cs),
(202,888,o),
(172,817,o),
(172,726,c)
);
}
);
};
layerId = "42F8977D-8264-44FF-8A66-A72BD7D3E619";
shapes = (
{
ref = A;
},
{
pos = (56,198);
ref = tildecomb;
}
);
width = 712;
},
{
background = {
shapes = (
{
closed = 1;
nodes = (
(98,0,l),
(163,158,l),
(531,158,l),
(596,0,l),
(660,0,l),
(379,668,l),
(316,668,l),
(35,0,l)
);
},
{
closed = 1;
nodes = (
(347,604,l),
(510,209,l),
(184,209,l)
);
},
{
closed = 1;
nodes = (
(242,759,l),
(245,816,o),
(258,831,o),
(281,831,cs),
(321,831,o),
(356,759,o),
(413,759,cs),
(461,759,o),
(490,788,o),
(490,871,c),
(452,871,l),
(449,814,o),
(436,799,o),
(413,799,cs),
(376,799,o),
(337,871,o),
(281,871,cs),
(233,871,o),
(205,842,o),
(205,759,c)
);
}
);
};
layerId = "5AACEF06-708C-4913-83FC-D570AD12060A";
shapes = (
{
ref = A;
},
{
pos = (48,198);
ref = tildecomb;
}
);
width = 695;
},
{
background = {
shapes = (
{
closed = 1;
nodes = (
(167,0,l),
(210,120,l),
(495,120,l),
(538,0,l),
(691,0,l),
(430,668,l),
(275,668,l),
(14,0,l)
);
},
{
closed = 1;
nodes = (
(353,521,l),
(456,235,l),
(249,235,l)
);
},
{
closed = 1;
nodes = (
(259,738,l),
(261,778,o),
(271,798,o),
(290,798,cs),
(321,798,o),
(360,738,o),
(419,738,cs),
(492,738,o),
(521,794,o),
(521,882,c),
(446,882,l),
(444,842,o),
(434,822,o),
(416,822,cs),
(384,822,o),
(346,882,o),
(287,882,cs),
(214,882,o),
(184,826,o),
(184,738,c)
);
}
);
};
layerId = "ED0E349C-8452-4A2C-86CF-88CCE81BCF85";
shapes = (
{
ref = A;
},
{
pos = (53,198);
ref = tildecomb;
}
);
width = 706;
},
{
background = {
shapes = (
{
closed = 1;
nodes = (
(189,0,l),
(226,108,l),
(483,108,l),
(520,0,l),
(701,0,l),
(447,668,l),
(262,668,l),
(8,0,l)
);
},
{
closed = 1;
nodes = (
(354,494,l),
(440,244,l),
(269,244,l)
);
},
{
closed = 1;
nodes = (
(264,732,l),
(265,769,o),
(275,787,o),
(293,787,cs),
(322,787,o),
(359,732,o),
(420,732,cs),
(501,732,o),
(531,796,o),
(531,885,c),
(445,885,l),
(444,848,o),
(434,830,o),
(416,830,cs),
(388,830,o),
(348,885,o),
(288,885,cs),
(208,885,o),
(178,821,o),
(178,732,c)
);
}
);
};
layerId = "19C37293-DF0C-4049-8F1C-5BECA685D590";
shapes = (
{
ref = A;
},
{
pos = (55,198);
ref = tildecomb;
}
);
width = 709;
},
{
background = {
shapes = (
{
closed = 1;
nodes = (
(121,0,l),
(178,146,l),
(519,146,l),
(577,0,l),
(670,0,l),
(396,668,l),
(302,668,l),
(28,0,l)
);
},
{
closed = 1;
nodes = (
(349,577,l),
(491,218,l),
(207,218,l)
);
},
{
closed = 1;
nodes = (
(249,752,l),
(252,804,o),
(263,820,o),
(283,820,cs),
(318,820,o),
(359,752,o),
(415,752,cs),
(471,752,o),
(500,791,o),
(500,875,c),
(449,875,l),
(446,823,o),
(435,807,o),
(415,807,cs),
(379,807,o),
(340,875,o),
(283,875,cs),
(227,875,o),
(198,836,o),
(198,752,c)
);
}
);
};
layerId = "80ECBAB3-F383-4124-9E35-EC531BFDEBDA";
shapes = (
{
ref = A;
},
{
pos = (50,198);
ref = tildecomb;
}
);
width = 699;
},
{
background = {
shapes = (
{
closed = 1;
nodes = (
(145,0,l),
(195,132,l),
(506,132,l),
(557,0,l),
(681,0,l),
(414,668,l),
(288,668,l),
(21,0,l)
);
},
{
closed = 1;
nodes = (
(351,547,l),
(473,227,l),
(229,227,l)
);
},
{
closed = 1;
nodes = (
(254,745,l),
(257,792,o),
(268,808,o),
(287,808,cs),
(320,808,o),
(358,745,o),
(417,745,cs),
(482,745,o),
(511,792,o),
(511,879,c),
(448,879,l),
(445,832,o),
(434,815,o),
(415,815,cs),
(382,815,o),
(344,879,o),
(285,879,cs),
(220,879,o),
(191,832,o),
(191,745,c)
);
}
);
};
layerId = "96D04FCA-9746-4118-8F04-D3655F0185C2";
shapes = (
{
ref = A;
},
{
pos = (52,198);
ref = tildecomb;
}
);
width = 703;
},
{
background = {
shapes = (
{
closed = 1;
nodes = (
(76,0,l),
(149,171,l),
(543,171,l),
(616,0,l),
(650,0,l),
(362,668,l),
(330,668,l),
(42,0,l)
);
},
{
closed = 1;
nodes = (
(346,631,l),
(530,201,l),
(162,201,l)
);
},
{
closed = 1;
nodes = (
(236,766,l),
(237,829,o),
(256,842,o),
(280,842,cs),
(321,842,o),
(356,766,o),
(412,766,cs),
(452,766,o),
(480,788,o),
(480,868,c),
(456,868,l),
(453,805,o),
(436,792,o),
(412,792,cs),
(371,792,o),
(334,868,o),
(280,868,cs),
(240,868,o),
(212,846,o),
(212,766,c)
);
}
);
};
layerId = "1750929F-40DF-47FF-8B11-7621AD6711F1";
shapes = (
{
ref = A;
},
{
pos = (46,198);
ref = tildecomb;
}
);
width = 692;
}
);
unicode = 195;
},
{
color = 6;
glyphname = AE;
kernLeft = _A1;
lastChange = "2022-05-20 09:19:55 +0000";
layers = (
{
anchors = (
{
name = bottom;
pos = (509,0);
},
{
name = top;
pos = (509,668);
}
);
background = {
shapes = (
{
closed = 1;
nodes = (
(208,0,l),
(261,97,l),
(468,97,l),
(468,0,l),
(976,0,l),
(976,158,l),
(658,158,l),
(658,271,l),
(946,271,l),
(946,417,l),
(658,417,l),
(658,510,l),
(976,510,l),
(976,668,l),
(403,668,l),
(2,0,l)
);
},
{
closed = 1;
nodes = (
(468,480,l),
(468,251,l),
(344,251,l)
);
}
);
};
layerId = "42F8977D-8264-44FF-8A66-A72BD7D3E619";
shapes = (
{
closed = 1;
nodes = (
(208,0,l),
(261,97,l),
(468,97,l),
(468,0,l),
(976,0,l),
(976,158,l),
(658,158,l),
(658,271,l),
(946,271,l),
(946,417,l),
(658,417,l),
(658,510,l),
(976,510,l),
(976,668,l),
(403,668,l),
(2,0,l)
);
},
{
closed = 1;
nodes = (
(468,480,l),
(468,251,l),
(344,251,l)
);
}
);
width = 1018;
},
{
anchors = (
{
name = bottom;
pos = (493,0);
},
{
name = top;
pos = (493,668);
}
);
background = {
shapes = (
{
closed = 1;
nodes = (
(103,0,l),
(204,158,l),
(484,158,l),
(484,0,l),
(926,0,l),
(926,52,l),
(543,52,l),
(543,318,l),
(896,318,l),
(896,369,l),
(543,369,l),
(543,616,l),
(926,616,l),
(926,668,l),
(468,668,l),
(35,0,l)
);
},
{
closed = 1;
nodes = (
(485,595,l),
(484,209,l),
(237,209,l)
);
}
);
};
layerId = "5AACEF06-708C-4913-83FC-D570AD12060A";
shapes = (
{
closed = 1;
nodes = (
(103,0,l),
(204,158,l),
(484,158,l),
(484,0,l),
(926,0,l),
(926,52,l),
(543,52,l),
(543,318,l),
(896,318,l),
(896,369,l),
(543,369,l),
(543,616,l),
(926,616,l),
(926,668,l),
(468,668,l),
(35,0,l)
);
},
{
closed = 1;
nodes = (
(485,595,l),
(484,209,l),
(237,209,l)
);
}
);
width = 985;
},
{
anchors = (
{
name = bottom;
pos = (503,0);
},
{
name = top;
pos = (503,668);
}
);
background = {
shapes = (
{
closed = 1;
nodes = (
(170,0,l),
(241,120,l),
(474,120,l),
(474,0,l),
(958,0,l),
(958,119,l),
(615,119,l),
(615,288,l),
(928,288,l),
(928,400,l),
(615,400,l),
(615,549,l),
(958,549,l),
(958,668,l),
(427,668,l),
(14,0,l)
);
},
{
closed = 1;
nodes = (
(474,520,l),
(474,235,l),
(306,235,l)
);
}
);
};
layerId = "ED0E349C-8452-4A2C-86CF-88CCE81BCF85";
shapes = (
{
closed = 1;
nodes = (
(170,0,l),
(241,120,l),
(474,120,l),
(474,0,l),
(958,0,l),
(958,119,l),
(615,119,l),
(615,288,l),
(928,288,l),
(928,400,l),
(615,400,l),
(615,549,l),
(958,549,l),
(958,668,l),
(427,668,l),
(14,0,l)
);
},
{
closed = 1;
nodes = (
(474,520,l),
(474,235,l),
(306,235,l)
);
}
);
width = 1006;
},
{
anchors = (
{
name = bottom;
pos = (506,0);
},
{
name = top;
pos = (506,668);
}
);
background = {
shapes = (
{
closed = 1;
nodes = (
(190,0,l),
(252,108,l),
(471,108,l),
(471,0,l),
(967,0,l),
(967,140,l),
(638,140,l),
(638,279,l),
(937,279,l),
(937,409,l),
(638,409,l),
(638,528,l),
(967,528,l),
(967,668,l),
(414,668,l),
(8,0,l)
);
},
{
closed = 1;
nodes = (
(471,499,l),
(471,244,l),
(326,244,l)
);
}
);
};
layerId = "19C37293-DF0C-4049-8F1C-5BECA685D590";
shapes = (
{
closed = 1;
nodes = (
(190,0,l),
(252,108,l),
(471,108,l),
(471,0,l),
(967,0,l),
(967,140,l),
(638,140,l),
(638,279,l),
(937,279,l),
(937,409,l),
(638,409,l),
(638,528,l),
(967,528,l),
(967,668,l),
(414,668,l),
(8,0,l)
);
},
{
closed = 1;
nodes = (
(471,499,l),
(471,244,l),
(326,244,l)
);
}
);
width = 1012;
},
{
anchors = (
{
name = bottom;
pos = (496,0);
},
{
name = top;
pos = (496,668);
}
);
background = {
shapes = (
{
closed = 1;
nodes = (
(127,0,l),
(218,146,l),
(481,146,l),
(481,0,l),
(937,0,l),
(937,74,l),
(567,74,l),
(567,308,l),
(907,308,l),
(907,380,l),
(567,380,l),
(567,594,l),
(937,594,l),
(937,668,l),
(455,668,l),
(28,0,l)
);
},
{
closed = 1;
nodes = (
(481,566,l),
(481,218,l),
(263,218,l)
);
}
);
};
layerId = "80ECBAB3-F383-4124-9E35-EC531BFDEBDA";
shapes = (
{
closed = 1;
nodes = (
(127,0,l),
(218,146,l),
(481,146,l),
(481,0,l),
(937,0,l),
(937,74,l),
(567,74,l),
(567,308,l),
(907,308,l),
(907,380,l),
(567,380,l),
(567,594,l),
(937,594,l),
(937,668,l),
(455,668,l),
(28,0,l)
);
},
{
closed = 1;
nodes = (
(481,566,l),
(481,218,l),
(263,218,l)
);
}
);
width = 992;
},
{
anchors = (
{
name = bottom;
pos = (500,0);
},
{
name = top;
pos = (500,668);
}
);
background = {
shapes = (
{
closed = 1;
nodes = (
(150,0,l),
(230,132,l),
(477,132,l),
(477,0,l),
(948,0,l),
(948,98,l),
(592,98,l),
(592,298,l),
(918,298,l),
(918,390,l),
(592,390,l),
(592,570,l),
(948,570,l),
(948,668,l),
(440,668,l),
(21,0,l)
);
},
{
closed = 1;
nodes = (
(477,542,l),
(477,227,l),
(286,227,l)
);
}
);
};
layerId = "96D04FCA-9746-4118-8F04-D3655F0185C2";
shapes = (
{
closed = 1;
nodes = (
(150,0,l),
(230,132,l),
(477,132,l),
(477,0,l),
(948,0,l),
(948,98,l),
(592,98,l),
(592,298,l),
(918,298,l),
(918,390,l),
(592,390,l),
(592,570,l),
(948,570,l),
(948,668,l),
(440,668,l),
(21,0,l)
);
},
{
closed = 1;
nodes = (
(477,542,l),
(477,227,l),
(286,227,l)
);
}
);
width = 999;
},
{
anchors = (
{
name = bottom;
pos = (489,0);
},
{
name = top;
pos = (489,668);
}
);
background = {
shapes = (
{
closed = 1;
nodes = (
(79,0,l),
(191,171,l),
(488,171,l),
(488,0,l),
(916,0,l),
(916,30,l),
(520,30,l),
(520,329,l),
(886,329,l),
(886,359,l),
(520,359,l),
(520,638,l),
(916,638,l),
(916,668,l),
(482,668,l),
(42,0,l)
);
},
{
closed = 1;
nodes = (
(489,625,l),
(488,201,l),
(211,201,l)
);
}
);
};
layerId = "1750929F-40DF-47FF-8B11-7621AD6711F1";
shapes = (
{
closed = 1;
nodes = (
(79,0,l),
(191,171,l),
(488,171,l),
(488,0,l),
(916,0,l),
(916,30,l),
(520,30,l),
(520,329,l),
(886,329,l),
(886,359,l),
(520,359,l),
(520,638,l),
(916,638,l),
(916,668,l),
(482,668,l),
(42,0,l)
);
},
{
closed = 1;
nodes = (
(489,625,l),
(488,201,l),
(211,201,l)
);
}
);
width = 978;
}
);
unicode = 198;
},
{
color = 6;
glyphname = B;
lastChange = "2022-05-20 09:19:55 +0000";
layers = (
{
anchors = (
{
name = bottom;
pos = (347,0);
},
{
name = center;
pos = (347,334);
},
{
name = top;
pos = (347,668);
}
);
background = {
shapes = (
{
closed = 1;
nodes = (
(394,0,ls),
(585,0,o),
(668,60,o),
(668,181,cs),
(668,265,o),
(628,317,o),
(540,344,c),
(619,372,o),
(648,428,o),
(648,497,cs),
(648,618,o),
(561,668,o),
(394,668,cs),
(56,668,l),
(56,0,l)
);
},
{
closed = 1;
nodes = (
(246,276,l),
(374,276,ls),
(450,276,o),
(476,257,o),
(476,212,cs),
(476,167,o),
(450,148,o),
(374,148,cs),
(246,148,l)
);
},
{
closed = 1;
nodes = (
(246,520,l),
(374,520,ls),
(439,520,o),
(456,501,o),
(456,466,cs),
(456,431,o),
(439,412,o),
(374,412,cs),
(246,412,l)
);
}
);
};
layerId = "42F8977D-8264-44FF-8A66-A72BD7D3E619";
shapes = (
{
closed = 1;
nodes = (
(394,0,ls),
(585,0,o),
(668,60,o),
(668,181,cs),
(668,265,o),
(628,317,o),
(540,344,c),
(619,372,o),
(648,428,o),
(648,497,cs),
(648,618,o),
(561,668,o),
(394,668,cs),
(56,668,l),
(56,0,l)
);
},
{
closed = 1;
nodes = (
(246,276,l),
(374,276,ls),
(450,276,o),
(476,257,o),
(476,212,cs),
(476,167,o),
(450,148,o),
(374,148,cs),
(246,148,l)
);
},
{
closed = 1;
nodes = (
(246,520,l),
(374,520,ls),
(439,520,o),
(456,501,o),
(456,466,cs),
(456,431,o),
(439,412,o),
(374,412,cs),
(246,412,l)
);
}
);
width = 694;
},
{
anchors = (
{
name = bottom;
pos = (347,0);
},
{
name = center;
pos = (347,334);
},
{
name = top;
pos = (347,668);
}
);
background = {
shapes = (
{
closed = 1;
nodes = (
(385,0,ls),
(550,0,o),
(635,48,o),
(635,180,cs),
(635,276,o),
(590,325,o),
(499,344,c),
(575,364,o),
(615,407,o),
(615,498,cs),
(615,623,o),
(532,668,o),
(385,668,cs),
(89,668,l),
(89,0,l)
);
},
{
closed = 1;
nodes = (
(148,319,l),
(374,319,ls),
(522,319,o),
(574,280,o),
(574,185,cs),
(574,90,o),
(522,52,o),
(374,52,cs),
(148,52,l)
);
},
{
closed = 1;
nodes = (
(148,616,l),
(374,616,ls),
(506,616,o),
(554,584,o),
(554,492,cs),
(554,399,o),
(506,369,o),
(374,369,cs),
(148,369,l)
);
}
);
};
layerId = "5AACEF06-708C-4913-83FC-D570AD12060A";
shapes = (
{
closed = 1;
nodes = (
(385,0,ls),
(550,0,o),
(635,48,o),
(635,180,cs),
(635,276,o),
(590,325,o),
(499,344,c),
(575,364,o),
(615,407,o),
(615,498,cs),
(615,623,o),
(532,668,o),
(385,668,cs),
(89,668,l),
(89,0,l)
);
},
{
closed = 1;
nodes = (
(148,319,l),
(374,319,ls),
(522,319,o),
(574,280,o),
(574,185,cs),
(574,90,o),
(522,52,o),
(374,52,cs),
(148,52,l)
);
},
{
closed = 1;
nodes = (
(148,616,l),
(374,616,ls),
(506,616,o),
(554,584,o),
(554,492,cs),
(554,399,o),
(506,369,o),
(374,369,cs),
(148,369,l)
);
}
);
width = 694;
},
{
anchors = (
{
name = bottom;
pos = (347,0);
},
{
name = center;
pos = (347,334);
},
{
name = top;
pos = (347,668);
}
);
background = {
shapes = (
{
closed = 1;
nodes = (
(391,0,ls),
(574,0,o),
(656,55,o),
(656,182,cs),
(656,267,o),
(618,321,o),
(529,344,c),
(605,369,o),
(636,421,o),
(636,496,cs),
(636,617,o),
(552,668,o),
(391,668,cs),
(68,668,l),
(68,0,l)
);
},
{
closed = 1;
nodes = (
(209,291,l),
(374,291,ls),
(477,291,o),
(513,265,o),
(513,202,cs),
(513,138,o),
(477,113,o),
(374,113,cs),
(209,113,l)
);
},
{
closed = 1;
nodes = (
(209,555,l),
(374,555,ls),
(465,555,o),
(493,532,o),
(493,476,cs),
(493,419,o),
(463,397,o),
(374,397,cs),
(209,397,l)
);
}
);
};
layerId = "ED0E349C-8452-4A2C-86CF-88CCE81BCF85";
shapes = (
{
closed = 1;
nodes = (
(391,0,ls),
(574,0,o),
(656,55,o),
(656,182,cs),
(656,267,o),
(618,321,o),
(529,344,c),
(605,369,o),
(636,421,o),
(636,496,cs),
(636,617,o),
(552,668,o),
(391,668,cs),
(68,668,l),
(68,0,l)
);
},
{
closed = 1;
nodes = (
(209,291,l),
(374,291,ls),
(477,291,o),
(513,265,o),
(513,202,cs),
(513,138,o),
(477,113,o),
(374,113,cs),
(209,113,l)
);
},
{
closed = 1;
nodes = (
(209,555,l),
(374,555,ls),
(465,555,o),
(493,532,o),
(493,476,cs),
(493,419,o),
(463,397,o),
(374,397,cs),
(209,397,l)
);
}
);
width = 694;
},
{
anchors = (
{
name = bottom;
pos = (347,0);
},
{
name = center;
pos = (347,334);
},
{
name = top;
pos = (347,668);
}
);
background = {
shapes = (
{
closed = 1;
nodes = (
(392,0,ls),
(579,0,o),
(662,58,o),
(662,182,cs),
(662,266,o),
(623,320,o),
(535,344,c),
(612,371,o),
(642,424,o),
(642,496,cs),
(642,617,o),
(557,668,o),
(392,668,cs),
(62,668,l),
(62,0,l)
);
},
{
closed = 1;
nodes = (
(229,283,l),
(374,283,ls),
(462,283,o),
(493,262,o),
(493,207,cs),
(493,154,o),
(462,132,o),
(374,132,cs),
(229,132,l)
);
},
{
closed = 1;
nodes = (
(229,536,l),
(374,536,ls),
(451,536,o),
(473,516,o),
(473,471,cs),
(473,424,o),
(451,405,o),
(374,405,cs),
(229,405,l)
);
}
);
};
layerId = "19C37293-DF0C-4049-8F1C-5BECA685D590";
shapes = (
{
closed = 1;
nodes = (
(392,0,ls),
(579,0,o),
(662,58,o),
(662,182,cs),
(662,266,o),
(623,320,o),
(535,344,c),
(612,371,o),
(642,424,o),
(642,496,cs),
(642,617,o),
(557,668,o),
(392,668,cs),
(62,668,l),
(62,0,l)
);
},
{
closed = 1;
nodes = (
(229,283,l),
(374,283,ls),
(462,283,o),
(493,262,o),
(493,207,cs),
(493,154,o),
(462,132,o),
(374,132,cs),
(229,132,l)
);
},
{
closed = 1;
nodes = (
(229,536,l),
(374,536,ls),
(451,536,o),
(473,516,o),
(473,471,cs),
(473,424,o),
(451,405,o),
(374,405,cs),
(229,405,l)
);
}
);
width = 694;
},
{
anchors = (
{
name = bottom;
pos = (347,0);
},
{
name = center;
pos = (347,334);
},
{
name = top;
pos = (347,668);
}
);
background = {
shapes = (
{
closed = 1;
nodes = (
(387,0,ls),
(559,0,o),
(642,51,o),
(642,184,cs),
(642,272,o),
(607,325,o),
(516,345,c),
(592,366,o),
(622,414,o),
(622,494,cs),
(622,618,o),
(542,668,o),
(387,668,cs),
(82,668,l),
(82,0,l)
);
},
{
closed = 1;
nodes = (
(168,308,l),
(374,308,ls),
(507,308,o),
(554,275,o),
(554,191,cs),
(554,107,o),
(507,74,o),
(374,74,cs),
(168,74,l)
);
},
{
closed = 1;
nodes = (
(168,594,l),
(374,594,ls),
(491,594,o),
(534,567,o),
(534,487,cs),
(534,407,o),
(491,380,o),
(374,380,cs),
(168,380,l)
);
}
);
};
layerId = "80ECBAB3-F383-4124-9E35-EC531BFDEBDA";
shapes = (
{
closed = 1;
nodes = (
(387,0,ls),
(559,0,o),
(642,51,o),
(642,184,cs),
(642,272,o),
(607,325,o),
(516,345,c),
(592,366,o),
(622,414,o),
(622,494,cs),
(622,618,o),
(542,668,o),
(387,668,cs),
(82,668,l),
(82,0,l)
);
},
{
closed = 1;
nodes = (
(168,308,l),
(374,308,ls),
(507,308,o),
(554,275,o),
(554,191,cs),
(554,107,o),
(507,74,o),
(374,74,cs),
(168,74,l)
);
},
{
closed = 1;
nodes = (
(168,594,l),
(374,594,ls),
(491,594,o),
(534,567,o),
(534,487,cs),
(534,407,o),
(491,380,o),
(374,380,cs),
(168,380,l)
);
}
);
width = 694;
},
{
anchors = (
{
name = bottom;
pos = (347,0);
},
{
name = center;
pos = (347,334);
},
{
name = top;
pos = (347,668);
}
);
background = {
shapes = (
{
closed = 1;
nodes = (
(389,0,ls),
(566,0,o),
(649,54,o),
(649,183,cs),
(649,270,o),
(612,322,o),
(523,345,c),
(599,368,o),
(629,419,o),
(629,495,cs),
(629,618,o),
(546,668,o),
(389,668,cs),
(75,668,l),
(75,0,l)
);
},
{
closed = 1;
nodes = (
(190,299,l),
(374,299,ls),
(491,299,o),
(532,270,o),
(532,197,cs),
(532,122,o),
(491,95,o),
(374,95,cs),
(190,95,l)
);
},
{
closed = 1;
nodes = (
(190,573,l),
(374,573,ls),
(477,573,o),
(512,549,o),
(512,481,cs),
(512,413,o),
(477,389,o),
(374,389,cs),
(190,389,l)
);
}
);
};
layerId = "96D04FCA-9746-4118-8F04-D3655F0185C2";
shapes = (
{
closed = 1;
nodes = (
(389,0,ls),
(566,0,o),
(649,54,o),
(649,183,cs),
(649,270,o),
(612,322,o),
(523,345,c),
(599,368,o),
(629,419,o),
(629,495,cs),
(629,618,o),
(546,668,o),
(389,668,cs),
(75,668,l),
(75,0,l)
);
},
{
closed = 1;
nodes = (
(190,299,l),
(374,299,ls),
(491,299,o),
(532,270,o),
(532,197,cs),
(532,122,o),
(491,95,o),
(374,95,cs),
(190,95,l)
);
},
{
closed = 1;
nodes = (
(190,573,l),
(374,573,ls),
(477,573,o),
(512,549,o),
(512,481,cs),
(512,413,o),
(477,389,o),
(374,389,cs),
(190,389,l)
);
}
);
width = 694;
},
{
anchors = (
{
name = bottom;
pos = (347,0);
},
{
name = center;
pos = (347,334);
},
{
name = top;
pos = (347,668);
}
);
background = {
shapes = (
{
closed = 1;
nodes = (
(384,0,ls),
(544,0,o),
(628,45,o),
(628,176,cs),
(628,281,o),
(574,327,o),
(483,344,c),
(558,363,o),
(608,400,o),
(608,502,cs),
(608,633,o),
(524,668,o),
(384,668,cs),
(96,668,l),
(96,0,l)
);
},
{
closed = 1;
nodes = (
(128,330,l),
(374,330,ls),
(539,330,o),
(594,285,o),
(594,180,cs),
(594,75,o),
(539,30,o),
(374,30,cs),
(128,30,l)
);
},
{
closed = 1;
nodes = (
(128,638,l),
(374,638,ls),
(518,638,o),
(574,603,o),
(574,498,cs),
(574,393,o),
(518,358,o),
(374,358,cs),
(128,358,l)
);
}
);
};
layerId = "1750929F-40DF-47FF-8B11-7621AD6711F1";
shapes = (
{
closed = 1;
nodes = (
(384,0,ls),
(544,0,o),
(628,45,o),
(628,176,cs),
(628,281,o),
(574,327,o),
(483,344,c),
(558,363,o),
(608,400,o),
(608,502,cs),
(608,633,o),
(524,668,o),
(384,668,cs),
(96,668,l),
(96,0,l)
);
},
{
closed = 1;
nodes = (
(128,330,l),
(374,330,ls),
(539,330,o),
(594,285,o),
(594,180,cs),
(594,75,o),
(539,30,o),
(374,30,cs),
(128,30,l)
);
},
{
closed = 1;
nodes = (
(128,638,l),
(374,638,ls),
(518,638,o),
(574,603,o),
(574,498,cs),
(574,393,o),
(518,358,o),
(374,358,cs),
(128,358,l)
);
}
);
width = 694;
}
);
unicode = 66;
},
{
color = 6;
glyphname = C;
kernLeft = _C1;
kernRight = _C;
lastChange = "2022-05-20 09:33:38 +0000";
layers = (
{
anchors = (
{
name = bottom;
pos = (359,0);
},
{
name = top;
pos = (386,668);
}
);
background = {
shapes = (
{
closed = 1;
nodes = (
(477,-10,o),
(552,10,o),
(632,61,c),
(569,203,l),
(500,168,o),
(446,154,o),
(390,154,cs),
(289,154,o),
(218,226,o),
(218,334,cs),
(218,442,o),
(289,514,o),
(390,514,cs),
(446,514,o),
(500,500,o),
(569,465,c),
(632,607,l),
(552,658,o),
(477,678,o),
(390,678,cs),
(171,678,o),
(26,534,o),
(26,334,cs),
(26,134,o),
(170,-10,o),
(390,-10,cs)
);
}
);
};
layerId = "42F8977D-8264-44FF-8A66-A72BD7D3E619";
shapes = (
{
closed = 1;
nodes = (
(477,-10,o),
(552,10,o),
(632,61,c),
(569,203,l),
(500,168,o),
(446,154,o),
(390,154,cs),
(289,154,o),
(218,226,o),
(218,334,cs),
(218,442,o),
(289,514,o),
(390,514,cs),
(446,514,o),
(500,500,o),
(569,465,c),
(632,607,l),
(552,658,o),
(477,678,o),
(390,678,cs),
(171,678,o),
(26,534,o),
(26,334,cs),
(26,134,o),
(170,-10,o),
(390,-10,cs)
);
}
);
width = 652;
},
{
anchors = (
{
name = bottom;
pos = (369,0);
},
{
name = top;
pos = (384,668);
}
);
background = {
shapes = (
{
closed = 1;
nodes = (
(482,-10,o),
(555,17,o),
(615,68,c),
(587,114,l),
(534,67,o),
(470,43,o),
(390,43,cs),
(222,43,o),
(120,160,o),
(120,334,cs),
(120,507,o),
(222,625,o),
(390,625,cs),
(470,625,o),
(534,600,o),
(587,553,c),
(615,599,l),
(555,650,o),
(482,678,o),
(390,678,cs),
(183,678,o),
(59,534,o),
(59,334,cs),
(59,134,o),
(183,-10,o),
(390,-10,cs)
);
}
);
};
layerId = "5AACEF06-708C-4913-83FC-D570AD12060A";
shapes = (
{
closed = 1;
nodes = (
(482,-10,o),
(555,17,o),
(615,68,c),
(587,114,l),
(534,67,o),
(470,43,o),
(390,43,cs),
(222,43,o),
(120,160,o),
(120,334,cs),
(120,507,o),
(222,625,o),
(390,625,cs),
(470,625,o),
(534,600,o),
(587,553,c),
(615,599,l),
(555,650,o),
(482,678,o),
(390,678,cs),
(183,678,o),
(59,534,o),
(59,334,cs),
(59,134,o),
(183,-10,o),
(390,-10,cs)
);
}
);
width = 668;
},
{
anchors = (
{
name = bottom;
pos = (363,0);
},
{
name = top;
pos = (379,668);
}
);
background = {
shapes = (
{
closed = 1;
nodes = (
(478,-10,o),
(553,13,o),
(626,64,c),
(576,171,l),
(512,131,o),
(454,113,o),
(390,113,cs),
(265,113,o),
(181,202,o),
(181,334,cs),
(181,466,o),
(265,555,o),
(390,555,cs),
(454,555,o),
(512,537,o),
(576,497,c),
(626,604,l),
(553,655,o),
(478,678,o),
(390,678,cs),
(177,678,o),
(38,534,o),
(38,334,cs),
(38,134,o),
(175,-10,o),
(390,-10,cs)
);
}
);
};
layerId = "ED0E349C-8452-4A2C-86CF-88CCE81BCF85";
shapes = (
{
closed = 1;
nodes = (
(478,-10,o),
(553,13,o),
(626,64,c),
(576,171,l),
(512,131,o),
(454,113,o),
(390,113,cs),
(265,113,o),
(181,202,o),
(181,334,cs),
(181,466,o),
(265,555,o),
(390,555,cs),
(454,555,o),
(512,537,o),
(576,497,c),
(626,604,l),
(553,655,o),
(478,678,o),
(390,678,cs),
(177,678,o),
(38,534,o),
(38,334,cs),
(38,134,o),
(175,-10,o),
(390,-10,cs)
);
}
);
width = 658;
},
{
anchors = (
{
name = bottom;
pos = (361,0);
},
{
name = top;
pos = (378,668);
}
);
background = {
shapes = (
{
closed = 1;
nodes = (
(478,-10,o),
(553,11,o),
(629,62,c),
(572,188,l),
(505,151,o),
(450,135,o),
(390,135,cs),
(277,135,o),
(201,215,o),
(201,334,cs),
(201,453,o),
(277,533,o),
(390,533,cs),
(450,533,o),
(505,517,o),
(572,480,c),
(629,606,l),
(553,657,o),
(478,678,o),
(390,678,cs),
(173,678,o),
(32,534,o),
(32,334,cs),
(32,134,o),
(172,-10,o),
(390,-10,cs)
);
}
);
};
layerId = "19C37293-DF0C-4049-8F1C-5BECA685D590";
shapes = (
{
closed = 1;
nodes = (
(478,-10,o),
(553,11,o),
(629,62,c),
(572,188,l),
(505,151,o),
(450,135,o),
(390,135,cs),
(277,135,o),
(201,215,o),
(201,334,cs),
(201,453,o),
(277,533,o),
(390,533,cs),
(450,533,o),
(505,517,o),
(572,480,c),
(629,606,l),
(553,657,o),
(478,678,o),
(390,678,cs),
(173,678,o),
(32,534,o),
(32,334,cs),
(32,134,o),
(172,-10,o),
(390,-10,cs)
);
}
);
width = 655;
},
{
anchors = (
{
name = bottom;
pos = (367,0);
},
{
name = top;
pos = (373,668);
}
);
background = {
shapes = (
{
closed = 1;
nodes = (
(482,-10,o),
(555,16,o),
(619,67,c),
(583,134,l),
(527,90,o),
(465,66,o),
(390,66,cs),
(236,66,o),
(140,174,o),
(140,334,cs),
(140,494,o),
(236,602,o),
(390,602,cs),
(465,602,o),
(527,578,o),
(583,534,c),
(619,601,l),
(555,652,o),
(482,678,o),
(390,678,cs),
(181,678,o),
(52,534,o),
(52,334,cs),
(52,134,o),
(181,-10,o),
(390,-10,cs)
);
}
);
};
layerId = "80ECBAB3-F383-4124-9E35-EC531BFDEBDA";
shapes = (
{
closed = 1;
nodes = (
(482,-10,o),
(555,16,o),
(619,67,c),
(583,134,l),
(527,90,o),
(465,66,o),
(390,66,cs),
(236,66,o),
(140,174,o),
(140,334,cs),
(140,494,o),
(236,602,o),
(390,602,cs),
(465,602,o),
(527,578,o),
(583,534,c),
(619,601,l),
(555,652,o),
(482,678,o),
(390,678,cs),
(181,678,o),
(52,534,o),
(52,334,cs),
(52,134,o),
(181,-10,o),
(390,-10,cs)
);
}
);
width = 665;
},
{
anchors = (
{
name = bottom;
pos = (366,0);
},
{
name = top;
pos = (381,668);
}
);
background = {
shapes = (
{
closed = 1;
nodes = (
(481,-10,o),
(554,14,o),
(623,65,c),
(579,153,l),
(519,112,o),
(459,91,o),
(390,91,cs),
(251,91,o),
(162,189,o),
(162,334,cs),
(162,479,o),
(251,577,o),
(390,577,cs),
(459,577,o),
(519,556,o),
(579,515,c),
(623,603,l),
(554,654,o),
(481,678,o),
(390,678,cs),
(178,678,o),
(45,534,o),
(45,334,cs),
(45,134,o),
(178,-10,o),
(390,-10,cs)
);
}
);
};
layerId = "96D04FCA-9746-4118-8F04-D3655F0185C2";
shapes = (
{
closed = 1;
nodes = (
(481,-10,o),
(554,14,o),
(623,65,c),
(579,153,l),
(519,112,o),
(459,91,o),
(390,91,cs),
(251,91,o),
(162,189,o),
(162,334,cs),
(162,479,o),
(251,577,o),
(390,577,cs),
(459,577,o),
(519,556,o),
(579,515,c),
(623,603,l),
(554,654,o),
(481,678,o),
(390,678,cs),
(178,678,o),
(45,534,o),
(45,334,cs),
(45,134,o),
(178,-10,o),
(390,-10,cs)
);
}
);
width = 661;
},
{
anchors = (
{
name = bottom;
pos = (370,0);
},
{
name = top;
pos = (391,668);
}
);
background = {
shapes = (
{
closed = 1;
nodes = (
(485,-10,o),
(556,19,o),
(612,70,c),
(592,95,l),
(541,47,o),
(474,20,o),
(390,20,cs),
(208,20,o),
(100,147,o),
(100,334,cs),
(100,521,o),
(208,648,o),
(390,648,cs),
(474,648,o),
(541,621,o),
(592,573,c),
(612,598,l),
(556,649,o),
(485,678,o),
(390,678,cs),
(186,678,o),
(66,534,o),
(66,334,cs),
(66,134,o),
(186,-10,o),
(390,-10,cs)
);
}
);
};
layerId = "1750929F-40DF-47FF-8B11-7621AD6711F1";
shapes = (
{
closed = 1;
nodes = (
(485,-10,o),
(556,19,o),
(612,70,c),
(592,95,l),
(541,47,o),
(474,20,o),
(390,20,cs),
(208,20,o),
(100,147,o),
(100,334,cs),
(100,521,o),
(208,648,o),
(390,648,cs),
(474,648,o),
(541,621,o),
(592,573,c),
(612,598,l),
(556,649,o),
(485,678,o),
(390,678,cs),
(186,678,o),
(66,534,o),
(66,334,cs),
(66,134,o),
(186,-10,o),
(390,-10,cs)
);
}
);
width = 672;
}
);
unicode = 67;
},
{
color = 10;
glyphname = Ccedilla;
kernLeft = _C1;
kernRight = _C;
lastChange = "2022-05-20 09:33:35 +0000";
layers = (
{
background = {
shapes = (
{
closed = 1;
nodes = (
(427,-214,o),
(477,-172,o),
(477,-112,cs),
(477,-63,o),
(437,-40,o),
(381,-40,c),
(394,-10,l),
(478,-9,o),
(552,10,o),
(632,61,c),
(569,203,l),
(500,168,o),
(446,154,o),
(390,154,cs),
(289,154,o),
(218,226,o),
(218,334,cs),
(218,442,o),
(289,514,o),
(390,514,cs),
(446,514,o),
(500,500,o),
(569,465,c),
(632,607,l),
(552,658,o),
(477,678,o),
(390,678,cs),
(171,678,o),
(26,534,o),
(26,334,cs),
(26,156,o),
(139,22,o),
(319,-5,c),
(303,-40,l),
(303,-77,l),
(324,-77,ls),
(355,-77,o),
(370,-86,o),
(370,-103,cs),
(370,-120,o),
(355,-129,o),
(324,-129,cs),
(305,-129,o),
(270,-126,o),
(243,-119,c),
(243,-201,l),
(280,-212,o),
(316,-214,o),
(335,-214,cs)
);
}
);
};
layerId = "42F8977D-8264-44FF-8A66-A72BD7D3E619";
shapes = (
{
ref = C;
},
{
pos = (59,0);
ref = cedillacomb;
}
);
width = 652;
},
{
background = {
shapes = (
{
closed = 1;
nodes = (
(413,-181,o),
(444,-155,o),
(444,-112,cs),
(444,-73,o),
(415,-49,o),
(364,-49,c),
(381,-9,l),
(384,-9,o),
(387,-10,o),
(390,-10,cs),
(482,-10,o),
(555,17,o),
(615,68,c),
(587,114,l),
(534,67,o),
(470,43,o),
(390,43,cs),
(222,43,o),
(120,160,o),
(120,334,cs),
(120,507,o),
(222,625,o),
(390,625,cs),
(470,625,o),
(534,600,o),
(587,553,c),
(615,599,l),
(555,650,o),
(482,678,o),
(390,678,cs),
(183,678,o),
(59,534,o),
(59,334,cs),
(59,147,o),
(166,12,o),
(346,-7,c),
(328,-49,l),
(328,-70,l),
(351,-70,ls),
(384,-70,o),
(400,-82,o),
(400,-107,cs),
(400,-132,o),
(384,-145,o),
(351,-145,cs),
(334,-145,o),
(308,-144,o),
(293,-141,c),
(293,-173,l),
(309,-178,o),
(336,-181,o),
(353,-181,cs)
);
}
);
};
layerId = "5AACEF06-708C-4913-83FC-D570AD12060A";
shapes = (
{
ref = C;
},
{
pos = (69,0);
ref = cedillacomb;
}
);
width = 668;
},
{
background = {
shapes = (
{
closed = 1;
nodes = (
(422,-202,o),
(465,-164,o),
(465,-112,cs),
(465,-67,o),
(430,-43,o),
(375,-43,c),
(389,-10,l),
(390,-10,l),
(478,-10,o),
(553,13,o),
(626,64,c),
(576,171,l),
(512,131,o),
(454,113,o),
(390,113,cs),
(265,113,o),
(181,202,o),
(181,334,cs),
(181,466,o),
(265,555,o),
(390,555,cs),
(454,555,o),
(512,537,o),
(576,497,c),
(626,604,l),
(553,655,o),
(478,678,o),
(390,678,cs),
(177,678,o),
(38,534,o),
(38,334,cs),
(38,154,o),
(149,18,o),
(329,-6,c),
(312,-43,l),
(312,-74,l),
(334,-74,ls),
(365,-74,o),
(381,-84,o),
(381,-104,cs),
(381,-125,o),
(365,-135,o),
(334,-135,cs),
(315,-135,o),
(285,-132,o),
(262,-127,c),
(262,-191,l),
(291,-199,o),
(323,-202,o),
(342,-202,cs)
);
}
);
};
layerId = "ED0E349C-8452-4A2C-86CF-88CCE81BCF85";
shapes = (
{
ref = C;
},
{
pos = (63,0);
ref = cedillacomb;
}
);
width = 658;
},
{
background = {
shapes = (
{
closed = 1;
nodes = (
(425,-208,o),
(471,-168,o),
(471,-112,cs),
(471,-65,o),
(434,-42,o),
(378,-42,c),
(392,-10,l),
(479,-9,o),
(553,11,o),
(629,62,c),
(572,188,l),
(505,151,o),
(450,135,o),
(390,135,cs),
(277,135,o),
(201,215,o),
(201,334,cs),
(201,453,o),
(277,533,o),
(390,533,cs),
(450,533,o),
(505,517,o),
(572,480,c),
(629,606,l),
(553,657,o),
(478,678,o),
(390,678,cs),
(173,678,o),
(32,534,o),
(32,334,cs),
(32,154,o),
(144,22,o),
(323,-5,c),
(307,-42,l),
(307,-76,l),
(329,-76,ls),
(360,-76,o),
(375,-85,o),
(375,-104,cs),
(375,-123,o),
(360,-132,o),
(329,-132,cs),
(310,-132,o),
(277,-128,o),
(252,-123,c),
(252,-196,l),
(285,-205,o),
(319,-208,o),
(338,-208,cs)
);
}
);
};
layerId = "19C37293-DF0C-4049-8F1C-5BECA685D590";
shapes = (
{
ref = C;
},
{
pos = (61,0);
ref = cedillacomb;
}
);
width = 655;
},
{
background = {
shapes = (
{
closed = 1;
nodes = (
(415,-188,o),
(451,-157,o),
(451,-112,cs),
(451,-71,o),
(419,-47,o),
(368,-47,c),
(384,-10,l),
(390,-10,ls),
(482,-10,o),
(555,16,o),
(619,67,c),
(583,134,l),
(527,90,o),
(465,66,o),
(390,66,cs),
(236,66,o),
(140,174,o),
(140,334,cs),
(140,494,o),
(236,602,o),
(390,602,cs),
(465,602,o),
(527,578,o),
(583,534,c),
(619,601,l),
(555,652,o),
(482,678,o),
(390,678,cs),
(181,678,o),
(52,534,o),
(52,334,cs),
(52,150,o),
(161,14,o),
(341,-7,c),
(323,-47,l),
(323,-71,l),
(346,-71,ls),
(377,-71,o),
(394,-83,o),
(394,-106,cs),
(394,-129,o),
(377,-142,o),
(346,-142,cs),
(327,-142,o),
(300,-140,o),
(283,-136,c),
(283,-179,l),
(303,-186,o),
(331,-188,o),
(350,-188,cs)
);
}
);
};
layerId = "80ECBAB3-F383-4124-9E35-EC531BFDEBDA";
shapes = (
{
ref = C;
},
{
pos = (67,0);
ref = cedillacomb;
}
);
width = 665;
},
{
background = {
shapes = (
{
closed = 1;
nodes = (
(418,-195,o),
(458,-161,o),
(458,-112,cs),
(458,-69,o),
(424,-45,o),
(372,-45,c),
(387,-10,l),
(390,-10,ls),
(481,-10,o),
(554,14,o),
(623,65,c),
(579,153,l),
(519,112,o),
(459,91,o),
(390,91,cs),
(251,91,o),
(162,189,o),
(162,334,cs),
(162,479,o),
(251,577,o),
(390,577,cs),
(459,577,o),
(519,556,o),
(579,515,c),
(623,603,l),
(554,654,o),
(481,678,o),
(390,678,cs),
(178,678,o),
(45,534,o),
(45,334,cs),
(45,153,o),
(155,15,o),
(335,-6,c),
(317,-45,l),
(317,-73,l),
(340,-73,ls),
(371,-73,o),
(387,-84,o),
(387,-105,cs),
(387,-127,o),
(371,-138,o),
(340,-138,cs),
(321,-138,o),
(292,-136,o),
(272,-131,c),
(272,-185,l),
(297,-192,o),
(327,-195,o),
(346,-195,cs)
);
}
);
};
layerId = "96D04FCA-9746-4118-8F04-D3655F0185C2";
shapes = (
{
ref = C;
},
{
pos = (66,0);
ref = cedillacomb;
}
);
width = 661;
},
{
background = {
shapes = (
{
closed = 1;
nodes = (
(409,-174,o),
(437,-151,o),
(437,-112,cs),
(437,-75,o),
(410,-50,o),
(361,-50,c),
(379,-9,l),
(383,-9,o),
(386,-10,o),
(390,-10,cs),
(485,-10,o),
(556,19,o),
(612,70,c),
(592,95,l),
(541,47,o),
(474,20,o),
(390,20,cs),
(208,20,o),
(100,147,o),
(100,334,cs),
(100,521,o),
(208,648,o),
(390,648,cs),
(474,648,o),
(541,621,o),
(592,573,c),
(612,598,l),
(556,649,o),
(485,678,o),
(390,678,cs),
(186,678,o),
(66,534,o),
(66,334,cs),
(66,145,o),
(171,8,o),
(352,-8,c),
(333,-51,l),
(333,-68,l),
(357,-68,ls),
(388,-68,o),
(407,-83,o),
(407,-108,cs),
(407,-133,o),
(388,-148,o),
(357,-148,cs),
(340,-148,o),
(315,-148,o),
(303,-145,c),
(303,-167,l),
(315,-171,o),
(340,-174,o),
(357,-174,cs)
);
}
);
};
layerId = "1750929F-40DF-47FF-8B11-7621AD6711F1";
shapes = (
{
ref = C;
},
{
pos = (70,0);
ref = cedillacomb;
}
);
width = 672;
}
);
unicode = 199;
},
{
color = 6;
glyphname = D;
kernRight = _D;
lastChange = "2022-05-20 09:19:55 +0000";
layers = (
{
anchors = (
{
name = bottom;
pos = (355,0);
},
{
name = center;
pos = (355,334);
},
{
name = top;
pos = (355,668);
}
);
background = {
shapes = (
{
closed = 1;
nodes = (
(310,0,ls),
(551,0,o),
(684,113,o),
(684,334,cs),
(684,555,o),
(551,668,o),
(310,668,cs),
(56,668,l),
(56,0,l)
);
},
{
closed = 1;
nodes = (
(246,510,l),
(310,510,ls),
(445,510,o),
(492,451,o),
(492,334,cs),
(492,217,o),
(445,158,o),
(310,158,cs),
(246,158,l)
);
}
);
};
layerId = "42F8977D-8264-44FF-8A66-A72BD7D3E619";
shapes = (
{
closed = 1;
nodes = (
(310,0,ls),
(551,0,o),
(684,113,o),
(684,334,cs),
(684,555,o),
(551,668,o),
(310,668,cs),
(56,668,l),
(56,0,l)
);
},
{
closed = 1;
nodes = (
(246,510,l),
(310,510,ls),
(445,510,o),
(492,451,o),
(492,334,cs),
(492,217,o),
(445,158,o),
(310,158,cs),
(246,158,l)
);
}
);
width = 710;
},
{
anchors = (
{
name = bottom;
pos = (355,0);
},
{
name = center;
pos = (355,334);
},
{
name = top;
pos = (355,668);
}
);
background = {
shapes = (
{
closed = 1;
nodes = (
(310,0,ls),
(533,0,o),
(651,113,o),
(651,334,cs),
(651,555,o),
(533,668,o),
(310,668,cs),
(89,668,l),
(89,0,l)
);
},
{
closed = 1;
nodes = (
(148,616,l),
(301,616,ls),
(501,616,o),
(590,523,o),
(590,334,cs),
(590,145,o),
(501,52,o),
(301,52,cs),
(148,52,l)
);
}
);
};
layerId = "5AACEF06-708C-4913-83FC-D570AD12060A";
shapes = (
{
closed = 1;
nodes = (
(310,0,ls),
(533,0,o),
(651,113,o),
(651,334,cs),
(651,555,o),
(533,668,o),
(310,668,cs),
(89,668,l),
(89,0,l)
);
},
{
closed = 1;
nodes = (
(148,616,l),
(301,616,ls),
(501,616,o),
(590,523,o),
(590,334,cs),
(590,145,o),
(501,52,o),
(301,52,cs),
(148,52,l)
);
}
);
width = 710;
},
{
anchors = (
{
name = bottom;
pos = (355,0);
},
{
name = center;
pos = (355,334);
},
{
name = top;
pos = (355,668);
}
);
background = {
shapes = (
{
closed = 1;
nodes = (
(310,0,ls),
(545,0,o),
(672,113,o),
(672,334,cs),
(672,555,o),
(545,668,o),
(310,668,cs),
(68,668,l),
(68,0,l)
);
},
{
closed = 1;
nodes = (
(209,549,l),
(307,549,ls),
(466,549,o),
(529,478,o),
(529,334,cs),
(529,190,o),
(466,119,o),
(307,119,cs),
(209,119,l)
);
}
);
};
layerId = "ED0E349C-8452-4A2C-86CF-88CCE81BCF85";
shapes = (
{
closed = 1;
nodes = (
(310,0,ls),
(545,0,o),
(672,113,o),
(672,334,cs),
(672,555,o),
(545,668,o),
(310,668,cs),
(68,668,l),
(68,0,l)
);
},
{
closed = 1;
nodes = (
(209,549,l),
(307,549,ls),
(466,549,o),
(529,478,o),
(529,334,cs),
(529,190,o),
(466,119,o),
(307,119,cs),
(209,119,l)
);
}
);
width = 710;
},
{
anchors = (
{
name = bottom;
pos = (355,0);
},
{
name = center;
pos = (355,334);
},
{
name = top;
pos = (355,668);
}
);
background = {
shapes = (
{
closed = 1;
nodes = (
(310,0,ls),
(549,0,o),
(678,113,o),
(678,334,cs),
(678,555,o),
(549,668,o),
(310,668,cs),
(62,668,l),
(62,0,l)
);
},
{
closed = 1;
nodes = (
(229,528,l),
(308,528,ls),
(455,528,o),
(509,463,o),
(509,334,cs),
(509,203,o),
(455,140,o),
(308,140,cs),
(229,140,l)
);
}
);
};
layerId = "19C37293-DF0C-4049-8F1C-5BECA685D590";
shapes = (
{
closed = 1;
nodes = (
(310,0,ls),
(549,0,o),
(678,113,o),
(678,334,cs),
(678,555,o),
(549,668,o),
(310,668,cs),
(62,668,l),
(62,0,l)
);
},
{
closed = 1;
nodes = (
(229,528,l),
(308,528,ls),
(455,528,o),
(509,463,o),
(509,334,cs),
(509,203,o),
(455,140,o),
(308,140,cs),
(229,140,l)
);
}
);
width = 710;
},
{
anchors = (
{
name = bottom;
pos = (355,0);
},
{
name = center;
pos = (355,334);
},
{
name = top;
pos = (355,668);
}
);
background = {
shapes = (
{
closed = 1;
nodes = (
(310,0,ls),
(537,0,o),
(658,113,o),
(658,334,cs),
(658,555,o),
(537,668,o),
(310,668,cs),
(82,668,l),
(82,0,l)
);
},
{
closed = 1;
nodes = (
(168,594,l),
(303,594,ls),
(491,594,o),
(570,509,o),
(570,334,cs),
(570,159,o),
(491,74,o),
(303,74,cs),
(168,74,l)
);
}
);
};
layerId = "80ECBAB3-F383-4124-9E35-EC531BFDEBDA";
shapes = (
{
closed = 1;
nodes = (
(310,0,ls),
(537,0,o),
(658,113,o),
(658,334,cs),
(658,555,o),
(537,668,o),
(310,668,cs),
(82,668,l),
(82,0,l)
);
},
{
closed = 1;
nodes = (
(168,594,l),
(303,594,ls),
(491,594,o),
(570,509,o),
(570,334,cs),
(570,159,o),
(491,74,o),
(303,74,cs),
(168,74,l)
);
}
);
width = 710;
},
{
anchors = (
{
name = bottom;
pos = (355,0);
},
{
name = center;
pos = (355,334);
},
{
name = top;
pos = (355,668);
}
);
background = {
shapes = (
{
closed = 1;
nodes = (
(310,0,ls),
(541,0,o),
(665,113,o),
(665,334,cs),
(665,555,o),
(541,668,o),
(310,668,cs),
(75,668,l),
(75,0,l)
);
},
{
closed = 1;
nodes = (
(190,570,l),
(305,570,ls),
(477,570,o),
(548,491,o),
(548,334,cs),
(548,175,o),
(477,98,o),
(305,98,cs),
(190,98,l)
);
}
);
};
layerId = "96D04FCA-9746-4118-8F04-D3655F0185C2";
shapes = (
{
closed = 1;
nodes = (
(310,0,ls),
(541,0,o),
(665,113,o),
(665,334,cs),
(665,555,o),
(541,668,o),
(310,668,cs),
(75,668,l),
(75,0,l)
);
},
{
closed = 1;
nodes = (
(190,570,l),
(305,570,ls),
(477,570,o),
(548,491,o),
(548,334,cs),
(548,175,o),
(477,98,o),
(305,98,cs),
(190,98,l)
);
}
);
width = 710;
},
{
anchors = (
{
name = bottom;
pos = (355,0);
},
{
name = center;
pos = (355,334);
},
{
name = top;
pos = (325,668);
}
);
background = {
shapes = (
{
closed = 1;
nodes = (
(310,0,ls),
(530,0,o),
(644,113,o),
(644,334,cs),
(644,555,o),
(530,668,o),
(310,668,cs),
(96,668,l),
(96,0,l)
);
},
{
closed = 1;
nodes = (
(128,638,l),
(300,638,ls),
(513,638,o),
(610,538,o),
(610,334,cs),
(610,130,o),
(513,30,o),
(300,30,cs),
(128,30,l)
);
}
);
};
layerId = "1750929F-40DF-47FF-8B11-7621AD6711F1";
shapes = (
{
closed = 1;
nodes = (
(310,0,ls),
(530,0,o),
(644,113,o),
(644,334,cs),
(644,555,o),
(530,668,o),
(310,668,cs),
(96,668,l),
(96,0,l)
);
},
{
closed = 1;
nodes = (
(128,638,l),
(300,638,ls),
(513,638,o),
(610,538,o),
(610,334,cs),
(610,130,o),
(513,30,o),
(300,30,cs),
(128,30,l)
);
}
);
width = 710;
}
);
unicode = 68;
},
{
color = 6;
glyphname = Eth;
kernRight = _D;
lastChange = "2022-05-20 09:19:55 +0000";
layers = (
{
background = {
shapes = (
{
closed = 1;
nodes = (
(310,0,ls),
(551,0,o),
(684,113,o),
(684,334,cs),
(684,555,o),
(551,668,o),
(310,668,cs),
(56,668,l),
(56,399,l),
(6,399,l),
(6,289,l),
(56,289,l),
(56,0,l)
);
},
{
closed = 1;
nodes = (
(246,289,l),
(352,289,l),
(352,399,l),
(246,399,l),
(246,510,l),
(310,510,ls),
(445,510,o),
(492,451,o),
(492,334,cs),
(492,217,o),
(445,158,o),
(310,158,cs),
(246,158,l)
);
}
);
};
layerId = "42F8977D-8264-44FF-8A66-A72BD7D3E619";
shapes = (
{
closed = 1;
nodes = (
(310,0,ls),
(551,0,o),
(684,113,o),
(684,334,cs),
(684,555,o),
(551,668,o),
(310,668,cs),
(56,668,l),
(56,399,l),
(6,399,l),
(6,289,l),
(56,289,l),
(56,0,l)
);
},
{
closed = 1;
nodes = (
(246,289,l),
(352,289,l),
(352,399,l),
(246,399,l),
(246,510,l),
(310,510,ls),
(445,510,o),
(492,451,o),
(492,334,cs),
(492,217,o),
(445,158,o),
(310,158,cs),
(246,158,l)
);
}
);
width = 710;
},
{
background = {
shapes = (
{
closed = 1;
nodes = (
(310,0,ls),
(533,0,o),
(651,113,o),
(651,334,cs),
(651,555,o),
(533,668,o),
(310,668,cs),
(89,668,l),
(89,366,l),
(9,366,l),
(9,322,l),
(89,322,l),
(89,0,l)
);
},
{
closed = 1;
nodes = (
(148,322,l),
(352,322,l),
(352,366,l),
(148,366,l),
(148,616,l),
(301,616,ls),
(501,616,o),
(590,523,o),
(590,334,cs),
(590,145,o),
(501,52,o),
(301,52,cs),
(148,52,l)
);
}
);
};
layerId = "5AACEF06-708C-4913-83FC-D570AD12060A";
shapes = (
{
closed = 1;
nodes = (
(310,0,ls),
(533,0,o),
(651,113,o),
(651,334,cs),
(651,555,o),
(533,668,o),
(310,668,cs),
(89,668,l),
(89,366,l),
(9,366,l),
(9,322,l),
(89,322,l),
(89,0,l)
);
},
{
closed = 1;
nodes = (
(148,322,l),
(352,322,l),
(352,366,l),
(148,366,l),
(148,616,l),
(301,616,ls),
(501,616,o),
(590,523,o),
(590,334,cs),
(590,145,o),
(501,52,o),
(301,52,cs),
(148,52,l)
);
}
);
width = 710;
},
{
background = {
shapes = (
{
closed = 1;
nodes = (
(310,0,ls),
(545,0,o),
(672,113,o),
(672,334,cs),
(672,555,o),
(545,668,o),
(310,668,cs),
(68,668,l),
(68,387,l),
(7,387,l),
(7,301,l),
(68,301,l),
(68,0,l)
);
},
{
closed = 1;
nodes = (
(209,301,l),
(352,301,l),
(352,387,l),
(209,387,l),
(209,549,l),
(307,549,ls),
(466,549,o),
(529,478,o),
(529,334,cs),
(529,190,o),
(466,119,o),
(307,119,cs),
(209,119,l)
);
}
);
};
layerId = "ED0E349C-8452-4A2C-86CF-88CCE81BCF85";
shapes = (
{
closed = 1;
nodes = (
(310,0,ls),
(545,0,o),
(672,113,o),
(672,334,cs),
(672,555,o),
(545,668,o),
(310,668,cs),
(68,668,l),
(68,387,l),
(7,387,l),
(7,301,l),
(68,301,l),
(68,0,l)
);
},
{
closed = 1;
nodes = (
(209,301,l),
(352,301,l),
(352,387,l),
(209,387,l),
(209,549,l),
(307,549,ls),
(466,549,o),
(529,478,o),
(529,334,cs),
(529,190,o),
(466,119,o),
(307,119,cs),
(209,119,l)
);
}
);
width = 710;
},
{
background = {
shapes = (
{
closed = 1;
nodes = (
(310,0,ls),
(549,0,o),
(678,113,o),
(678,334,cs),
(678,555,o),
(549,668,o),
(310,668,cs),
(62,668,l),
(62,393,l),
(7,393,l),
(7,295,l),
(62,295,l),
(62,0,l)
);
},
{
closed = 1;
nodes = (
(229,295,l),
(352,295,l),
(352,393,l),
(229,393,l),
(229,528,l),
(308,528,ls),
(455,528,o),
(509,463,o),
(509,334,cs),
(509,203,o),
(455,140,o),
(308,140,cs),
(229,140,l)
);
}
);
};
layerId = "19C37293-DF0C-4049-8F1C-5BECA685D590";
shapes = (
{
closed = 1;
nodes = (
(310,0,ls),
(549,0,o),
(678,113,o),
(678,334,cs),
(678,555,o),
(549,668,o),
(310,668,cs),
(62,668,l),
(62,393,l),
(7,393,l),
(7,295,l),
(62,295,l),
(62,0,l)
);
},
{
closed = 1;
nodes = (
(229,295,l),
(352,295,l),
(352,393,l),
(229,393,l),
(229,528,l),
(308,528,ls),
(455,528,o),
(509,463,o),
(509,334,cs),
(509,203,o),
(455,140,o),
(308,140,cs),
(229,140,l)
);
}
);
width = 710;
},
{
background = {
shapes = (
{
closed = 1;
nodes = (
(310,0,ls),
(537,0,o),
(658,113,o),
(658,334,cs),
(658,555,o),
(537,668,o),
(310,668,cs),
(82,668,l),
(82,373,l),
(9,373,l),
(9,315,l),
(82,315,l),
(82,0,l)
);
},
{
closed = 1;
nodes = (
(168,315,l),
(352,315,l),
(352,373,l),
(168,373,l),
(168,594,l),
(303,594,ls),
(491,594,o),
(570,509,o),
(570,334,cs),
(570,159,o),
(491,74,o),
(303,74,cs),
(168,74,l)
);
}
);
};
layerId = "80ECBAB3-F383-4124-9E35-EC531BFDEBDA";
shapes = (
{
closed = 1;
nodes = (
(310,0,ls),
(537,0,o),
(658,113,o),
(658,334,cs),
(658,555,o),
(537,668,o),
(310,668,cs),
(82,668,l),
(82,373,l),
(9,373,l),
(9,315,l),
(82,315,l),
(82,0,l)
);
},
{
closed = 1;
nodes = (
(168,315,l),
(352,315,l),
(352,373,l),
(168,373,l),
(168,594,l),
(303,594,ls),
(491,594,o),
(570,509,o),
(570,334,cs),
(570,159,o),
(491,74,o),
(303,74,cs),
(168,74,l)
);
}
);
width = 710;
},
{
background = {
shapes = (
{
closed = 1;
nodes = (
(310,0,ls),
(541,0,o),
(665,113,o),
(665,334,cs),
(665,555,o),
(541,668,o),
(310,668,cs),
(75,668,l),
(75,380,l),
(8,380,l),
(8,308,l),
(75,308,l),
(75,0,l)
);
},
{
closed = 1;
nodes = (
(190,308,l),
(352,308,l),
(352,380,l),
(190,380,l),
(190,570,l),
(305,570,ls),
(477,570,o),
(548,491,o),
(548,334,cs),
(548,175,o),
(477,98,o),
(305,98,cs),
(190,98,l)
);
}
);
};
layerId = "96D04FCA-9746-4118-8F04-D3655F0185C2";
shapes = (
{
closed = 1;
nodes = (
(310,0,ls),
(541,0,o),
(665,113,o),
(665,334,cs),
(665,555,o),
(541,668,o),
(310,668,cs),
(75,668,l),
(75,380,l),
(8,380,l),
(8,308,l),
(75,308,l),
(75,0,l)
);
},
{
closed = 1;
nodes = (
(190,308,l),
(352,308,l),
(352,380,l),
(190,380,l),
(190,570,l),
(305,570,ls),
(477,570,o),
(548,491,o),
(548,334,cs),
(548,175,o),
(477,98,o),
(305,98,cs),
(190,98,l)
);
}
);
width = 710;
},
{
background = {
shapes = (
{
closed = 1;
nodes = (
(310,0,ls),
(530,0,o),
(644,113,o),
(644,334,cs),
(644,555,o),
(530,668,o),
(310,668,cs),
(96,668,l),
(96,359,l),
(10,359,l),
(10,329,l),
(96,329,l),
(96,0,l)
);
},
{
closed = 1;
nodes = (
(128,329,l),
(352,329,l),
(352,359,l),
(128,359,l),
(128,638,l),
(300,638,ls),
(513,638,o),
(610,538,o),
(610,334,cs),
(610,130,o),
(513,30,o),
(300,30,cs),
(128,30,l)
);
}
);
};
layerId = "1750929F-40DF-47FF-8B11-7621AD6711F1";
shapes = (
{
closed = 1;
nodes = (
(310,0,ls),
(530,0,o),
(644,113,o),
(644,334,cs),
(644,555,o),
(530,668,o),
(310,668,cs),
(96,668,l),
(96,359,l),
(10,359,l),
(10,329,l),
(96,329,l),
(96,0,l)
);
},
{
closed = 1;
nodes = (
(128,329,l),
(352,329,l),
(352,359,l),
(128,359,l),
(128,638,l),
(300,638,ls),
(513,638,o),
(610,538,o),
(610,334,cs),
(610,130,o),
(513,30,o),
(300,30,cs),
(128,30,l)
);
}
);
width = 710;
}
);
unicode = 208;
},
{
color = 6;
glyphname = E;
lastChange = "2022-05-20 09:19:55 +0000";
layers = (
{
anchors = (
{
name = bottom;
pos = (303,0);
},
{
name = ogonek;
pos = (564,0);
},
{
name = top;
pos = (303,668);
},
{
name = topleft;
pos = (20,668);
}
);
background = {
shapes = (
{
closed = 1;
nodes = (
(564,0,l),
(564,158,l),
(246,158,l),
(246,271,l),
(534,271,l),
(534,417,l),
(246,417,l),
(246,510,l),
(564,510,l),
(564,668,l),
(56,668,l),
(56,0,l)
);
}
);
};
layerId = "42F8977D-8264-44FF-8A66-A72BD7D3E619";
shapes = (
{
closed = 1;
nodes = (
(564,0,l),
(564,158,l),
(246,158,l),
(246,271,l),
(534,271,l),
(534,417,l),
(246,417,l),
(246,510,l),
(564,510,l),
(564,668,l),
(56,668,l),
(56,0,l)
);
}
);
width = 606;
},
{
anchors = (
{
name = bottom;
pos = (295,0);
},
{
name = ogonek;
pos = (531,0);
},
{
name = top;
pos = (295,668);
},
{
name = topleft;
pos = (20,668);
}
);
background = {
shapes = (
{
closed = 1;
nodes = (
(531,0,l),
(531,52,l),
(148,52,l),
(148,318,l),
(501,318,l),
(501,369,l),
(148,369,l),
(148,616,l),
(531,616,l),
(531,668,l),
(89,668,l),
(89,0,l)
);
}
);
};
layerId = "5AACEF06-708C-4913-83FC-D570AD12060A";
shapes = (
{
closed = 1;
nodes = (
(531,0,l),
(531,52,l),
(148,52,l),
(148,318,l),
(501,318,l),
(501,369,l),
(148,369,l),
(148,616,l),
(531,616,l),
(531,668,l),
(89,668,l),
(89,0,l)
);
}
);
width = 589;
},
{
anchors = (
{
name = bottom;
pos = (300,0);
},
{
name = ogonek;
pos = (552,0);
},
{
name = top;
pos = (300,668);
},
{
name = topleft;
pos = (20,668);
}
);
background = {
shapes = (
{
closed = 1;
nodes = (
(552,0,l),
(552,119,l),
(209,119,l),
(209,288,l),
(522,288,l),
(522,400,l),
(209,400,l),
(209,549,l),
(552,549,l),
(552,668,l),
(68,668,l),
(68,0,l)
);
}
);
};
layerId = "ED0E349C-8452-4A2C-86CF-88CCE81BCF85";
shapes = (
{
closed = 1;
nodes = (
(552,0,l),
(552,119,l),
(209,119,l),
(209,288,l),
(522,288,l),
(522,400,l),
(209,400,l),
(209,549,l),
(552,549,l),
(552,668,l),
(68,668,l),
(68,0,l)
);
}
);
width = 600;
},
{
anchors = (
{
name = bottom;
pos = (302,0);
},
{
name = ogonek;
pos = (558,0);
},
{
name = top;
pos = (302,668);
},
{
name = topleft;
pos = (20,668);
}
);
background = {
shapes = (
{
closed = 1;
nodes = (
(558,0,l),
(558,140,l),
(229,140,l),
(229,279,l),
(528,279,l),
(528,409,l),
(229,409,l),
(229,528,l),
(558,528,l),
(558,668,l),
(62,668,l),
(62,0,l)
);
}
);
};
layerId = "19C37293-DF0C-4049-8F1C-5BECA685D590";
shapes = (
{
closed = 1;
nodes = (
(558,0,l),
(558,140,l),
(229,140,l),
(229,279,l),
(528,279,l),
(528,409,l),
(229,409,l),
(229,528,l),
(558,528,l),
(558,668,l),
(62,668,l),
(62,0,l)
);
}
);
width = 603;
},
{
anchors = (
{
name = bottom;
pos = (297,0);
},
{
name = ogonek;
pos = (538,0);
},
{
name = top;
pos = (297,668);
},
{
name = topleft;
pos = (20,668);
}
);
background = {
shapes = (
{
closed = 1;
nodes = (
(538,0,l),
(538,74,l),
(168,74,l),
(168,308,l),
(508,308,l),
(508,380,l),
(168,380,l),
(168,594,l),
(538,594,l),
(538,668,l),
(82,668,l),
(82,0,l)
);
}
);
};
layerId = "80ECBAB3-F383-4124-9E35-EC531BFDEBDA";
shapes = (
{
closed = 1;
nodes = (
(538,0,l),
(538,74,l),
(168,74,l),
(168,308,l),
(508,308,l),
(508,380,l),
(168,380,l),
(168,594,l),
(538,594,l),
(538,668,l),
(82,668,l),
(82,0,l)
);
}
);
width = 593;
},
{
anchors = (
{
name = bottom;
pos = (299,0);
},
{
name = ogonek;
pos = (545,0);
},
{
name = top;
pos = (299,668);
},
{
name = topleft;
pos = (20,668);
}
);
background = {
shapes = (
{
closed = 1;
nodes = (
(545,0,l),
(545,98,l),
(190,98,l),
(190,298,l),
(515,298,l),
(515,390,l),
(190,390,l),
(190,570,l),
(545,570,l),
(545,668,l),
(75,668,l),
(75,0,l)
);
}
);
};
layerId = "96D04FCA-9746-4118-8F04-D3655F0185C2";
shapes = (
{
closed = 1;
nodes = (
(545,0,l),
(545,98,l),
(190,98,l),
(190,298,l),
(515,298,l),
(515,390,l),
(190,390,l),
(190,570,l),
(545,570,l),
(545,668,l),
(75,668,l),
(75,0,l)
);
}
);
width = 597;
},
{
anchors = (
{
name = bottom;
pos = (293,0);
},
{
name = ogonek;
pos = (524,0);
},
{
name = top;
pos = (313,668);
},
{
name = topleft;
pos = (20,668);
}
);
background = {
shapes = (
{
closed = 1;
nodes = (
(524,0,l),
(524,30,l),
(128,30,l),
(128,329,l),
(494,329,l),
(494,359,l),
(128,359,l),
(128,638,l),
(524,638,l),
(524,668,l),
(96,668,l),
(96,0,l)
);
}
);
};
layerId = "1750929F-40DF-47FF-8B11-7621AD6711F1";
shapes = (
{
closed = 1;
nodes = (
(524,0,l),
(524,30,l),
(128,30,l),
(128,329,l),
(494,329,l),
(494,359,l),
(128,359,l),
(128,638,l),
(524,638,l),
(524,668,l),
(96,668,l),
(96,0,l)
);
}
);
width = 586;
}
);
unicode = 69;
},
{
color = 10;
glyphname = Eacute;
lastChange = "2022-05-20 09:34:44 +0000";
layers = (
{
background = {
shapes = (
{
closed = 1;
nodes = (
(564,0,l),
(564,158,l),
(246,158,l),
(246,271,l),
(534,271,l),
(534,417,l),
(246,417,l),
(246,510,l),
(564,510,l),
(564,668,l),
(56,668,l),
(56,0,l)
);
},
{
closed = 1;
nodes = (
(370,726,l),
(484,888,l),
(310,888,l),
(250,726,l)
);
}
);
};
layerId = "42F8977D-8264-44FF-8A66-A72BD7D3E619";
shapes = (
{
ref = E;
},
{
pos = (48,198);
ref = acutecomb;
}
);
width = 606;
},
{
background = {
shapes = (
{
closed = 1;
nodes = (
(531,0,l),
(531,52,l),
(148,52,l),
(148,318,l),
(501,318,l),
(501,369,l),
(148,369,l),
(148,616,l),
(531,616,l),
(531,668,l),
(89,668,l),
(89,0,l)
);
},
{
closed = 1;
nodes = (
(330,742,l),
(426,888,l),
(367,888,l),
(290,742,l)
);
}
);
};
layerId = "5AACEF06-708C-4913-83FC-D570AD12060A";
shapes = (
{
ref = E;
},
{
pos = (41,198);
ref = acutecomb;
}
);
width = 589;
},
{
background = {
shapes = (
{
closed = 1;
nodes = (
(552,0,l),
(552,119,l),
(209,119,l),
(209,288,l),
(522,288,l),
(522,400,l),
(209,400,l),
(209,549,l),
(552,549,l),
(552,668,l),
(68,668,l),
(68,0,l)
);
},
{
closed = 1;
nodes = (
(355,732,l),
(462,888,l),
(332,888,l),
(265,732,l)
);
}
);
};
layerId = "ED0E349C-8452-4A2C-86CF-88CCE81BCF85";
shapes = (
{
ref = E;
},
{
pos = (46,198);
ref = acutecomb;
}
);
width = 600;
},
{
background = {
shapes = (
{
closed = 1;
nodes = (
(558,0,l),
(558,140,l),
(229,140,l),
(229,279,l),
(528,279,l),
(528,409,l),
(229,409,l),
(229,528,l),
(558,528,l),
(558,668,l),
(62,668,l),
(62,0,l)
);
},
{
closed = 1;
nodes = (
(363,729,l),
(474,888,l),
(320,888,l),
(257,729,l)
);
}
);
};
layerId = "19C37293-DF0C-4049-8F1C-5BECA685D590";
shapes = (
{
ref = E;
},
{
pos = (45,198);
ref = acutecomb;
}
);
width = 603;
},
{
background = {
shapes = (
{
closed = 1;
nodes = (
(538,0,l),
(538,74,l),
(168,74,l),
(168,308,l),
(508,308,l),
(508,380,l),
(168,380,l),
(168,594,l),
(538,594,l),
(538,668,l),
(82,668,l),
(82,0,l)
);
},
{
closed = 1;
nodes = (
(338,739,l),
(438,888,l),
(356,888,l),
(282,739,l)
);
}
);
};
layerId = "80ECBAB3-F383-4124-9E35-EC531BFDEBDA";
shapes = (
{
ref = E;
},
{
pos = (42,198);
ref = acutecomb;
}
);
width = 593;
},
{
background = {
shapes = (
{
closed = 1;
nodes = (
(545,0,l),
(545,98,l),
(190,98,l),
(190,298,l),
(515,298,l),
(515,390,l),
(190,390,l),
(190,570,l),
(545,570,l),
(545,668,l),
(75,668,l),
(75,0,l)
);
},
{
closed = 1;
nodes = (
(347,735,l),
(451,888,l),
(343,888,l),
(273,735,l)
);
}
);
};
layerId = "96D04FCA-9746-4118-8F04-D3655F0185C2";
shapes = (
{
ref = E;
},
{
pos = (44,198);
ref = acutecomb;
}
);
width = 597;
},
{
background = {
shapes = (
{
closed = 1;
nodes = (
(524,0,l),
(524,30,l),
(128,30,l),
(128,329,l),
(494,329,l),
(494,359,l),
(128,359,l),
(128,638,l),
(524,638,l),
(524,668,l),
(96,668,l),
(96,0,l)
);
},
{
closed = 1;
nodes = (
(322,746,l),
(415,888,l),
(379,888,l),
(298,746,l)
);
}
);
};
layerId = "1750929F-40DF-47FF-8B11-7621AD6711F1";
shapes = (
{
ref = E;
},
{
pos = (58,198);
ref = acutecomb;
}
);
width = 586;
}
);
unicode = 201;
},
{
color = 10;
glyphname = Ecircumflex;
lastChange = "2022-05-20 09:19:55 +0000";
layers = (
{
background = {
shapes = (
{
closed = 1;
nodes = (
(564,0,l),
(564,158,l),
(246,158,l),
(246,271,l),
(534,271,l),
(534,417,l),
(246,417,l),
(246,510,l),
(564,510,l),
(564,668,l),
(56,668,l),
(56,0,l)
);
},
{
closed = 1;
nodes = (
(266,726,l),
(310,797,l),
(354,726,l),
(484,726,l),
(390,888,l),
(230,888,l),
(136,726,l)
);
}
);
};
layerId = "42F8977D-8264-44FF-8A66-A72BD7D3E619";
shapes = (
{
ref = E;
},
{
pos = (3,198);
ref = circumflexcomb;
}
);
width = 606;
},
{
background = {
shapes = (
{
closed = 1;
nodes = (
(531,0,l),
(531,52,l),
(148,52,l),
(148,318,l),
(501,318,l),
(501,369,l),
(148,369,l),
(148,616,l),
(531,616,l),
(531,668,l),
(89,668,l),
(89,0,l)
);
},
{
closed = 1;
nodes = (
(226,742,l),
(310,855,l),
(394,742,l),
(442,742,l),
(338,888,l),
(281,888,l),
(177,742,l)
);
}
);
};
layerId = "5AACEF06-708C-4913-83FC-D570AD12060A";
shapes = (
{
ref = E;
},
{
pos = (-5,198);
ref = circumflexcomb;
}
);
width = 589;
},
{
background = {
shapes = (
{
closed = 1;
nodes = (
(552,0,l),
(552,119,l),
(209,119,l),
(209,288,l),
(522,288,l),
(522,400,l),
(209,400,l),
(209,549,l),
(552,549,l),
(552,668,l),
(68,668,l),
(68,0,l)
);
},
{
closed = 1;
nodes = (
(251,732,l),
(310,819,l),
(369,732,l),
(468,732,l),
(371,888,l),
(249,888,l),
(152,732,l)
);
}
);
};
layerId = "ED0E349C-8452-4A2C-86CF-88CCE81BCF85";
shapes = (
{
ref = E;
},
{
pos = (0,198);
ref = circumflexcomb;
}
);
width = 600;
},
{
background = {
shapes = (
{
closed = 1;
nodes = (
(558,0,l),
(558,140,l),
(229,140,l),
(229,279,l),
(528,279,l),
(528,409,l),
(229,409,l),
(229,528,l),
(558,528,l),
(558,668,l),
(62,668,l),
(62,0,l)
);
},
{
closed = 1;
nodes = (
(259,729,l),
(310,807,l),
(361,729,l),
(477,729,l),
(381,888,l),
(239,888,l),
(143,729,l)
);
}
);
};
layerId = "19C37293-DF0C-4049-8F1C-5BECA685D590";
shapes = (
{
ref = E;
},
{
pos = (2,198);
ref = circumflexcomb;
}
);
width = 603;
},
{
background = {
shapes = (
{
closed = 1;
nodes = (
(538,0,l),
(538,74,l),
(168,74,l),
(168,308,l),
(508,308,l),
(508,380,l),
(168,380,l),
(168,594,l),
(538,594,l),
(538,668,l),
(82,668,l),
(82,0,l)
);
},
{
closed = 1;
nodes = (
(234,739,l),
(310,843,l),
(386,739,l),
(451,739,l),
(349,888,l),
(271,888,l),
(169,739,l)
);
}
);
};
layerId = "80ECBAB3-F383-4124-9E35-EC531BFDEBDA";
shapes = (
{
ref = E;
},
{
pos = (-3,198);
ref = circumflexcomb;
}
);
width = 593;
},
{
background = {
shapes = (
{
closed = 1;
nodes = (
(545,0,l),
(545,98,l),
(190,98,l),
(190,298,l),
(515,298,l),
(515,390,l),
(190,390,l),
(190,570,l),
(545,570,l),
(545,668,l),
(75,668,l),
(75,0,l)
);
},
{
closed = 1;
nodes = (
(243,735,l),
(310,830,l),
(377,735,l),
(460,735,l),
(360,888,l),
(260,888,l),
(160,735,l)
);
}
);
};
layerId = "96D04FCA-9746-4118-8F04-D3655F0185C2";
shapes = (
{
ref = E;
},
{
pos = (-1,198);
ref = circumflexcomb;
}
);
width = 597;
},
{
background = {
shapes = (
{
closed = 1;
nodes = (
(524,0,l),
(524,30,l),
(128,30,l),
(128,329,l),
(494,329,l),
(494,359,l),
(128,359,l),
(128,638,l),
(524,638,l),
(524,668,l),
(96,668,l),
(96,0,l)
);
},
{
closed = 1;
nodes = (
(218,746,l),
(310,867,l),
(402,746,l),
(434,746,l),
(328,888,l),
(292,888,l),
(186,746,l)
);
}
);
};
layerId = "1750929F-40DF-47FF-8B11-7621AD6711F1";
shapes = (
{
ref = E;
},
{
pos = (13,198);
ref = circumflexcomb;
}
);
width = 586;
}
);
unicode = 202;
},
{
color = 10;
glyphname = Edieresis;
lastChange = "2022-05-20 09:19:55 +0000";
layers = (
{
background = {
shapes = (
{
closed = 1;
nodes = (
(564,0,l),
(564,158,l),
(246,158,l),
(246,271,l),
(534,271,l),
(534,417,l),
(246,417,l),
(246,510,l),
(564,510,l),
(564,668,l),
(56,668,l),
(56,0,l)
);
},
{
closed = 1;
nodes = (
(256,728,o),
(288,762,o),
(288,807,cs),
(288,852,o),
(256,886,o),
(205,886,cs),
(154,886,o),
(122,852,o),
(122,807,cs),
(122,762,o),
(154,728,o),
(205,728,cs)
);
},
{
closed = 1;
nodes = (
(466,728,o),
(498,762,o),
(498,807,cs),
(498,852,o),
(466,886,o),
(415,886,cs),
(364,886,o),
(332,852,o),
(332,807,cs),
(332,762,o),
(364,728,o),
(415,728,cs)
);
}
);
};
layerId = "42F8977D-8264-44FF-8A66-A72BD7D3E619";
shapes = (
{
ref = E;
},
{
pos = (3,198);
ref = dieresiscomb;
}
);
width = 606;
},
{
background = {
shapes = (
{
closed = 1;
nodes = (
(531,0,l),
(531,52,l),
(148,52,l),
(148,318,l),
(501,318,l),
(501,369,l),
(148,369,l),
(148,616,l),
(531,616,l),
(531,668,l),
(89,668,l),
(89,0,l)
);
},
{
closed = 1;
nodes = (
(239,782,o),
(253,795,o),
(253,815,cs),
(253,835,o),
(239,848,o),
(218,848,cs),
(197,848,o),
(183,835,o),
(183,815,cs),
(183,795,o),
(197,782,o),
(218,782,cs)
);
},
{
closed = 1;
nodes = (
(422,782,o),
(436,795,o),
(436,815,cs),
(436,835,o),
(422,848,o),
(401,848,cs),
(380,848,o),
(366,835,o),
(366,815,cs),
(366,795,o),
(380,782,o),
(401,782,cs)
);
}
);
};
layerId = "5AACEF06-708C-4913-83FC-D570AD12060A";
shapes = (
{
ref = E;
},
{
pos = (-5,198);
ref = dieresiscomb;
}
);
width = 589;
},
{
background = {
shapes = (
{
closed = 1;
nodes = (
(552,0,l),
(552,119,l),
(209,119,l),
(209,288,l),
(522,288,l),
(522,400,l),
(209,400,l),
(209,549,l),
(552,549,l),
(552,668,l),
(68,668,l),
(68,0,l)
);
},
{
closed = 1;
nodes = (
(250,748,o),
(276,774,o),
(276,810,cs),
(276,846,o),
(250,872,o),
(210,872,cs),
(171,872,o),
(145,846,o),
(145,810,cs),
(145,774,o),
(171,748,o),
(210,748,cs)
);
},
{
closed = 1;
nodes = (
(449,748,o),
(475,774,o),
(475,810,cs),
(475,846,o),
(449,872,o),
(410,872,cs),
(370,872,o),
(344,846,o),
(344,810,cs),
(344,774,o),
(370,748,o),
(410,748,cs)
);
}
);
};
layerId = "ED0E349C-8452-4A2C-86CF-88CCE81BCF85";
shapes = (
{
ref = E;
},
{
pos = (0,198);
ref = dieresiscomb;
}
);
width = 600;
},
{
background = {
shapes = (
{
closed = 1;
nodes = (
(558,0,l),
(558,140,l),
(229,140,l),
(229,279,l),
(528,279,l),
(528,409,l),
(229,409,l),
(229,528,l),
(558,528,l),
(558,668,l),
(62,668,l),
(62,0,l)
);
},
{
closed = 1;
nodes = (
(254,737,o),
(282,768,o),
(282,809,cs),
(282,849,o),
(254,880,o),
(207,880,cs),
(162,880,o),
(133,849,o),
(133,809,cs),
(133,768,o),
(162,737,o),
(207,737,cs)
);
},
{
closed = 1;
nodes = (
(458,737,o),
(487,768,o),
(487,809,cs),
(487,849,o),
(458,880,o),
(413,880,cs),
(366,880,o),
(338,849,o),
(338,809,cs),
(338,768,o),
(366,737,o),
(413,737,cs)
);
}
);
};
layerId = "19C37293-DF0C-4049-8F1C-5BECA685D590";
shapes = (
{
ref = E;
},
{
pos = (2,198);
ref = dieresiscomb;
}
);
width = 603;
},
{
background = {
shapes = (
{
closed = 1;
nodes = (
(538,0,l),
(538,74,l),
(168,74,l),
(168,308,l),
(508,308,l),
(508,380,l),
(168,380,l),
(168,594,l),
(538,594,l),
(538,668,l),
(82,668,l),
(82,0,l)
);
},
{
closed = 1;
nodes = (
(244,770,o),
(262,787,o),
(262,814,cs),
(262,839,o),
(244,857,o),
(216,857,cs),
(188,857,o),
(170,839,o),
(170,814,cs),
(170,787,o),
(188,770,o),
(216,770,cs)
);
},
{
closed = 1;
nodes = (
(432,770,o),
(450,787,o),
(450,814,cs),
(450,839,o),
(432,857,o),
(404,857,cs),
(376,857,o),
(358,839,o),
(358,814,cs),
(358,787,o),
(376,770,o),
(404,770,cs)
);
}
);
};
layerId = "80ECBAB3-F383-4124-9E35-EC531BFDEBDA";
shapes = (
{
ref = E;
},
{
pos = (-3,198);
ref = dieresiscomb;
}
);
width = 593;
},
{
background = {
shapes = (
{
closed = 1;
nodes = (
(545,0,l),
(545,98,l),
(190,98,l),
(190,298,l),
(515,298,l),
(515,390,l),
(190,390,l),
(190,570,l),
(545,570,l),
(545,668,l),
(75,668,l),
(75,0,l)
);
},
{
closed = 1;
nodes = (
(248,758,o),
(269,781,o),
(269,812,cs),
(269,843,o),
(248,865,o),
(213,865,cs),
(178,865,o),
(157,843,o),
(157,812,cs),
(157,781,o),
(178,758,o),
(213,758,cs)
);
},
{
closed = 1;
nodes = (
(442,758,o),
(463,781,o),
(463,812,cs),
(463,843,o),
(442,865,o),
(407,865,cs),
(372,865,o),
(351,843,o),
(351,812,cs),
(351,781,o),
(372,758,o),
(407,758,cs)
);
}
);
};
layerId = "96D04FCA-9746-4118-8F04-D3655F0185C2";
shapes = (
{
ref = E;
},
{
pos = (-1,198);
ref = dieresiscomb;
}
);
width = 597;
},
{
background = {
shapes = (
{
closed = 1;
nodes = (
(524,0,l),
(524,30,l),
(128,30,l),
(128,329,l),
(494,329,l),
(494,359,l),
(128,359,l),
(128,638,l),
(524,638,l),
(524,668,l),
(96,668,l),
(96,0,l)
);
},
{
closed = 1;
nodes = (
(236,795,o),
(245,802,o),
(245,817,cs),
(245,832,o),
(236,839,o),
(221,839,cs),
(206,839,o),
(197,832,o),
(197,817,cs),
(197,802,o),
(206,795,o),
(221,795,cs)
);
},
{
closed = 1;
nodes = (
(414,795,o),
(423,802,o),
(423,817,cs),
(423,832,o),
(414,839,o),
(399,839,cs),
(384,839,o),
(375,832,o),
(375,817,cs),
(375,802,o),
(384,795,o),
(399,795,cs)
);
}
);
};
layerId = "1750929F-40DF-47FF-8B11-7621AD6711F1";
shapes = (
{
ref = E;
},
{
pos = (13,198);
ref = dieresiscomb;
}
);
width = 586;
}
);
unicode = 203;
},
{
color = 10;
glyphname = Egrave;
lastChange = "2022-05-20 09:35:09 +0000";
layers = (
{
background = {
shapes = (
{
closed = 1;
nodes = (
(564,0,l),
(564,158,l),
(246,158,l),
(246,271,l),
(534,271,l),
(534,417,l),
(246,417,l),
(246,510,l),
(564,510,l),
(564,668,l),
(56,668,l),
(56,0,l)
);
},
{
closed = 1;
nodes = (
(370,726,l),
(310,888,l),
(136,888,l),
(250,726,l)
);
}
);
};
layerId = "42F8977D-8264-44FF-8A66-A72BD7D3E619";
shapes = (
{
ref = E;
},
{
pos = (-33,198);
ref = gravecomb;
}
);
width = 606;
},
{
background = {
shapes = (
{
closed = 1;
nodes = (
(531,0,l),
(531,52,l),
(148,52,l),
(148,318,l),
(501,318,l),
(501,369,l),
(148,369,l),
(148,616,l),
(531,616,l),
(531,668,l),
(89,668,l),
(89,0,l)
);
},
{
closed = 1;
nodes = (
(330,742,l),
(252,888,l),
(193,888,l),
(290,742,l)
);
}
);
};
layerId = "5AACEF06-708C-4913-83FC-D570AD12060A";
shapes = (
{
ref = E;
},
{
pos = (-39,198);
ref = gravecomb;
}
);
width = 589;
},
{
background = {
shapes = (
{
closed = 1;
nodes = (
(552,0,l),
(552,119,l),
(209,119,l),
(209,288,l),
(522,288,l),
(522,400,l),
(209,400,l),
(209,549,l),
(552,549,l),
(552,668,l),
(68,668,l),
(68,0,l)
);
},
{
closed = 1;
nodes = (
(355,732,l),
(288,888,l),
(158,888,l),
(265,732,l)
);
}
);
};
layerId = "ED0E349C-8452-4A2C-86CF-88CCE81BCF85";
shapes = (
{
ref = E;
},
{
pos = (-34,198);
ref = gravecomb;
}
);
width = 600;
},
{
background = {
shapes = (
{
closed = 1;
nodes = (
(558,0,l),
(558,140,l),
(229,140,l),
(229,279,l),
(528,279,l),
(528,409,l),
(229,409,l),
(229,528,l),
(558,528,l),
(558,668,l),
(62,668,l),
(62,0,l)
);
},
{
closed = 1;
nodes = (
(363,729,l),
(300,888,l),
(146,888,l),
(257,729,l)
);
}
);
};
layerId = "19C37293-DF0C-4049-8F1C-5BECA685D590";
shapes = (
{
ref = E;
},
{
pos = (-34,198);
ref = gravecomb;
}
);
width = 603;
},
{
background = {
shapes = (
{
closed = 1;
nodes = (
(538,0,l),
(538,74,l),
(168,74,l),
(168,308,l),
(508,308,l),
(508,380,l),
(168,380,l),
(168,594,l),
(538,594,l),
(538,668,l),
(82,668,l),
(82,0,l)
);
},
{
closed = 1;
nodes = (
(338,739,l),
(264,888,l),
(182,888,l),
(282,739,l)
);
}
);
};
layerId = "80ECBAB3-F383-4124-9E35-EC531BFDEBDA";
shapes = (
{
ref = E;
},
{
pos = (-37,198);
ref = gravecomb;
}
);
width = 593;
},
{
background = {
shapes = (
{
closed = 1;
nodes = (
(545,0,l),
(545,98,l),
(190,98,l),
(190,298,l),
(515,298,l),
(515,390,l),
(190,390,l),
(190,570,l),
(545,570,l),
(545,668,l),
(75,668,l),
(75,0,l)
);
},
{
closed = 1;
nodes = (
(347,735,l),
(277,888,l),
(169,888,l),
(273,735,l)
);
}
);
};
layerId = "96D04FCA-9746-4118-8F04-D3655F0185C2";
shapes = (
{
ref = E;
},
{
pos = (-37,198);
ref = gravecomb;
}
);
width = 597;
},
{
background = {
shapes = (
{
closed = 1;
nodes = (
(524,0,l),
(524,30,l),
(128,30,l),
(128,329,l),
(494,329,l),
(494,359,l),
(128,359,l),
(128,638,l),
(524,638,l),
(524,668,l),
(96,668,l),
(96,0,l)
);
},
{
closed = 1;
nodes = (
(322,746,l),
(241,888,l),
(205,888,l),
(298,746,l)
);
}
);
};
layerId = "1750929F-40DF-47FF-8B11-7621AD6711F1";
shapes = (
{
ref = E;
},
{
pos = (-21,198);
ref = gravecomb;
}
);
width = 586;
}
);
unicode = 200;
},
{
color = 6;
glyphname = F;
lastChange = "2022-05-20 09:19:55 +0000";
layers = (
{
anchors = (
{
name = bottom;
pos = (298,0);
},
{
name = top;
pos = (298,668);
}
);
background = {
shapes = (
{
closed = 1;
nodes = (
(246,0,l),
(246,271,l),
(534,271,l),
(534,417,l),
(246,417,l),
(246,510,l),
(564,510,l),
(564,668,l),
(56,668,l),
(56,0,l)
);
}
);
};
layerId = "42F8977D-8264-44FF-8A66-A72BD7D3E619";
shapes = (
{
closed = 1;
nodes = (
(246,0,l),
(246,271,l),
(534,271,l),
(534,417,l),
(246,417,l),
(246,510,l),
(564,510,l),
(564,668,l),
(56,668,l),
(56,0,l)
);
}
);
width = 596;
},
{
anchors = (
{
name = bottom;
pos = (290,0);
},
{
name = top;
pos = (290,668);
}
);
background = {
shapes = (
{
closed = 1;
nodes = (
(148,0,l),
(148,318,l),
(501,318,l),
(501,369,l),
(148,369,l),
(148,616,l),
(531,616,l),
(531,668,l),
(89,668,l),
(89,0,l)
);
}
);
};
layerId = "5AACEF06-708C-4913-83FC-D570AD12060A";
shapes = (
{
closed = 1;
nodes = (
(148,0,l),
(148,318,l),
(501,318,l),
(501,369,l),
(148,369,l),
(148,616,l),
(531,616,l),
(531,668,l),
(89,668,l),
(89,0,l)
);
}
);
width = 579;
},
{
anchors = (
{
name = bottom;
pos = (295,0);
},
{
name = top;
pos = (295,668);
}
);
background = {
shapes = (
{
closed = 1;
nodes = (
(209,0,l),
(209,288,l),
(522,288,l),
(522,400,l),
(209,400,l),
(209,549,l),
(552,549,l),
(552,668,l),
(68,668,l),
(68,0,l)
);
}
);
};
layerId = "ED0E349C-8452-4A2C-86CF-88CCE81BCF85";
shapes = (
{
closed = 1;
nodes = (
(209,0,l),
(209,288,l),
(522,288,l),
(522,400,l),
(209,400,l),
(209,549,l),
(552,549,l),
(552,668,l),
(68,668,l),
(68,0,l)
);
}
);
width = 590;
},
{
anchors = (
{
name = bottom;
pos = (297,0);
},
{
name = top;
pos = (297,668);
}
);
background = {
shapes = (
{
closed = 1;
nodes = (
(229,0,l),
(229,279,l),
(528,279,l),
(528,409,l),
(229,409,l),
(229,528,l),
(558,528,l),
(558,668,l),
(62,668,l),
(62,0,l)
);
}
);
};
layerId = "19C37293-DF0C-4049-8F1C-5BECA685D590";
shapes = (
{
closed = 1;
nodes = (
(229,0,l),
(229,279,l),
(528,279,l),
(528,409,l),
(229,409,l),
(229,528,l),
(558,528,l),
(558,668,l),
(62,668,l),
(62,0,l)
);
}
);
width = 593;
},
{
anchors = (
{
name = bottom;
pos = (292,0);
},
{
name = top;
pos = (292,668);
}
);
background = {
shapes = (
{
closed = 1;
nodes = (
(168,0,l),
(168,308,l),
(508,308,l),
(508,380,l),
(168,380,l),
(168,594,l),
(538,594,l),
(538,668,l),
(82,668,l),
(82,0,l)
);
}
);
};
layerId = "80ECBAB3-F383-4124-9E35-EC531BFDEBDA";
shapes = (
{
closed = 1;
nodes = (
(168,0,l),
(168,308,l),
(508,308,l),
(508,380,l),
(168,380,l),
(168,594,l),
(538,594,l),
(538,668,l),
(82,668,l),
(82,0,l)
);
}
);
width = 583;
},
{
anchors = (
{
name = bottom;
pos = (294,0);
},
{
name = top;
pos = (294,668);
}
);
background = {
shapes = (
{
closed = 1;
nodes = (
(190,0,l),
(190,298,l),
(515,298,l),
(515,390,l),
(190,390,l),
(190,570,l),
(545,570,l),
(545,668,l),
(75,668,l),
(75,0,l)
);
}
);
};
layerId = "96D04FCA-9746-4118-8F04-D3655F0185C2";
shapes = (
{
closed = 1;
nodes = (
(190,0,l),
(190,298,l),
(515,298,l),
(515,390,l),
(190,390,l),
(190,570,l),
(545,570,l),
(545,668,l),
(75,668,l),
(75,0,l)
);
}
);
width = 587;
},
{
anchors = (
{
name = bottom;
pos = (288,0);
},
{
name = top;
pos = (288,668);
}
);
background = {
shapes = (
{
closed = 1;
nodes = (
(128,0,l),
(128,329,l),
(494,329,l),
(494,359,l),
(128,359,l),
(128,638,l),
(524,638,l),
(524,668,l),
(96,668,l),
(96,0,l)
);
}
);
};
layerId = "1750929F-40DF-47FF-8B11-7621AD6711F1";
shapes = (
{
closed = 1;
nodes = (
(128,0,l),
(128,329,l),
(494,329,l),
(494,359,l),
(128,359,l),
(128,638,l),
(524,638,l),
(524,668,l),
(96,668,l),
(96,0,l)
);
}
);
width = 576;
}
);
unicode = 70;
},
{
color = 6;
glyphname = G;
kernLeft = _C1;
kernRight = _G;
lastChange = "2022-05-20 09:19:55 +0000";
layers = (
{
anchors = (
{
name = bottom;
pos = (365,0);
},
{
name = top;
pos = (365,668);
}
);
background = {
shapes = (
{
closed = 1;
nodes = (
(526,-10,o),
(631,44,o),
(694,133,c),
(694,396,l),
(380,396,l),
(380,254,l),
(504,254,l),
(504,194,l),
(473,167,o),
(435,154,o),
(390,154,cs),
(289,154,o),
(218,226,o),
(218,334,cs),
(218,442,o),
(289,514,o),
(390,514,cs),
(446,514,o),
(510,500,o),
(579,465,c),
(642,607,l),
(562,658,o),
(477,678,o),
(390,678,cs),
(171,678,o),
(26,534,o),
(26,334,cs),
(26,134,o),
(170,-10,o),
(390,-10,cs)
);
}
);
};
layerId = "42F8977D-8264-44FF-8A66-A72BD7D3E619";
shapes = (
{
closed = 1;
nodes = (
(526,-10,o),
(631,44,o),
(694,133,c),
(694,396,l),
(380,396,l),
(380,254,l),
(504,254,l),
(504,194,l),
(473,167,o),
(435,154,o),
(390,154,cs),
(289,154,o),
(218,226,o),
(218,334,cs),
(218,442,o),
(289,514,o),
(390,514,cs),
(446,514,o),
(510,500,o),
(579,465,c),
(642,607,l),
(562,658,o),
(477,678,o),
(390,678,cs),
(171,678,o),
(26,534,o),
(26,334,cs),
(26,134,o),
(170,-10,o),
(390,-10,cs)
);
}
);
width = 730;
},
{
anchors = (
{
name = bottom;
pos = (365,0);
},
{
name = top;
pos = (365,668);
}
);
background = {
shapes = (
{
closed = 1;
nodes = (
(511,-10,o),
(604,38,o),
(661,121,c),
(661,351,l),
(380,351,l),
(380,298,l),
(602,298,l),
(602,141,l),
(555,78,o),
(485,43,o),
(390,43,cs),
(222,43,o),
(120,160,o),
(120,334,cs),
(120,507,o),
(222,625,o),
(390,625,cs),
(474,625,o),
(549,597,o),
(606,553,c),
(633,598,l),
(573,649,o),
(486,678,o),
(390,678,cs),
(183,678,o),
(59,534,o),
(59,334,cs),
(59,134,o),
(183,-10,o),
(390,-10,cs)
);
}
);
};
layerId = "5AACEF06-708C-4913-83FC-D570AD12060A";
shapes = (
{
closed = 1;
nodes = (
(511,-10,o),
(604,38,o),
(661,121,c),
(661,351,l),
(380,351,l),
(380,298,l),
(602,298,l),
(602,141,l),
(555,78,o),
(485,43,o),
(390,43,cs),
(222,43,o),
(120,160,o),
(120,334,cs),
(120,507,o),
(222,625,o),
(390,625,cs),
(474,625,o),
(549,597,o),
(606,553,c),
(633,598,l),
(573,649,o),
(486,678,o),
(390,678,cs),
(183,678,o),
(59,534,o),
(59,334,cs),
(59,134,o),
(183,-10,o),
(390,-10,cs)
);
}
);
width = 730;
},
{
anchors = (
{
name = bottom;
pos = (365,0);
},
{
name = top;
pos = (365,668);
}
);
background = {
shapes = (
{
closed = 1;
nodes = (
(521,-10,o),
(622,41,o),
(682,129,c),
(682,380,l),
(380,380,l),
(380,270,l),
(541,270,l),
(541,174,l),
(505,135,o),
(454,113,o),
(390,113,cs),
(265,113,o),
(181,202,o),
(181,334,cs),
(181,466,o),
(265,555,o),
(390,555,cs),
(457,555,o),
(525,536,o),
(589,497,c),
(639,604,l),
(566,655,o),
(481,678,o),
(390,678,cs),
(177,678,o),
(38,534,o),
(38,334,cs),
(38,134,o),
(175,-10,o),
(390,-10,cs)
);
}
);
};
layerId = "ED0E349C-8452-4A2C-86CF-88CCE81BCF85";
shapes = (
{
closed = 1;
nodes = (
(521,-10,o),
(622,41,o),
(682,129,c),
(682,380,l),
(380,380,l),
(380,270,l),
(541,270,l),
(541,174,l),
(505,135,o),
(454,113,o),
(390,113,cs),
(265,113,o),
(181,202,o),
(181,334,cs),
(181,466,o),
(265,555,o),
(390,555,cs),
(457,555,o),
(525,536,o),
(589,497,c),
(639,604,l),
(566,655,o),
(481,678,o),
(390,678,cs),
(177,678,o),
(38,534,o),
(38,334,cs),
(38,134,o),
(175,-10,o),
(390,-10,cs)
);
}
);
width = 730;
},
{
anchors = (
{
name = bottom;
pos = (365,0);
},
{
name = top;
pos = (365,668);
}
);
background = {
shapes = (
{
closed = 1;
nodes = (
(523,-10,o),
(627,43,o),
(688,131,c),
(688,389,l),
(380,389,l),
(380,261,l),
(521,261,l),
(521,185,l),
(488,152,o),
(444,135,o),
(390,135,cs),
(277,135,o),
(201,215,o),
(201,334,cs),
(201,453,o),
(277,533,o),
(390,533,cs),
(451,533,o),
(516,517,o),
(584,480,c),
(640,605,l),
(564,656,o),
(478,678,o),
(390,678,cs),
(173,678,o),
(32,534,o),
(32,334,cs),
(32,134,o),
(172,-10,o),
(390,-10,cs)
);
}
);
};
layerId = "19C37293-DF0C-4049-8F1C-5BECA685D590";
shapes = (
{
closed = 1;
nodes = (
(523,-10,o),
(627,43,o),
(688,131,c),
(688,389,l),
(380,389,l),
(380,261,l),
(521,261,l),
(521,185,l),
(488,152,o),
(444,135,o),
(390,135,cs),
(277,135,o),
(201,215,o),
(201,334,cs),
(201,453,o),
(277,533,o),
(390,533,cs),
(451,533,o),
(516,517,o),
(584,480,c),
(640,605,l),
(564,656,o),
(478,678,o),
(390,678,cs),
(173,678,o),
(32,534,o),
(32,334,cs),
(32,134,o),
(172,-10,o),
(390,-10,cs)
);
}
);
width = 730;
},
{
anchors = (
{
name = bottom;
pos = (365,0);
},
{
name = top;
pos = (365,668);
}
);
background = {
shapes = (
{
closed = 1;
nodes = (
(515,-10,o),
(609,40,o),
(668,124,c),
(668,363,l),
(380,363,l),
(380,287,l),
(582,287,l),
(582,152,l),
(539,96,o),
(474,66,o),
(390,66,cs),
(236,66,o),
(140,174,o),
(140,334,cs),
(140,494,o),
(236,602,o),
(390,602,cs),
(469,602,o),
(540,577,o),
(600,534,c),
(635,600,l),
(571,651,o),
(485,678,o),
(390,678,cs),
(181,678,o),
(52,534,o),
(52,334,cs),
(52,134,o),
(181,-10,o),
(390,-10,cs)
);
}
);
};
layerId = "80ECBAB3-F383-4124-9E35-EC531BFDEBDA";
shapes = (
{
closed = 1;
nodes = (
(515,-10,o),
(609,40,o),
(668,124,c),
(668,363,l),
(380,363,l),
(380,287,l),
(582,287,l),
(582,152,l),
(539,96,o),
(474,66,o),
(390,66,cs),
(236,66,o),
(140,174,o),
(140,334,cs),
(140,494,o),
(236,602,o),
(390,602,cs),
(469,602,o),
(540,577,o),
(600,534,c),
(635,600,l),
(571,651,o),
(485,678,o),
(390,678,cs),
(181,678,o),
(52,534,o),
(52,334,cs),
(52,134,o),
(181,-10,o),
(390,-10,cs)
);
}
);
width = 730;
},
{
anchors = (
{
name = bottom;
pos = (365,0);
},
{
name = top;
pos = (365,668);
}
);
background = {
shapes = (
{
closed = 1;
nodes = (
(518,-10,o),
(615,40,o),
(675,127,c),
(675,372,l),
(380,372,l),
(380,278,l),
(560,278,l),
(560,164,l),
(521,117,o),
(463,91,o),
(390,91,cs),
(251,91,o),
(162,189,o),
(162,334,cs),
(162,479,o),
(251,577,o),
(390,577,cs),
(462,577,o),
(531,555,o),
(594,515,c),
(637,602,l),
(568,653,o),
(482,678,o),
(390,678,cs),
(178,678,o),
(45,534,o),
(45,334,cs),
(45,134,o),
(178,-10,o),
(390,-10,cs)
);
}
);
};
layerId = "96D04FCA-9746-4118-8F04-D3655F0185C2";
shapes = (
{
closed = 1;
nodes = (
(518,-10,o),
(615,40,o),
(675,127,c),
(675,372,l),
(380,372,l),
(380,278,l),
(560,278,l),
(560,164,l),
(521,117,o),
(463,91,o),
(390,91,cs),
(251,91,o),
(162,189,o),
(162,334,cs),
(162,479,o),
(251,577,o),
(390,577,cs),
(462,577,o),
(531,555,o),
(594,515,c),
(637,602,l),
(568,653,o),
(482,678,o),
(390,678,cs),
(178,678,o),
(45,534,o),
(45,334,cs),
(45,134,o),
(178,-10,o),
(390,-10,cs)
);
}
);
width = 730;
},
{
anchors = (
{
name = bottom;
pos = (365,0);
},
{
name = top;
pos = (365,668);
}
);
background = {
shapes = (
{
closed = 1;
nodes = (
(509,-10,o),
(598,38,o),
(654,119,c),
(654,340,l),
(380,340,l),
(380,310,l),
(622,310,l),
(622,130,l),
(573,61,o),
(494,20,o),
(390,20,cs),
(208,20,o),
(100,147,o),
(100,334,cs),
(100,521,o),
(208,648,o),
(390,648,cs),
(481,648,o),
(557,619,o),
(612,572,c),
(632,597,l),
(576,646,o),
(489,678,o),
(390,678,cs),
(186,678,o),
(66,534,o),
(66,334,cs),
(66,134,o),
(186,-10,o),
(390,-10,cs)
);
}
);
};
layerId = "1750929F-40DF-47FF-8B11-7621AD6711F1";
shapes = (
{
closed = 1;
nodes = (
(509,-10,o),
(598,38,o),
(654,119,c),
(654,340,l),
(380,340,l),
(380,310,l),
(622,310,l),
(622,130,l),
(573,61,o),
(494,20,o),
(390,20,cs),
(208,20,o),
(100,147,o),
(100,334,cs),
(100,521,o),
(208,648,o),
(390,648,cs),
(481,648,o),
(557,619,o),
(612,572,c),
(632,597,l),
(576,646,o),
(489,678,o),
(390,678,cs),
(186,678,o),
(66,534,o),
(66,334,cs),
(66,134,o),
(186,-10,o),
(390,-10,cs)
);
}
);
width = 730;
}
);
unicode = 71;
},
{
color = 6;
glyphname = H;
lastChange = "2022-05-20 09:19:55 +0000";
layers = (
{
anchors = (
{
name = bottom;
pos = (360,0);
},
{
name = center;
pos = (360,334);
},
{
name = top;
pos = (360,668);
},
{
name = topleft;
pos = (20,668);
}
);
background = {
shapes = (
{
closed = 1;
nodes = (
(246,0,l),
(246,262,l),
(474,262,l),
(474,0,l),
(664,0,l),
(664,668,l),
(474,668,l),
(474,426,l),
(246,426,l),
(246,668,l),
(56,668,l),
(56,0,l)
);
}
);
};
layerId = "42F8977D-8264-44FF-8A66-A72BD7D3E619";
shapes = (
{
closed = 1;
nodes = (
(246,0,l),
(246,262,l),
(474,262,l),
(474,0,l),
(664,0,l),
(664,668,l),
(474,668,l),
(474,426,l),
(246,426,l),
(246,668,l),
(56,668,l),
(56,0,l)
);
}
);
width = 720;
},
{
anchors = (
{
name = bottom;
pos = (360,0);
},
{
name = center;
pos = (360,334);
},
{
name = top;
pos = (360,668);
},
{
name = topleft;
pos = (20,668);
}
);
background = {
shapes = (
{
closed = 1;
nodes = (
(148,0,l),
(148,317,l),
(572,317,l),
(572,0,l),
(631,0,l),
(631,668,l),
(572,668,l),
(572,370,l),
(148,370,l),
(148,668,l),
(89,668,l),
(89,0,l)
);
}
);
};
layerId = "5AACEF06-708C-4913-83FC-D570AD12060A";
shapes = (
{
closed = 1;
nodes = (
(148,0,l),
(148,317,l),
(572,317,l),
(572,0,l),
(631,0,l),
(631,668,l),
(572,668,l),
(572,370,l),
(148,370,l),
(148,668,l),
(89,668,l),
(89,0,l)
);
}
);
width = 720;
},
{
anchors = (
{
name = bottom;
pos = (360,0);
},
{
name = center;
pos = (360,334);
},
{
name = top;
pos = (360,668);
},
{
name = topleft;
pos = (20,668);
}
);
background = {
shapes = (
{
closed = 1;
nodes = (
(209,0,l),
(209,283,l),
(511,283,l),
(511,0,l),
(652,0,l),
(652,668,l),
(511,668,l),
(511,405,l),
(209,405,l),
(209,668,l),
(68,668,l),
(68,0,l)
);
}
);
};
layerId = "ED0E349C-8452-4A2C-86CF-88CCE81BCF85";
shapes = (
{
closed = 1;
nodes = (
(209,0,l),
(209,283,l),
(511,283,l),
(511,0,l),
(652,0,l),
(652,668,l),
(511,668,l),
(511,405,l),
(209,405,l),
(209,668,l),
(68,668,l),
(68,0,l)
);
}
);
width = 720;
},
{
anchors = (
{
name = bottom;
pos = (360,0);
},
{
name = center;
pos = (360,334);
},
{
name = top;
pos = (360,668);
},
{
name = topleft;
pos = (20,668);
}
);
background = {
shapes = (
{
closed = 1;
nodes = (
(229,0,l),
(229,272,l),
(491,272,l),
(491,0,l),
(658,0,l),
(658,668,l),
(491,668,l),
(491,416,l),
(229,416,l),
(229,668,l),
(62,668,l),
(62,0,l)
);
}
);
};
layerId = "19C37293-DF0C-4049-8F1C-5BECA685D590";
shapes = (
{
closed = 1;
nodes = (
(229,0,l),
(229,272,l),
(491,272,l),
(491,0,l),
(658,0,l),
(658,668,l),
(491,668,l),
(491,416,l),
(229,416,l),
(229,668,l),
(62,668,l),
(62,0,l)
);
}
);
width = 720;
},
{
anchors = (
{
name = bottom;
pos = (360,0);
},
{
name = center;
pos = (360,334);
},
{
name = top;
pos = (360,668);
},
{
name = topleft;
pos = (20,668);
}
);
background = {
shapes = (
{
closed = 1;
nodes = (
(168,0,l),
(168,306,l),
(552,306,l),
(552,0,l),
(638,0,l),
(638,668,l),
(552,668,l),
(552,382,l),
(168,382,l),
(168,668,l),
(82,668,l),
(82,0,l)
);
}
);
};
layerId = "80ECBAB3-F383-4124-9E35-EC531BFDEBDA";
shapes = (
{
closed = 1;
nodes = (
(168,0,l),
(168,306,l),
(552,306,l),
(552,0,l),
(638,0,l),
(638,668,l),
(552,668,l),
(552,382,l),
(168,382,l),
(168,668,l),
(82,668,l),
(82,0,l)
);
}
);
width = 720;
},
{
anchors = (
{
name = bottom;
pos = (360,0);
},
{
name = center;
pos = (360,334);
},
{
name = top;
pos = (360,668);
},
{
name = topleft;
pos = (20,668);
}
);
background = {
shapes = (
{
closed = 1;
nodes = (
(190,0,l),
(190,294,l),
(530,294,l),
(530,0,l),
(645,0,l),
(645,668,l),
(530,668,l),
(530,394,l),
(190,394,l),
(190,668,l),
(75,668,l),
(75,0,l)
);
}
);
};
layerId = "96D04FCA-9746-4118-8F04-D3655F0185C2";
shapes = (
{
closed = 1;
nodes = (
(190,0,l),
(190,294,l),
(530,294,l),
(530,0,l),
(645,0,l),
(645,668,l),
(530,668,l),
(530,394,l),
(190,394,l),
(190,668,l),
(75,668,l),
(75,0,l)
);
}
);
width = 720;
},
{
anchors = (
{
name = bottom;
pos = (360,0);
},
{
name = center;
pos = (360,334);
},
{
name = top;
pos = (360,668);
},
{
name = topleft;
pos = (20,668);
}
);
background = {
shapes = (
{
closed = 1;
nodes = (
(128,0,l),
(128,329,l),
(592,329,l),
(592,0,l),
(624,0,l),
(624,668,l),
(592,668,l),
(592,359,l),
(128,359,l),
(128,668,l),
(96,668,l),
(96,0,l)
);
}
);
};
layerId = "1750929F-40DF-47FF-8B11-7621AD6711F1";
shapes = (
{
closed = 1;
nodes = (
(128,0,l),
(128,329,l),
(592,329,l),
(592,0,l),
(624,0,l),
(624,668,l),
(592,668,l),
(592,359,l),
(128,359,l),
(128,668,l),
(96,668,l),
(96,0,l)
);
}
);
width = 720;
}
);
unicode = 72;
},
{
color = 6;
glyphname = Hbar;
lastChange = "2022-05-20 09:36:09 +0000";
layers = (
{
anchors = (
{
name = bottom;
pos = (360,0);
},
{
name = center;
pos = (360,334);
},
{
name = top;
pos = (360,668);
},
{
name = topleft;
pos = (20,668);
}
);
layerId = "1750929F-40DF-47FF-8B11-7621AD6711F1";
shapes = (
{
closed = 1;
nodes = (
(128,0,l),
(128,329,l),
(592,329,l),
(592,0,l),
(624,0,l),
(624,668,l),
(592,668,l),
(592,359,l),
(128,359,l),
(128,668,l),
(96,668,l),
(96,0,l)
);
},
{
closed = 1;
nodes = (
(692,499,l),
(692,529,l),
(28,529,l),
(28,499,l)
);
}
);
width = 720;
},
{
anchors = (
{
name = bottom;
pos = (360,0);
},
{
name = center;
pos = (360,334);
},
{
name = top;
pos = (360,668);
},
{
name = topleft;
pos = (20,668);
}
);
layerId = "5AACEF06-708C-4913-83FC-D570AD12060A";
shapes = (
{
closed = 1;
nodes = (
(148,0,l),
(148,317,l),
(572,317,l),
(572,0,l),
(631,0,l),
(631,668,l),
(572,668,l),
(572,370,l),
(148,370,l),
(148,668,l),
(89,668,l),
(89,0,l)
);
},
{
closed = 1;
nodes = (
(682,487,l),
(682,540,l),
(38,540,l),
(38,487,l)
);
}
);
width = 720;
},
{
anchors = (
{
name = bottom;
pos = (360,0);
},
{
name = center;
pos = (360,334);
},
{
name = top;
pos = (360,668);
},
{
name = topleft;
pos = (20,668);
}
);
layerId = "80ECBAB3-F383-4124-9E35-EC531BFDEBDA";
shapes = (
{
closed = 1;
nodes = (
(168,0,l),
(168,306,l),
(552,306,l),
(552,0,l),
(638,0,l),
(638,668,l),
(552,668,l),
(552,382,l),
(168,382,l),
(168,668,l),
(82,668,l),
(82,0,l)
);
},
{
closed = 1;
nodes = (
(692,486,l),
(692,562,l),
(28,562,l),
(28,486,l)
);
}
);
width = 720;
},
{
anchors = (
{
name = bottom;
pos = (1080,0);
},
{
name = center;
pos = (1080,334);
},
{
name = top;
pos = (1080,668);
},
{
name = topleft;
pos = (740,668);
}
);
layerId = "96D04FCA-9746-4118-8F04-D3655F0185C2";
shapes = (
{
closed = 1;
nodes = (
(190,0,l),
(190,294,l),
(530,294,l),
(530,0,l),
(645,0,l),
(645,668,l),
(530,668,l),
(530,394,l),
(190,394,l),
(190,668,l),
(75,668,l),
(75,0,l)
);
},
{
closed = 1;
nodes = (
(700,474,l),
(700,574,l),
(20,574,l),
(20,474,l)
);
}
);
width = 720;
},
{
anchors = (
{
name = bottom;
pos = (360,0);
},
{
name = center;
pos = (360,334);
},
{
name = top;
pos = (360,668);
},
{
name = topleft;
pos = (20,668);
}
);
layerId = "ED0E349C-8452-4A2C-86CF-88CCE81BCF85";
shapes = (
{
closed = 1;
nodes = (
(209,0,l),
(209,283,l),
(511,283,l),
(511,0,l),
(652,0,l),
(652,668,l),
(511,668,l),
(511,405,l),
(209,405,l),
(209,668,l),
(68,668,l),
(68,0,l)
);
},
{
closed = 1;
nodes = (
(711,473,l),
(711,595,l),
(9,595,l),
(9,473,l)
);
}
);
width = 720;
},
{
anchors = (
{
name = bottom;
pos = (360,0);
},
{
name = center;
pos = (360,334);
},
{
name = top;
pos = (360,668);
},
{
name = topleft;
pos = (20,668);
}
);
layerId = "19C37293-DF0C-4049-8F1C-5BECA685D590";
shapes = (
{
closed = 1;
nodes = (
(229,0,l),
(229,272,l),
(491,272,l),
(491,0,l),
(658,0,l),
(658,668,l),
(491,668,l),
(491,416,l),
(229,416,l),
(229,668,l),
(62,668,l),
(62,0,l)
);
},
{
closed = 1;
nodes = (
(721,472,l),
(721,616,l),
(-1,616,l),
(-1,472,l)
);
}
);
width = 720;
},
{
anchors = (
{
name = bottom;
pos = (360,0);
},
{
name = center;
pos = (360,334);
},
{
name = top;
pos = (360,668);
},
{
name = topleft;
pos = (20,668);
}
);
layerId = "42F8977D-8264-44FF-8A66-A72BD7D3E619";
shapes = (
{
closed = 1;
nodes = (
(246,0,l),
(246,262,l),
(474,262,l),
(474,0,l),
(664,0,l),
(664,668,l),
(474,668,l),
(474,426,l),
(246,426,l),
(246,668,l),
(56,668,l),
(56,0,l)
);
},
{
closed = 1;
nodes = (
(744,480,l),
(744,624,l),
(-24,624,l),
(-24,480,l)
);
}
);
width = 720;
}
);
unicode = 294;
},
{
color = 6;
glyphname = I;
lastChange = "2022-05-20 09:19:55 +0000";
layers = (
{
anchors = (
{
name = bottom;
pos = (151,0);
},
{
name = ogonek;
pos = (246,0);
},
{
name = top;
pos = (151,668);
},
{
name = topleft;
pos = (20,668);
}
);
background = {
shapes = (
{
closed = 1;
nodes = (
(246,0,l),
(246,668,l),
(56,668,l),
(56,0,l)
);
}
);
};
layerId = "42F8977D-8264-44FF-8A66-A72BD7D3E619";
shapes = (
{
closed = 1;
nodes = (
(246,0,l),
(246,668,l),
(56,668,l),
(56,0,l)
);
}
);
width = 302;
},
{
anchors = (
{
name = bottom;
pos = (119,0);
},
{
name = ogonek;
pos = (148,0);
},
{
name = top;
pos = (119,668);
},
{
name = topleft;
pos = (20,668);
}
);
background = {
shapes = (
{
closed = 1;
nodes = (
(148,0,l),
(148,668,l),
(89,668,l),
(89,0,l)
);
}
);
};
layerId = "5AACEF06-708C-4913-83FC-D570AD12060A";
shapes = (
{
closed = 1;
nodes = (
(148,0,l),
(148,668,l),
(89,668,l),
(89,0,l)
);
}
);
width = 237;
},
{
anchors = (
{
name = bottom;
pos = (139,0);
},
{
name = ogonek;
pos = (209,0);
},
{
name = top;
pos = (139,668);
},
{
name = topleft;
pos = (20,668);
}
);
background = {
shapes = (
{
closed = 1;
nodes = (
(209,0,l),
(209,668,l),
(68,668,l),
(68,0,l)
);
}
);
};
layerId = "ED0E349C-8452-4A2C-86CF-88CCE81BCF85";
shapes = (
{
closed = 1;
nodes = (
(209,0,l),
(209,668,l),
(68,668,l),
(68,0,l)
);
}
);
width = 278;
},
{
anchors = (
{
name = bottom;
pos = (146,0);
},
{
name = ogonek;
pos = (229,0);
},
{
name = top;
pos = (146,668);
},
{
name = topleft;
pos = (20,668);
}
);
background = {
shapes = (
{
closed = 1;
nodes = (
(229,0,l),
(229,668,l),
(62,668,l),
(62,0,l)
);
}
);
};
layerId = "19C37293-DF0C-4049-8F1C-5BECA685D590";
shapes = (
{
closed = 1;
nodes = (
(229,0,l),
(229,668,l),
(62,668,l),
(62,0,l)
);
}
);
width = 291;
},
{
anchors = (
{
name = bottom;
pos = (126,0);
},
{
name = ogonek;
pos = (168,0);
},
{
name = top;
pos = (126,668);
},
{
name = topleft;
pos = (20,668);
}
);
background = {
shapes = (
{
closed = 1;
nodes = (
(168,0,l),
(168,668,l),
(82,668,l),
(82,0,l)
);
}
);
};
layerId = "80ECBAB3-F383-4124-9E35-EC531BFDEBDA";
shapes = (
{
closed = 1;
nodes = (
(168,0,l),
(168,668,l),
(82,668,l),
(82,0,l)
);
}
);
width = 251;
},
{
anchors = (
{
name = bottom;
pos = (133,0);
},
{
name = ogonek;
pos = (190,0);
},
{
name = top;
pos = (133,668);
},
{
name = topleft;
pos = (20,668);
}
);
background = {
shapes = (
{
closed = 1;
nodes = (
(190,0,l),
(190,668,l),
(75,668,l),
(75,0,l)
);
}
);
};
layerId = "96D04FCA-9746-4118-8F04-D3655F0185C2";
shapes = (
{
closed = 1;
nodes = (
(190,0,l),
(190,668,l),
(75,668,l),
(75,0,l)
);
}
);
width = 265;
},
{
anchors = (
{
name = bottom;
pos = (112,0);
},
{
name = ogonek;
pos = (128,0);
},
{
name = top;
pos = (112,668);
},
{
name = topleft;
pos = (20,668);
}
);
background = {
shapes = (
{
closed = 1;
nodes = (
(128,0,l),
(128,668,l),
(96,668,l),
(96,0,l)
);
}
);
};
layerId = "1750929F-40DF-47FF-8B11-7621AD6711F1";
shapes = (
{
closed = 1;
nodes = (
(128,0,l),
(128,668,l),
(96,668,l),
(96,0,l)
);
}
);
width = 224;
}
);
unicode = 73;
},
{
color = 10;
glyphname = Iacute;
lastChange = "2022-05-20 09:34:44 +0000";
layers = (
{
background = {
shapes = (
{
closed = 1;
nodes = (
(246,0,l),
(246,668,l),
(56,668,l),
(56,0,l)
);
},
{
closed = 1;
nodes = (
(211,726,l),
(325,888,l),
(151,888,l),
(91,726,l)
);
}
);
};
layerId = "42F8977D-8264-44FF-8A66-A72BD7D3E619";
shapes = (
{
ref = I;
},
{
pos = (-104,198);
ref = acutecomb;
}
);
width = 302;
},
{
background = {
shapes = (
{
closed = 1;
nodes = (
(148,0,l),
(148,668,l),
(89,668,l),
(89,0,l)
);
},
{
closed = 1;
nodes = (
(139,742,l),
(235,888,l),
(176,888,l),
(98,742,l)
);
}
);
};
layerId = "5AACEF06-708C-4913-83FC-D570AD12060A";
shapes = (
{
ref = I;
},
{
pos = (-135,198);
ref = acutecomb;
}
);
width = 237;
},
{
background = {
shapes = (
{
closed = 1;
nodes = (
(209,0,l),
(209,668,l),
(68,668,l),
(68,0,l)
);
},
{
closed = 1;
nodes = (
(184,732,l),
(292,888,l),
(160,888,l),
(94,732,l)
);
}
);
};
layerId = "ED0E349C-8452-4A2C-86CF-88CCE81BCF85";
shapes = (
{
ref = I;
},
{
pos = (-115,198);
ref = acutecomb;
}
);
width = 278;
},
{
background = {
shapes = (
{
closed = 1;
nodes = (
(229,0,l),
(229,668,l),
(62,668,l),
(62,0,l)
);
},
{
closed = 1;
nodes = (
(198,729,l),
(309,888,l),
(155,888,l),
(92,729,l)
);
}
);
};
layerId = "19C37293-DF0C-4049-8F1C-5BECA685D590";
shapes = (
{
ref = I;
},
{
pos = (-111,198);
ref = acutecomb;
}
);
width = 291;
},
{
background = {
shapes = (
{
closed = 1;
nodes = (
(168,0,l),
(168,668,l),
(82,668,l),
(82,0,l)
);
},
{
closed = 1;
nodes = (
(154,739,l),
(254,888,l),
(171,888,l),
(97,739,l)
);
}
);
};
layerId = "80ECBAB3-F383-4124-9E35-EC531BFDEBDA";
shapes = (
{
ref = I;
},
{
pos = (-129,198);
ref = acutecomb;
}
);
width = 251;
},
{
background = {
shapes = (
{
closed = 1;
nodes = (
(190,0,l),
(190,668,l),
(75,668,l),
(75,0,l)
);
},
{
closed = 1;
nodes = (
(170,735,l),
(274,888,l),
(165,888,l),
(95,735,l)
);
}
);
};
layerId = "96D04FCA-9746-4118-8F04-D3655F0185C2";
shapes = (
{
ref = I;
},
{
pos = (-122,198);
ref = acutecomb;
}
);
width = 265;
},
{
background = {
shapes = (
{
closed = 1;
nodes = (
(128,0,l),
(128,668,l),
(96,668,l),
(96,0,l)
);
},
{
closed = 1;
nodes = (
(124,746,l),
(217,888,l),
(181,888,l),
(100,746,l)
);
}
);
};
layerId = "1750929F-40DF-47FF-8B11-7621AD6711F1";
shapes = (
{
ref = I;
},
{
pos = (-143,198);
ref = acutecomb;
}
);
width = 224;
}
);
unicode = 205;
},
{
color = 10;
glyphname = Icircumflex;
lastChange = "2022-05-20 09:19:55 +0000";
layers = (
{
background = {
shapes = (
{
closed = 1;
nodes = (
(246,0,l),
(246,668,l),
(56,668,l),
(56,0,l)
);
},
{
closed = 1;
nodes = (
(107,726,l),
(151,797,l),
(195,726,l),
(325,726,l),
(231,888,l),
(71,888,l),
(-23,726,l)
);
}
);
};
layerId = "42F8977D-8264-44FF-8A66-A72BD7D3E619";
shapes = (
{
ref = I;
},
{
pos = (-149,198);
ref = circumflexcomb;
}
);
width = 302;
},
{
background = {
shapes = (
{
closed = 1;
nodes = (
(148,0,l),
(148,668,l),
(89,668,l),
(89,0,l)
);
},
{
closed = 1;
nodes = (
(35,742,l),
(118,855,l),
(202,742,l),
(251,742,l),
(147,888,l),
(90,888,l),
(-14,742,l)
);
}
);
};
layerId = "5AACEF06-708C-4913-83FC-D570AD12060A";
shapes = (
{
ref = I;
},
{
pos = (-181,198);
ref = circumflexcomb;
}
);
width = 237;
},
{
background = {
shapes = (
{
closed = 1;
nodes = (
(209,0,l),
(209,668,l),
(68,668,l),
(68,0,l)
);
},
{
closed = 1;
nodes = (
(80,732,l),
(139,819,l),
(198,732,l),
(297,732,l),
(200,888,l),
(78,888,l),
(-20,732,l)
);
}
);
};
layerId = "ED0E349C-8452-4A2C-86CF-88CCE81BCF85";
shapes = (
{
ref = I;
},
{
pos = (-161,198);
ref = circumflexcomb;
}
);
width = 278;
},
{
background = {
shapes = (
{
closed = 1;
nodes = (
(229,0,l),
(229,668,l),
(62,668,l),
(62,0,l)
);
},
{
closed = 1;
nodes = (
(94,729,l),
(145,807,l),
(196,729,l),
(312,729,l),
(216,888,l),
(74,888,l),
(-21,729,l)
);
}
);
};
layerId = "19C37293-DF0C-4049-8F1C-5BECA685D590";
shapes = (
{
ref = I;
},
{
pos = (-154,198);
ref = circumflexcomb;
}
);
width = 291;
},
{
background = {
shapes = (
{
closed = 1;
nodes = (
(168,0,l),
(168,668,l),
(82,668,l),
(82,0,l)
);
},
{
closed = 1;
nodes = (
(50,739,l),
(125,843,l),
(201,739,l),
(266,739,l),
(164,888,l),
(86,888,l),
(-16,739,l)
);
}
);
};
layerId = "80ECBAB3-F383-4124-9E35-EC531BFDEBDA";
shapes = (
{
ref = I;
},
{
pos = (-174,198);
ref = circumflexcomb;
}
);
width = 251;
},
{
background = {
shapes = (
{
closed = 1;
nodes = (
(190,0,l),
(190,668,l),
(75,668,l),
(75,0,l)
);
},
{
closed = 1;
nodes = (
(66,735,l),
(132,830,l),
(199,735,l),
(283,735,l),
(183,888,l),
(82,888,l),
(-18,735,l)
);
}
);
};
layerId = "96D04FCA-9746-4118-8F04-D3655F0185C2";
shapes = (
{
ref = I;
},
{
pos = (-167,198);
ref = circumflexcomb;
}
);
width = 265;
},
{
background = {
shapes = (
{
closed = 1;
nodes = (
(20,746,l),
(112,867,l),
(204,746,l),
(236,746,l),
(130,888,l),
(94,888,l),
(-12,746,l)
);
},
{
closed = 1;
nodes = (
(128,0,l),
(128,668,l),
(96,668,l),
(96,0,l)
);
}
);
};
layerId = "1750929F-40DF-47FF-8B11-7621AD6711F1";
shapes = (
{
ref = I;
},
{
pos = (-188,198);
ref = circumflexcomb;
}
);
width = 224;
}
);
unicode = 206;
},
{
color = 10;
glyphname = Idieresis;
lastChange = "2022-05-20 09:19:55 +0000";
layers = (
{
background = {
shapes = (
{
closed = 1;
nodes = (
(246,0,l),
(246,668,l),
(56,668,l),
(56,0,l)
);
},
{
closed = 1;
nodes = (
(97,728,o),
(129,762,o),
(129,807,cs),
(129,852,o),
(97,886,o),
(46,886,cs),
(-5,886,o),
(-37,852,o),
(-37,807,cs),
(-37,762,o),
(-5,728,o),
(46,728,cs)
);
},
{
closed = 1;
nodes = (
(307,728,o),
(339,762,o),
(339,807,cs),
(339,852,o),
(307,886,o),
(256,886,cs),
(205,886,o),
(173,852,o),
(173,807,cs),
(173,762,o),
(205,728,o),
(256,728,cs)
);
}
);
};
layerId = "42F8977D-8264-44FF-8A66-A72BD7D3E619";
shapes = (
{
ref = I;
},
{
pos = (-149,198);
ref = dieresiscomb;
}
);
width = 302;
},
{
background = {
shapes = (
{
closed = 1;
nodes = (
(148,0,l),
(148,668,l),
(89,668,l),
(89,0,l)
);
},
{
closed = 1;
nodes = (
(48,782,o),
(62,795,o),
(62,815,cs),
(62,835,o),
(48,848,o),
(27,848,cs),
(6,848,o),
(-8,835,o),
(-8,815,cs),
(-8,795,o),
(6,782,o),
(27,782,cs)
);
},
{
closed = 1;
nodes = (
(231,782,o),
(245,795,o),
(245,815,cs),
(245,835,o),
(231,848,o),
(210,848,cs),
(189,848,o),
(175,835,o),
(175,815,cs),
(175,795,o),
(189,782,o),
(210,782,cs)
);
}
);
};
layerId = "5AACEF06-708C-4913-83FC-D570AD12060A";
shapes = (
{
ref = I;
},
{
pos = (-181,198);
ref = dieresiscomb;
}
);
width = 237;
},
{
background = {
shapes = (
{
closed = 1;
nodes = (
(209,0,l),
(209,668,l),
(68,668,l),
(68,0,l)
);
},
{
closed = 1;
nodes = (
(79,748,o),
(105,774,o),
(105,810,cs),
(105,846,o),
(79,872,o),
(39,872,cs),
(-1,872,o),
(-27,846,o),
(-27,810,cs),
(-27,774,o),
(-1,748,o),
(39,748,cs)
);
},
{
closed = 1;
nodes = (
(278,748,o),
(304,774,o),
(304,810,cs),
(304,846,o),
(278,872,o),
(239,872,cs),
(199,872,o),
(173,846,o),
(173,810,cs),
(173,774,o),
(199,748,o),
(239,748,cs)
);
}
);
};
layerId = "ED0E349C-8452-4A2C-86CF-88CCE81BCF85";
shapes = (
{
ref = I;
},
{
pos = (-161,198);
ref = dieresiscomb;
}
);
width = 278;
},
{
background = {
shapes = (
{
closed = 1;
nodes = (
(229,0,l),
(229,668,l),
(62,668,l),
(62,0,l)
);
},
{
closed = 1;
nodes = (
(88,737,o),
(118,768,o),
(118,809,cs),
(118,849,o),
(88,880,o),
(43,880,cs),
(-2,880,o),
(-32,849,o),
(-32,809,cs),
(-32,768,o),
(-2,737,o),
(43,737,cs)
);
},
{
closed = 1;
nodes = (
(293,737,o),
(323,768,o),
(323,809,cs),
(323,849,o),
(293,880,o),
(248,880,cs),
(203,880,o),
(173,849,o),
(173,809,cs),
(173,768,o),
(203,737,o),
(248,737,cs)
);
}
);
};
layerId = "19C37293-DF0C-4049-8F1C-5BECA685D590";
shapes = (
{
ref = I;
},
{
pos = (-154,198);
ref = dieresiscomb;
}
);
width = 291;
},
{
background = {
shapes = (
{
closed = 1;
nodes = (
(168,0,l),
(168,668,l),
(82,668,l),
(82,0,l)
);
},
{
closed = 1;
nodes = (
(59,770,o),
(77,787,o),
(77,814,cs),
(77,839,o),
(59,857,o),
(31,857,cs),
(3,857,o),
(-15,839,o),
(-15,814,cs),
(-15,787,o),
(3,770,o),
(31,770,cs)
);
},
{
closed = 1;
nodes = (
(247,770,o),
(265,787,o),
(265,814,cs),
(265,839,o),
(247,857,o),
(219,857,cs),
(191,857,o),
(173,839,o),
(173,814,cs),
(173,787,o),
(191,770,o),
(219,770,cs)
);
}
);
};
layerId = "80ECBAB3-F383-4124-9E35-EC531BFDEBDA";
shapes = (
{
ref = I;
},
{
pos = (-174,198);
ref = dieresiscomb;
}
);
width = 251;
},
{
background = {
shapes = (
{
closed = 1;
nodes = (
(190,0,l),
(190,668,l),
(75,668,l),
(75,0,l)
);
},
{
closed = 1;
nodes = (
(70,758,o),
(92,781,o),
(92,812,cs),
(92,843,o),
(70,865,o),
(35,865,cs),
(0,865,o),
(-21,843,o),
(-21,812,cs),
(-21,781,o),
(0,758,o),
(35,758,cs)
);
},
{
closed = 1;
nodes = (
(264,758,o),
(286,781,o),
(286,812,cs),
(286,843,o),
(264,865,o),
(229,865,cs),
(194,865,o),
(173,843,o),
(173,812,cs),
(173,781,o),
(194,758,o),
(229,758,cs)
);
}
);
};
layerId = "96D04FCA-9746-4118-8F04-D3655F0185C2";
shapes = (
{
ref = I;
},
{
pos = (-167,198);
ref = dieresiscomb;
}
);
width = 265;
},
{
background = {
shapes = (
{
closed = 1;
nodes = (
(128,0,l),
(128,668,l),
(96,668,l),
(96,0,l)
);
},
{
closed = 1;
nodes = (
(38,795,o),
(47,802,o),
(47,817,cs),
(47,832,o),
(38,839,o),
(23,839,cs),
(8,839,o),
(-1,832,o),
(-1,817,cs),
(-1,802,o),
(8,795,o),
(23,795,cs)
);
},
{
closed = 1;
nodes = (
(216,795,o),
(225,802,o),
(225,817,cs),
(225,832,o),
(216,839,o),
(201,839,cs),
(186,839,o),
(177,832,o),
(177,817,cs),
(177,802,o),
(186,795,o),
(201,795,cs)
);
}
);
};
layerId = "1750929F-40DF-47FF-8B11-7621AD6711F1";
shapes = (
{
ref = I;
},
{
pos = (-188,198);
ref = dieresiscomb;
}
);
width = 224;
}
);
unicode = 207;
},
{
color = 10;
glyphname = Igrave;
lastChange = "2022-05-20 09:35:09 +0000";
layers = (
{
background = {
shapes = (
{
closed = 1;
nodes = (
(246,0,l),
(246,668,l),
(56,668,l),
(56,0,l)
);
},
{
closed = 1;
nodes = (
(211,726,l),
(151,888,l),
(-23,888,l),
(91,726,l)
);
}
);
};
layerId = "42F8977D-8264-44FF-8A66-A72BD7D3E619";
shapes = (
{
ref = I;
},
{
pos = (-185,198);
ref = gravecomb;
}
);
width = 302;
},
{
background = {
shapes = (
{
closed = 1;
nodes = (
(148,0,l),
(148,668,l),
(89,668,l),
(89,0,l)
);
},
{
closed = 1;
nodes = (
(139,742,l),
(61,888,l),
(2,888,l),
(98,742,l)
);
}
);
};
layerId = "5AACEF06-708C-4913-83FC-D570AD12060A";
shapes = (
{
ref = I;
},
{
pos = (-215,198);
ref = gravecomb;
}
);
width = 237;
},
{
background = {
shapes = (
{
closed = 1;
nodes = (
(209,0,l),
(209,668,l),
(68,668,l),
(68,0,l)
);
},
{
closed = 1;
nodes = (
(184,732,l),
(118,888,l),
(-14,888,l),
(94,732,l)
);
}
);
};
layerId = "ED0E349C-8452-4A2C-86CF-88CCE81BCF85";
shapes = (
{
ref = I;
},
{
pos = (-195,198);
ref = gravecomb;
}
);
width = 278;
},
{
background = {
shapes = (
{
closed = 1;
nodes = (
(229,0,l),
(229,668,l),
(62,668,l),
(62,0,l)
);
},
{
closed = 1;
nodes = (
(198,729,l),
(135,888,l),
(-19,888,l),
(92,729,l)
);
}
);
};
layerId = "19C37293-DF0C-4049-8F1C-5BECA685D590";
shapes = (
{
ref = I;
},
{
pos = (-190,198);
ref = gravecomb;
}
);
width = 291;
},
{
background = {
shapes = (
{
closed = 1;
nodes = (
(168,0,l),
(168,668,l),
(82,668,l),
(82,0,l)
);
},
{
closed = 1;
nodes = (
(154,739,l),
(80,888,l),
(-3,888,l),
(97,739,l)
);
}
);
};
layerId = "80ECBAB3-F383-4124-9E35-EC531BFDEBDA";
shapes = (
{
ref = I;
},
{
pos = (-208,198);
ref = gravecomb;
}
);
width = 251;
},
{
background = {
shapes = (
{
closed = 1;
nodes = (
(190,0,l),
(190,668,l),
(75,668,l),
(75,0,l)
);
},
{
closed = 1;
nodes = (
(170,735,l),
(100,888,l),
(-9,888,l),
(95,735,l)
);
}
);
};
layerId = "96D04FCA-9746-4118-8F04-D3655F0185C2";
shapes = (
{
ref = I;
},
{
pos = (-203,198);
ref = gravecomb;
}
);
width = 265;
},
{
background = {
shapes = (
{
closed = 1;
nodes = (
(128,0,l),
(128,668,l),
(96,668,l),
(96,0,l)
);
},
{
closed = 1;
nodes = (
(124,746,l),
(43,888,l),
(7,888,l),
(100,746,l)
);
}
);
};
layerId = "1750929F-40DF-47FF-8B11-7621AD6711F1";
shapes = (
{
ref = I;
},
{
pos = (-222,198);
ref = gravecomb;
}
);
width = 224;
}
);
unicode = 204;
},
{
color = 6;
glyphname = J;
kernLeft = _J1;
kernRight = _J;
lastChange = "2022-05-20 09:19:55 +0000";
layers = (
{
anchors = (
{
name = bottom;
pos = (263,0);
},
{
name = top;
pos = (263,668);
}
);
background = {
shapes = (
{
closed = 1;
nodes = (
(390,-10,o),
(470,92,o),
(470,268,cs),
(470,668,l),
(280,668,l),
(280,258,ls),
(280,182,o),
(246,154,o),
(190,154,cs),
(155,154,o),
(111,171,o),
(76,192,c),
(16,57,l),
(79,10,o),
(131,-10,o),
(214,-10,cs)
);
}
);
};
layerId = "42F8977D-8264-44FF-8A66-A72BD7D3E619";
shapes = (
{
closed = 1;
nodes = (
(390,-10,o),
(470,92,o),
(470,268,cs),
(470,668,l),
(280,668,l),
(280,258,ls),
(280,182,o),
(246,154,o),
(190,154,cs),
(155,154,o),
(111,171,o),
(76,192,c),
(16,57,l),
(79,10,o),
(131,-10,o),
(214,-10,cs)
);
}
);
width = 526;
},
{
anchors = (
{
name = bottom;
pos = (263,0);
},
{
name = top;
pos = (263,668);
}
);
background = {
shapes = (
{
closed = 1;
nodes = (
(353,-10,o),
(437,67,o),
(437,218,cs),
(437,668,l),
(378,668,l),
(378,216,ls),
(378,104,o),
(321,43,o),
(225,43,cs),
(173,43,o),
(128,64,o),
(80,109,c),
(49,65,l),
(102,13,o),
(152,-10,o),
(225,-10,cs)
);
}
);
};
layerId = "5AACEF06-708C-4913-83FC-D570AD12060A";
shapes = (
{
closed = 1;
nodes = (
(353,-10,o),
(437,67,o),
(437,218,cs),
(437,668,l),
(378,668,l),
(378,216,ls),
(378,104,o),
(321,43,o),
(225,43,cs),
(173,43,o),
(128,64,o),
(80,109,c),
(49,65,l),
(102,13,o),
(152,-10,o),
(225,-10,cs)
);
}
);
width = 526;
},
{
anchors = (
{
name = bottom;
pos = (263,0);
},
{
name = top;
pos = (263,668);
}
);
background = {
shapes = (
{
closed = 1;
nodes = (
(377,-10,o),
(458,82,o),
(458,249,cs),
(458,668,l),
(317,668,l),
(317,242,ls),
(317,155,o),
(277,113,o),
(206,113,cs),
(165,113,o),
(120,132,o),
(80,161,c),
(28,60,l),
(87,11,o),
(139,-10,o),
(218,-10,cs)
);
}
);
};
layerId = "ED0E349C-8452-4A2C-86CF-88CCE81BCF85";
shapes = (
{
closed = 1;
nodes = (
(377,-10,o),
(458,82,o),
(458,249,cs),
(458,668,l),
(317,668,l),
(317,242,ls),
(317,155,o),
(277,113,o),
(206,113,cs),
(165,113,o),
(120,132,o),
(80,161,c),
(28,60,l),
(87,11,o),
(139,-10,o),
(218,-10,cs)
);
}
);
width = 526;
},
{
anchors = (
{
name = bottom;
pos = (263,0);
},
{
name = top;
pos = (263,668);
}
);
background = {
shapes = (
{
closed = 1;
nodes = (
(385,-10,o),
(464,87,o),
(464,259,cs),
(464,668,l),
(297,668,l),
(297,251,ls),
(297,170,o),
(260,135,o),
(197,135,cs),
(160,135,o),
(115,153,o),
(78,178,c),
(22,59,l),
(82,10,o),
(136,-10,o),
(216,-10,cs)
);
}
);
};
layerId = "19C37293-DF0C-4049-8F1C-5BECA685D590";
shapes = (
{
closed = 1;
nodes = (
(385,-10,o),
(464,87,o),
(464,259,cs),
(464,668,l),
(297,668,l),
(297,251,ls),
(297,170,o),
(260,135,o),
(197,135,cs),
(160,135,o),
(115,153,o),
(78,178,c),
(22,59,l),
(82,10,o),
(136,-10,o),
(216,-10,cs)
);
}
);
width = 526;
},
{
anchors = (
{
name = bottom;
pos = (263,0);
},
{
name = top;
pos = (263,668);
}
);
background = {
shapes = (
{
closed = 1;
nodes = (
(362,-10,o),
(444,71,o),
(444,228,cs),
(444,668,l),
(358,668,l),
(358,225,ls),
(358,126,o),
(311,66,o),
(223,66,cs),
(178,66,o),
(132,86,o),
(85,127,c),
(42,64,l),
(97,12,o),
(147,-10,o),
(223,-10,cs)
);
}
);
};
layerId = "80ECBAB3-F383-4124-9E35-EC531BFDEBDA";
shapes = (
{
closed = 1;
nodes = (
(362,-10,o),
(444,71,o),
(444,228,cs),
(444,668,l),
(358,668,l),
(358,225,ls),
(358,126,o),
(311,66,o),
(223,66,cs),
(178,66,o),
(132,86,o),
(85,127,c),
(42,64,l),
(97,12,o),
(147,-10,o),
(223,-10,cs)
);
}
);
width = 526;
},
{
anchors = (
{
name = bottom;
pos = (263,0);
},
{
name = top;
pos = (263,668);
}
);
background = {
shapes = (
{
closed = 1;
nodes = (
(369,-10,o),
(451,78,o),
(451,239,cs),
(451,668,l),
(336,668,l),
(336,234,ls),
(336,142,o),
(293,91,o),
(214,91,cs),
(170,91,o),
(125,110,o),
(82,145,c),
(35,62,l),
(91,11,o),
(144,-10,o),
(220,-10,cs)
);
}
);
};
layerId = "96D04FCA-9746-4118-8F04-D3655F0185C2";
shapes = (
{
closed = 1;
nodes = (
(369,-10,o),
(451,78,o),
(451,239,cs),
(451,668,l),
(336,668,l),
(336,234,ls),
(336,142,o),
(293,91,o),
(214,91,cs),
(170,91,o),
(125,110,o),
(82,145,c),
(35,62,l),
(91,11,o),
(144,-10,o),
(220,-10,cs)
);
}
);
width = 526;
},
{
anchors = (
{
name = bottom;
pos = (263,0);
},
{
name = top;
pos = (263,668);
}
);
background = {
shapes = (
{
closed = 1;
nodes = (
(345,-10,o),
(430,61,o),
(430,208,cs),
(430,668,l),
(398,668,l),
(398,208,ls),
(398,83,o),
(332,20,o),
(228,20,cs),
(169,20,o),
(127,41,o),
(76,92,c),
(56,67,l),
(108,14,o),
(156,-10,o),
(228,-10,cs)
);
}
);
};
layerId = "1750929F-40DF-47FF-8B11-7621AD6711F1";
shapes = (
{
closed = 1;
nodes = (
(345,-10,o),
(430,61,o),
(430,208,cs),
(430,668,l),
(398,668,l),
(398,208,ls),
(398,83,o),
(332,20,o),
(228,20,cs),
(169,20,o),
(127,41,o),
(76,92,c),
(56,67,l),
(108,14,o),
(156,-10,o),
(228,-10,cs)
);
}
);
width = 526;
}
);
unicode = 74;
},
{
color = 6;
glyphname = K;
kernRight = _K;
lastChange = "2022-05-20 09:19:55 +0000";
layers = (
{
anchors = (
{
name = bottom;
pos = (339,0);
},
{
name = top;
pos = (339,668);
}
);
background = {
shapes = (
{
closed = 1;
nodes = (
(246,0,l),
(246,163,l),
(309,239,l),
(454,0,l),
(676,0,l),
(427,380,l),
(666,668,l),
(444,668,l),
(246,418,l),
(246,668,l),
(56,668,l),
(56,0,l)
);
}
);
};
layerId = "42F8977D-8264-44FF-8A66-A72BD7D3E619";
shapes = (
{
closed = 1;
nodes = (
(246,0,l),
(246,163,l),
(309,239,l),
(454,0,l),
(676,0,l),
(427,380,l),
(666,668,l),
(444,668,l),
(246,418,l),
(246,668,l),
(56,668,l),
(56,0,l)
);
}
);
width = 678;
},
{
anchors = (
{
name = bottom;
pos = (310,0);
},
{
name = top;
pos = (310,668);
}
);
background = {
shapes = (
{
closed = 1;
nodes = (
(148,0,l),
(148,217,l),
(257,332,l),
(512,0,l),
(584,0,l),
(296,374,l),
(574,668,l),
(502,668,l),
(148,291,l),
(148,668,l),
(89,668,l),
(89,0,l)
);
}
);
};
layerId = "5AACEF06-708C-4913-83FC-D570AD12060A";
shapes = (
{
closed = 1;
nodes = (
(148,0,l),
(148,217,l),
(257,332,l),
(512,0,l),
(584,0,l),
(296,374,l),
(574,668,l),
(502,668,l),
(148,291,l),
(148,668,l),
(89,668,l),
(89,0,l)
);
}
);
width = 620;
},
{
anchors = (
{
name = bottom;
pos = (328,0);
},
{
name = top;
pos = (328,668);
}
);
background = {
shapes = (
{
closed = 1;
nodes = (
(209,0,l),
(209,182,l),
(290,275,l),
(475,0,l),
(642,0,l),
(379,377,l),
(632,668,l),
(465,668,l),
(209,366,l),
(209,668,l),
(68,668,l),
(68,0,l)
);
}
);
};
layerId = "ED0E349C-8452-4A2C-86CF-88CCE81BCF85";
shapes = (
{
closed = 1;
nodes = (
(209,0,l),
(209,182,l),
(290,275,l),
(475,0,l),
(642,0,l),
(379,377,l),
(632,668,l),
(465,668,l),
(209,366,l),
(209,668,l),
(68,668,l),
(68,0,l)
);
}
);
width = 656;
},
{
anchors = (
{
name = bottom;
pos = (334,0);
},
{
name = top;
pos = (334,668);
}
);
background = {
shapes = (
{
closed = 1;
nodes = (
(229,0,l),
(229,172,l),
(300,257,l),
(464,0,l),
(660,0,l),
(404,379,l),
(650,668,l),
(454,668,l),
(229,394,l),
(229,668,l),
(62,668,l),
(62,0,l)
);
}
);
};
layerId = "19C37293-DF0C-4049-8F1C-5BECA685D590";
shapes = (
{
closed = 1;
nodes = (
(229,0,l),
(229,172,l),
(300,257,l),
(464,0,l),
(660,0,l),
(404,379,l),
(650,668,l),
(454,668,l),
(229,394,l),
(229,668,l),
(62,668,l),
(62,0,l)
);
}
);
width = 668;
},
{
anchors = (
{
name = bottom;
pos = (316,0);
},
{
name = top;
pos = (316,668);
}
);
background = {
shapes = (
{
closed = 1;
nodes = (
(168,0,l),
(168,205,l),
(267,313,l),
(498,0,l),
(603,0,l),
(324,375,l),
(593,668,l),
(488,668,l),
(168,317,l),
(168,668,l),
(82,668,l),
(82,0,l)
);
}
);
};
layerId = "80ECBAB3-F383-4124-9E35-EC531BFDEBDA";
shapes = (
{
closed = 1;
nodes = (
(168,0,l),
(168,205,l),
(267,313,l),
(498,0,l),
(603,0,l),
(324,375,l),
(593,668,l),
(488,668,l),
(168,317,l),
(168,668,l),
(82,668,l),
(82,0,l)
);
}
);
width = 632;
},
{
anchors = (
{
name = bottom;
pos = (323,0);
},
{
name = top;
pos = (323,668);
}
);
background = {
shapes = (
{
closed = 1;
nodes = (
(190,0,l),
(190,194,l),
(279,294,l),
(486,0,l),
(623,0,l),
(352,376,l),
(613,668,l),
(476,668,l),
(190,343,l),
(190,668,l),
(75,668,l),
(75,0,l)
);
}
);
};
layerId = "96D04FCA-9746-4118-8F04-D3655F0185C2";
shapes = (
{
closed = 1;
nodes = (
(190,0,l),
(190,194,l),
(279,294,l),
(486,0,l),
(623,0,l),
(352,376,l),
(613,668,l),
(476,668,l),
(190,343,l),
(190,668,l),
(75,668,l),
(75,0,l)
);
}
);
width = 645;
},
{
anchors = (
{
name = bottom;
pos = (304,0);
},
{
name = top;
pos = (304,668);
}
);
background = {
shapes = (
{
closed = 1;
nodes = (
(128,0,l),
(128,228,l),
(247,351,l),
(526,0,l),
(566,0,l),
(269,373,l),
(556,668,l),
(516,668,l),
(128,268,l),
(128,668,l),
(96,668,l),
(96,0,l)
);
}
);
};
layerId = "1750929F-40DF-47FF-8B11-7621AD6711F1";
shapes = (
{
closed = 1;
nodes = (
(128,0,l),
(128,228,l),
(247,351,l),
(526,0,l),
(566,0,l),
(269,373,l),
(556,668,l),
(516,668,l),
(128,268,l),
(128,668,l),
(96,668,l),
(96,0,l)
);
}
);
width = 608;
}
);
unicode = 75;
},
{
color = 6;
glyphname = L;
kernRight = _L;
lastChange = "2022-05-20 09:24:31 +0000";
layers = (
{
anchors = (
{
name = bottom;
pos = (273,0);
},
{
name = center;
pos = (273,334);
},
{
name = top;
pos = (273,668);
},
{
name = topright;
pos = (287,751);
}
);
background = {
shapes = (
{
closed = 1;
nodes = (
(514,0,l),
(514,164,l),
(246,164,l),
(246,668,l),
(56,668,l),
(56,0,l)
);
}
);
};
layerId = "42F8977D-8264-44FF-8A66-A72BD7D3E619";
shapes = (
{
closed = 1;
nodes = (
(514,0,l),
(514,164,l),
(246,164,l),
(246,668,l),
(56,668,l),
(56,0,l)
);
}
);
width = 546;
},
{
anchors = (
{
name = bottom;
pos = (265,0);
},
{
name = center;
pos = (265,334);
},
{
name = top;
pos = (265,668);
},
{
name = topright;
pos = (299,751);
}
);
background = {
shapes = (
{
closed = 1;
nodes = (
(481,0,l),
(481,53,l),
(148,53,l),
(148,668,l),
(89,668,l),
(89,0,l)
);
}
);
};
layerId = "5AACEF06-708C-4913-83FC-D570AD12060A";
shapes = (
{
closed = 1;
nodes = (
(481,0,l),
(481,53,l),
(148,53,l),
(148,668,l),
(89,668,l),
(89,0,l)
);
}
);
width = 529;
},
{
anchors = (
{
name = bottom;
pos = (270,0);
},
{
name = center;
pos = (270,334);
},
{
name = top;
pos = (270,668);
},
{
name = topright;
pos = (290,751);
}
);
background = {
shapes = (
{
closed = 1;
nodes = (
(502,0,l),
(502,123,l),
(209,123,l),
(209,668,l),
(68,668,l),
(68,0,l)
);
}
);
};
layerId = "ED0E349C-8452-4A2C-86CF-88CCE81BCF85";
shapes = (
{
closed = 1;
nodes = (
(502,0,l),
(502,123,l),
(209,123,l),
(209,668,l),
(68,668,l),
(68,0,l)
);
}
);
width = 540;
},
{
anchors = (
{
name = bottom;
pos = (272,0);
},
{
name = center;
pos = (272,334);
},
{
name = top;
pos = (272,668);
},
{
name = topright;
pos = (293,750);
}
);
background = {
shapes = (
{
closed = 1;
nodes = (
(508,0,l),
(508,145,l),
(229,145,l),
(229,668,l),
(62,668,l),
(62,0,l)
);
}
);
};
layerId = "19C37293-DF0C-4049-8F1C-5BECA685D590";
shapes = (
{
closed = 1;
nodes = (
(508,0,l),
(508,145,l),
(229,145,l),
(229,668,l),
(62,668,l),
(62,0,l)
);
}
);
width = 543;
},
{
anchors = (
{
name = bottom;
pos = (267,0);
},
{
name = center;
pos = (267,334);
},
{
name = top;
pos = (267,668);
},
{
name = topright;
pos = (293,751);
}
);
background = {
shapes = (
{
closed = 1;
nodes = (
(488,0,l),
(488,76,l),
(168,76,l),
(168,668,l),
(82,668,l),
(82,0,l)
);
}
);
};
layerId = "80ECBAB3-F383-4124-9E35-EC531BFDEBDA";
shapes = (
{
closed = 1;
nodes = (
(488,0,l),
(488,76,l),
(168,76,l),
(168,668,l),
(82,668,l),
(82,0,l)
);
}
);
width = 533;
},
{
anchors = (
{
name = bottom;
pos = (269,0);
},
{
name = center;
pos = (269,334);
},
{
name = top;
pos = (269,668);
},
{
name = topright;
pos = (287,751);
}
);
background = {
shapes = (
{
closed = 1;
nodes = (
(495,0,l),
(495,101,l),
(190,101,l),
(190,668,l),
(75,668,l),
(75,0,l)
);
}
);
};
layerId = "96D04FCA-9746-4118-8F04-D3655F0185C2";
shapes = (
{
closed = 1;
nodes = (
(495,0,l),
(495,101,l),
(190,101,l),
(190,668,l),
(75,668,l),
(75,0,l)
);
}
);
width = 537;
},
{
anchors = (
{
name = bottom;
pos = (263,0);
},
{
name = center;
pos = (263,334);
},
{
name = top;
pos = (263,668);
},
{
name = topright;
pos = (306,752);
}
);
background = {
shapes = (
{
closed = 1;
nodes = (
(474,0,l),
(474,30,l),
(128,30,l),
(128,668,l),
(96,668,l),
(96,0,l)
);
}
);
};
layerId = "1750929F-40DF-47FF-8B11-7621AD6711F1";
shapes = (
{
closed = 1;
nodes = (
(474,0,l),
(474,30,l),
(128,30,l),
(128,668,l),
(96,668,l),
(96,0,l)
);
}
);
width = 526;
}
);
unicode = 76;
},
{
color = 6;
glyphname = Lslash;
kernRight = _L;
lastChange = "2022-05-20 09:19:55 +0000";
layers = (
{
background = {
shapes = (
{
closed = 1;
nodes = (
(514,0,l),
(514,164,l),
(246,164,l),
(246,323,l),
(406,385,l),
(406,485,l),
(246,423,l),
(246,668,l),
(56,668,l),
(56,349,l),
(6,330,l),
(6,230,l),
(56,249,l),
(56,0,l)
);
}
);
};
layerId = "42F8977D-8264-44FF-8A66-A72BD7D3E619";
shapes = (
{
closed = 1;
nodes = (
(514,0,l),
(514,164,l),
(246,164,l),
(246,323,l),
(406,385,l),
(406,485,l),
(246,423,l),
(246,668,l),
(56,668,l),
(56,349,l),
(6,330,l),
(6,230,l),
(56,249,l),
(56,0,l)
);
}
);
width = 546;
},
{
background = {
shapes = (
{
closed = 1;
nodes = (
(481,0,l),
(481,53,l),
(148,53,l),
(148,326,l),
(341,401,l),
(341,441,l),
(148,366,l),
(148,668,l),
(89,668,l),
(89,343,l),
(9,312,l),
(9,272,l),
(89,303,l),
(89,0,l)
);
}
);
};
layerId = "5AACEF06-708C-4913-83FC-D570AD12060A";
shapes = (
{
closed = 1;
nodes = (
(481,0,l),
(481,53,l),
(148,53,l),
(148,326,l),
(341,401,l),
(341,441,l),
(148,366,l),
(148,668,l),
(89,668,l),
(89,343,l),
(9,312,l),
(9,272,l),
(89,303,l),
(89,0,l)
);
}
);
width = 529;
},
{
background = {
shapes = (
{
closed = 1;
nodes = (
(502,0,l),
(502,123,l),
(209,123,l),
(209,324,l),
(382,391,l),
(382,469,l),
(209,402,l),
(209,668,l),
(68,668,l),
(68,347,l),
(7,323,l),
(7,246,l),
(68,269,l),
(68,0,l)
);
}
);
};
layerId = "ED0E349C-8452-4A2C-86CF-88CCE81BCF85";
shapes = (
{
closed = 1;
nodes = (
(502,0,l),
(502,123,l),
(209,123,l),
(209,324,l),
(382,391,l),
(382,469,l),
(209,402,l),
(209,668,l),
(68,668,l),
(68,347,l),
(7,323,l),
(7,246,l),
(68,269,l),
(68,0,l)
);
}
);
width = 540;
},
{
background = {
shapes = (
{
closed = 1;
nodes = (
(508,0,l),
(508,145,l),
(229,145,l),
(229,324,l),
(395,388,l),
(395,477,l),
(229,413,l),
(229,668,l),
(62,668,l),
(62,348,l),
(7,327,l),
(7,237,l),
(62,258,l),
(62,0,l)
);
}
);
};
layerId = "19C37293-DF0C-4049-8F1C-5BECA685D590";
shapes = (
{
closed = 1;
nodes = (
(508,0,l),
(508,145,l),
(229,145,l),
(229,324,l),
(395,388,l),
(395,477,l),
(229,413,l),
(229,668,l),
(62,668,l),
(62,348,l),
(7,327,l),
(7,237,l),
(62,258,l),
(62,0,l)
);
}
);
width = 543;
},
{
background = {
shapes = (
{
closed = 1;
nodes = (
(488,0,l),
(488,76,l),
(168,76,l),
(168,326,l),
(355,398,l),
(355,450,l),
(168,378,l),
(168,668,l),
(82,668,l),
(82,344,l),
(9,316,l),
(9,264,l),
(82,292,l),
(82,0,l)
);
}
);
};
layerId = "80ECBAB3-F383-4124-9E35-EC531BFDEBDA";
shapes = (
{
closed = 1;
nodes = (
(488,0,l),
(488,76,l),
(168,76,l),
(168,326,l),
(355,398,l),
(355,450,l),
(168,378,l),
(168,668,l),
(82,668,l),
(82,344,l),
(9,316,l),
(9,264,l),
(82,292,l),
(82,0,l)
);
}
);
width = 533;
},
{
background = {
shapes = (
{
closed = 1;
nodes = (
(495,0,l),
(495,101,l),
(190,101,l),
(190,325,l),
(369,394,l),
(369,460,l),
(190,391,l),
(190,668,l),
(75,668,l),
(75,345,l),
(8,320,l),
(8,254,l),
(75,280,l),
(75,0,l)
);
}
);
};
layerId = "96D04FCA-9746-4118-8F04-D3655F0185C2";
shapes = (
{
closed = 1;
nodes = (
(495,0,l),
(495,101,l),
(190,101,l),
(190,325,l),
(369,394,l),
(369,460,l),
(190,391,l),
(190,668,l),
(75,668,l),
(75,345,l),
(8,320,l),
(8,254,l),
(75,280,l),
(75,0,l)
);
}
);
width = 537;
},
{
background = {
shapes = (
{
closed = 1;
nodes = (
(474,0,l),
(474,30,l),
(128,30,l),
(128,327,l),
(328,404,l),
(328,432,l),
(128,355,l),
(128,668,l),
(96,668,l),
(96,342,l),
(10,309,l),
(10,281,l),
(96,314,l),
(96,0,l)
);
}
);
};
layerId = "1750929F-40DF-47FF-8B11-7621AD6711F1";
shapes = (
{
closed = 1;
nodes = (
(474,0,l),
(474,30,l),
(128,30,l),
(128,327,l),
(328,404,l),
(328,432,l),
(128,355,l),
(128,668,l),
(96,668,l),
(96,342,l),
(10,309,l),
(10,281,l),
(96,314,l),
(96,0,l)
);
}
);
width = 526;
}
);
unicode = 321;
},
{
color = 6;
glyphname = M;
lastChange = "2022-05-20 09:19:55 +0000";
layers = (
{
anchors = (
{
name = bottom;
pos = (458,0);
},
{
name = top;
pos = (458,668);
}
);
background = {
shapes = (
{
closed = 1;
nodes = (
(246,0,l),
(246,478,l),
(377,0,l),
(539,0,l),
(670,478,l),
(670,0,l),
(860,0,l),
(860,668,l),
(560,668,l),
(458,278,l),
(356,668,l),
(56,668,l),
(56,0,l)
);
}
);
};
layerId = "42F8977D-8264-44FF-8A66-A72BD7D3E619";
shapes = (
{
closed = 1;
nodes = (
(246,0,l),
(246,478,l),
(377,0,l),
(539,0,l),
(670,478,l),
(670,0,l),
(860,0,l),
(860,668,l),
(560,668,l),
(458,278,l),
(356,668,l),
(56,668,l),
(56,0,l)
);
}
);
width = 916;
},
{
anchors = (
{
name = bottom;
pos = (450,0);
},
{
name = top;
pos = (450,668);
}
);
background = {
shapes = (
{
closed = 1;
nodes = (
(148,0,l),
(148,606,l),
(422,0,l),
(476,0,l),
(751,608,l),
(751,0,l),
(810,0,l),
(810,668,l),
(718,668,l),
(449,70,l),
(181,668,l),
(89,668,l),
(89,0,l)
);
}
);
};
layerId = "5AACEF06-708C-4913-83FC-D570AD12060A";
shapes = (
{
closed = 1;
nodes = (
(148,0,l),
(148,606,l),
(422,0,l),
(476,0,l),
(751,608,l),
(751,0,l),
(810,0,l),
(810,668,l),
(718,668,l),
(449,70,l),
(181,668,l),
(89,668,l),
(89,0,l)
);
}
);
width = 899;
},
{
anchors = (
{
name = bottom;
pos = (455,0);
},
{
name = top;
pos = (455,668);
}
);
background = {
shapes = (
{
closed = 1;
nodes = (
(209,0,l),
(209,536,l),
(394,0,l),
(515,0,l),
(700,536,l),
(700,0,l),
(841,0,l),
(841,668,l),
(619,668,l),
(454,178,l),
(291,668,l),
(68,668,l),
(68,0,l)
);
}
);
};
layerId = "ED0E349C-8452-4A2C-86CF-88CCE81BCF85";
shapes = (
{
closed = 1;
nodes = (
(209,0,l),
(209,536,l),
(394,0,l),
(515,0,l),
(700,536,l),
(700,0,l),
(841,0,l),
(841,668,l),
(619,668,l),
(454,178,l),
(291,668,l),
(68,668,l),
(68,0,l)
);
}
);
width = 910;
},
{
anchors = (
{
name = bottom;
pos = (457,0);
},
{
name = top;
pos = (457,668);
}
);
background = {
shapes = (
{
closed = 1;
nodes = (
(229,0,l),
(229,509,l),
(385,0,l),
(528,0,l),
(684,509,l),
(684,0,l),
(851,0,l),
(851,668,l),
(587,668,l),
(456,226,l),
(325,668,l),
(62,668,l),
(62,0,l)
);
}
);
};
layerId = "19C37293-DF0C-4049-8F1C-5BECA685D590";
shapes = (
{
closed = 1;
nodes = (
(229,0,l),
(229,509,l),
(385,0,l),
(528,0,l),
(684,509,l),
(684,0,l),
(851,0,l),
(851,668,l),
(587,668,l),
(456,226,l),
(325,668,l),
(62,668,l),
(62,0,l)
);
}
);
width = 913;
},
{
anchors = (
{
name = bottom;
pos = (452,0);
},
{
name = top;
pos = (452,668);
}
);
background = {
shapes = (
{
closed = 1;
nodes = (
(168,0,l),
(168,580,l),
(413,0,l),
(489,0,l),
(734,580,l),
(734,0,l),
(820,0,l),
(820,668,l),
(685,668,l),
(451,106,l),
(217,668,l),
(82,668,l),
(82,0,l)
);
}
);
};
layerId = "80ECBAB3-F383-4124-9E35-EC531BFDEBDA";
shapes = (
{
closed = 1;
nodes = (
(168,0,l),
(168,580,l),
(413,0,l),
(489,0,l),
(734,580,l),
(734,0,l),
(820,0,l),
(820,668,l),
(685,668,l),
(451,106,l),
(217,668,l),
(82,668,l),
(82,0,l)
);
}
);
width = 903;
},
{
anchors = (
{
name = bottom;
pos = (454,0);
},
{
name = top;
pos = (454,668);
}
);
background = {
shapes = (
{
closed = 1;
nodes = (
(190,0,l),
(190,558,l),
(403,0,l),
(503,0,l),
(716,558,l),
(716,0,l),
(831,0,l),
(831,668,l),
(650,668,l),
(453,141,l),
(256,668,l),
(75,668,l),
(75,0,l)
);
}
);
};
layerId = "96D04FCA-9746-4118-8F04-D3655F0185C2";
shapes = (
{
closed = 1;
nodes = (
(190,0,l),
(190,558,l),
(403,0,l),
(503,0,l),
(716,558,l),
(716,0,l),
(831,0,l),
(831,668,l),
(650,668,l),
(453,141,l),
(256,668,l),
(75,668,l),
(75,0,l)
);
}
);
width = 907;
},
{
anchors = (
{
name = bottom;
pos = (448,0);
},
{
name = top;
pos = (448,668);
}
);
background = {
shapes = (
{
closed = 1;
nodes = (
(128,0,l),
(128,632,l),
(432,0,l),
(464,0,l),
(768,632,l),
(768,0,l),
(800,0,l),
(800,668,l),
(751,668,l),
(448,39,l),
(145,668,l),
(96,668,l),
(96,0,l)
);
}
);
};
layerId = "1750929F-40DF-47FF-8B11-7621AD6711F1";
shapes = (
{
closed = 1;
nodes = (
(128,0,l),
(128,632,l),
(432,0,l),
(464,0,l),
(768,632,l),
(768,0,l),
(800,0,l),
(800,668,l),
(751,668,l),
(448,39,l),
(145,668,l),
(96,668,l),
(96,0,l)
);
}
);
width = 896;
}
);
unicode = 77;
},
{
color = 6;
glyphname = N;
lastChange = "2022-05-20 09:19:55 +0000";
layers = (
{
anchors = (
{
name = bottom;
pos = (360,0);
},
{
name = top;
pos = (360,668);
}
);
background = {
shapes = (
{
closed = 1;
nodes = (
(246,0,l),
(246,378,l),
(464,0,l),
(664,0,l),
(664,668,l),
(474,668,l),
(474,290,l),
(256,668,l),
(56,668,l),
(56,0,l)
);
}
);
};
layerId = "42F8977D-8264-44FF-8A66-A72BD7D3E619";
shapes = (
{
closed = 1;
nodes = (
(246,0,l),
(246,378,l),
(464,0,l),
(664,0,l),
(664,668,l),
(474,668,l),
(474,290,l),
(256,668,l),
(56,668,l),
(56,0,l)
);
}
);
width = 720;
},
{
anchors = (
{
name = bottom;
pos = (360,0);
},
{
name = top;
pos = (360,668);
}
);
background = {
shapes = (
{
closed = 1;
nodes = (
(148,0,l),
(148,589,l),
(562,0,l),
(631,0,l),
(631,668,l),
(572,668,l),
(572,79,l),
(158,668,l),
(89,668,l),
(89,0,l)
);
}
);
};
layerId = "5AACEF06-708C-4913-83FC-D570AD12060A";
shapes = (
{
closed = 1;
nodes = (
(148,0,l),
(148,589,l),
(562,0,l),
(631,0,l),
(631,668,l),
(572,668,l),
(572,79,l),
(158,668,l),
(89,668,l),
(89,0,l)
);
}
);
width = 720;
},
{
anchors = (
{
name = bottom;
pos = (360,0);
},
{
name = top;
pos = (360,668);
}
);
background = {
shapes = (
{
closed = 1;
nodes = (
(209,0,l),
(209,457,l),
(501,0,l),
(652,0,l),
(652,668,l),
(511,668,l),
(511,211,l),
(219,668,l),
(68,668,l),
(68,0,l)
);
}
);
};
layerId = "ED0E349C-8452-4A2C-86CF-88CCE81BCF85";
shapes = (
{
closed = 1;
nodes = (
(209,0,l),
(209,457,l),
(501,0,l),
(652,0,l),
(652,668,l),
(511,668,l),
(511,211,l),
(219,668,l),
(68,668,l),
(68,0,l)
);
}
);
width = 720;
},
{
anchors = (
{
name = bottom;
pos = (360,0);
},
{
name = top;
pos = (360,668);
}
);
background = {
shapes = (
{
closed = 1;
nodes = (
(229,0,l),
(229,415,l),
(481,0,l),
(658,0,l),
(658,668,l),
(491,668,l),
(491,253,l),
(239,668,l),
(62,668,l),
(62,0,l)
);
}
);
};
layerId = "19C37293-DF0C-4049-8F1C-5BECA685D590";
shapes = (
{
closed = 1;
nodes = (
(229,0,l),
(229,415,l),
(481,0,l),
(658,0,l),
(658,668,l),
(491,668,l),
(491,253,l),
(239,668,l),
(62,668,l),
(62,0,l)
);
}
);
width = 720;
},
{
anchors = (
{
name = bottom;
pos = (360,0);
},
{
name = top;
pos = (360,668);
}
);
background = {
shapes = (
{
closed = 1;
nodes = (
(168,0,l),
(168,546,l),
(542,0,l),
(638,0,l),
(638,668,l),
(552,668,l),
(552,122,l),
(178,668,l),
(82,668,l),
(82,0,l)
);
}
);
};
layerId = "80ECBAB3-F383-4124-9E35-EC531BFDEBDA";
shapes = (
{
closed = 1;
nodes = (
(168,0,l),
(168,546,l),
(542,0,l),
(638,0,l),
(638,668,l),
(552,668,l),
(552,122,l),
(178,668,l),
(82,668,l),
(82,0,l)
);
}
);
width = 720;
},
{
anchors = (
{
name = bottom;
pos = (360,0);
},
{
name = top;
pos = (360,668);
}
);
background = {
shapes = (
{
closed = 1;
nodes = (
(190,0,l),
(190,499,l),
(520,0,l),
(645,0,l),
(645,668,l),
(530,668,l),
(530,169,l),
(200,668,l),
(75,668,l),
(75,0,l)
);
}
);
};
layerId = "96D04FCA-9746-4118-8F04-D3655F0185C2";
shapes = (
{
closed = 1;
nodes = (
(190,0,l),
(190,499,l),
(520,0,l),
(645,0,l),
(645,668,l),
(530,668,l),
(530,169,l),
(200,668,l),
(75,668,l),
(75,0,l)
);
}
);
width = 720;
},
{
anchors = (
{
name = bottom;
pos = (360,0);
},
{
name = top;
pos = (360,668);
}
);
background = {
shapes = (
{
closed = 1;
nodes = (
(128,0,l),
(128,632,l),
(582,0,l),
(624,0,l),
(624,668,l),
(592,668,l),
(592,36,l),
(138,668,l),
(96,668,l),
(96,0,l)
);
}
);
};
layerId = "1750929F-40DF-47FF-8B11-7621AD6711F1";
shapes = (
{
closed = 1;
nodes = (
(128,0,l),
(128,632,l),
(582,0,l),
(624,0,l),
(624,668,l),
(592,668,l),
(592,36,l),
(138,668,l),
(96,668,l),
(96,0,l)
);
}
);
width = 720;
}
);
unicode = 78;
},
{
color = 10;
glyphname = Ntilde;
lastChange = "2022-05-20 09:19:55 +0000";
layers = (
{
background = {
shapes = (
{
closed = 1;
nodes = (
(246,0,l),
(246,378,l),
(464,0,l),
(664,0,l),
(664,668,l),
(474,668,l),
(474,290,l),
(256,668,l),
(56,668,l),
(56,0,l)
);
},
{
closed = 1;
nodes = (
(272,726,l),
(273,757,o),
(284,778,o),
(300,778,cs),
(327,778,o),
(365,726,o),
(426,726,cs),
(514,726,o),
(544,797,o),
(544,888,c),
(448,888,l),
(447,857,o),
(436,836,o),
(420,836,cs),
(393,836,o),
(355,888,o),
(294,888,cs),
(206,888,o),
(176,817,o),
(176,726,c)
);
}
);
};
layerId = "42F8977D-8264-44FF-8A66-A72BD7D3E619";
shapes = (
{
ref = N;
},
{
pos = (60,198);
ref = tildecomb;
}
);
width = 720;
},
{
background = {
shapes = (
{
closed = 1;
nodes = (
(148,0,l),
(148,589,l),
(562,0,l),
(631,0,l),
(631,668,l),
(572,668,l),
(572,79,l),
(158,668,l),
(89,668,l),
(89,0,l)
);
},
{
closed = 1;
nodes = (
(255,759,l),
(258,816,o),
(271,831,o),
(294,831,cs),
(331,831,o),
(370,759,o),
(426,759,cs),
(474,759,o),
(502,788,o),
(502,871,c),
(465,871,l),
(462,814,o),
(449,799,o),
(426,799,cs),
(386,799,o),
(351,871,o),
(294,871,cs),
(246,871,o),
(217,842,o),
(217,759,c)
);
}
);
};
layerId = "5AACEF06-708C-4913-83FC-D570AD12060A";
shapes = (
{
ref = N;
},
{
pos = (60,198);
ref = tildecomb;
}
);
width = 720;
},
{
background = {
shapes = (
{
closed = 1;
nodes = (
(209,0,l),
(209,457,l),
(501,0,l),
(652,0,l),
(652,668,l),
(511,668,l),
(511,211,l),
(219,668,l),
(68,668,l),
(68,0,l)
);
},
{
closed = 1;
nodes = (
(266,738,l),
(268,778,o),
(278,798,o),
(297,798,cs),
(328,798,o),
(367,738,o),
(426,738,cs),
(499,738,o),
(528,794,o),
(528,882,c),
(454,882,l),
(452,842,o),
(442,822,o),
(423,822,cs),
(392,822,o),
(353,882,o),
(294,882,cs),
(221,882,o),
(192,826,o),
(192,738,c)
);
}
);
};
layerId = "ED0E349C-8452-4A2C-86CF-88CCE81BCF85";
shapes = (
{
ref = N;
},
{
pos = (60,198);
ref = tildecomb;
}
);
width = 720;
},
{
background = {
shapes = (
{
closed = 1;
nodes = (
(229,0,l),
(229,415,l),
(481,0,l),
(658,0,l),
(658,668,l),
(491,668,l),
(491,253,l),
(239,668,l),
(62,668,l),
(62,0,l)
);
},
{
closed = 1;
nodes = (
(269,732,l),
(271,769,o),
(281,787,o),
(299,787,cs),
(328,787,o),
(365,732,o),
(426,732,cs),
(507,732,o),
(537,796,o),
(537,885,c),
(451,885,l),
(449,848,o),
(439,830,o),
(421,830,cs),
(393,830,o),
(354,885,o),
(294,885,cs),
(213,885,o),
(183,821,o),
(183,732,c)
);
}
);
};
layerId = "19C37293-DF0C-4049-8F1C-5BECA685D590";
shapes = (
{
ref = N;
},
{
pos = (60,198);
ref = tildecomb;
}
);
width = 720;
},
{
background = {
shapes = (
{
closed = 1;
nodes = (
(168,0,l),
(168,546,l),
(542,0,l),
(638,0,l),
(638,668,l),
(552,668,l),
(552,122,l),
(178,668,l),
(82,668,l),
(82,0,l)
);
},
{
closed = 1;
nodes = (
(260,752,l),
(263,804,o),
(274,820,o),
(294,820,cs),
(329,820,o),
(370,752,o),
(426,752,cs),
(482,752,o),
(511,791,o),
(511,875,c),
(460,875,l),
(457,823,o),
(446,807,o),
(426,807,cs),
(390,807,o),
(351,875,o),
(294,875,cs),
(238,875,o),
(209,836,o),
(209,752,c)
);
}
);
};
layerId = "80ECBAB3-F383-4124-9E35-EC531BFDEBDA";
shapes = (
{
ref = N;
},
{
pos = (60,198);
ref = tildecomb;
}
);
width = 720;
},
{
background = {
shapes = (
{
closed = 1;
nodes = (
(190,0,l),
(190,499,l),
(520,0,l),
(645,0,l),
(645,668,l),
(530,668,l),
(530,169,l),
(200,668,l),
(75,668,l),
(75,0,l)
);
},
{
closed = 1;
nodes = (
(263,745,l),
(266,792,o),
(277,808,o),
(296,808,cs),
(329,808,o),
(367,745,o),
(426,745,cs),
(491,745,o),
(520,792,o),
(520,879,c),
(457,879,l),
(454,832,o),
(443,815,o),
(424,815,cs),
(391,815,o),
(353,879,o),
(294,879,cs),
(229,879,o),
(200,832,o),
(200,745,c)
);
}
);
};
layerId = "96D04FCA-9746-4118-8F04-D3655F0185C2";
shapes = (
{
ref = N;
},
{
pos = (60,198);
ref = tildecomb;
}
);
width = 720;
},
{
background = {
shapes = (
{
closed = 1;
nodes = (
(128,0,l),
(128,632,l),
(582,0,l),
(624,0,l),
(624,668,l),
(592,668,l),
(592,36,l),
(138,668,l),
(96,668,l),
(96,0,l)
);
},
{
closed = 1;
nodes = (
(250,766,l),
(251,829,o),
(270,842,o),
(294,842,cs),
(335,842,o),
(370,766,o),
(426,766,cs),
(466,766,o),
(494,788,o),
(494,868,c),
(470,868,l),
(467,805,o),
(450,792,o),
(426,792,cs),
(385,792,o),
(348,868,o),
(294,868,cs),
(254,868,o),
(226,846,o),
(226,766,c)
);
}
);
};
layerId = "1750929F-40DF-47FF-8B11-7621AD6711F1";
shapes = (
{
ref = N;
},
{
pos = (60,198);
ref = tildecomb;
}
);
width = 720;
}
);
unicode = 209;
},
{
color = 6;
glyphname = Eng;
lastChange = "2022-05-20 09:19:55 +0000";
layers = (
{
anchors = (
{
name = bottom;
pos = (300,0);
},
{
name = top;
pos = (300,668);
}
);
layerId = "1750929F-40DF-47FF-8B11-7621AD6711F1";
shapes = (
{
closed = 1;
nodes = (
(582,-188,o),
(624,-149,o),
(624,-65,cs),
(624,668,l),
(592,668,l),
(592,36,l),
(138,668,l),
(96,668,l),
(96,0,l),
(128,0,l),
(128,632,l),
(594,-16,l),
(594,-65,ls),
(594,-130,o),
(563,-160,o),
(507,-160,cs),
(491,-160,o),
(472,-159,o),
(461,-156,c),
(461,-182,l),
(472,-186,o),
(491,-188,o),
(507,-188,cs)
);
}
);
width = 720;
},
{
anchors = (
{
name = bottom;
pos = (300,0);
},
{
name = top;
pos = (300,668);
}
);
layerId = "5AACEF06-708C-4913-83FC-D570AD12060A";
shapes = (
{
closed = 1;
nodes = (
(587,-188,o),
(631,-147,o),
(631,-58,cs),
(631,668,l),
(572,668,l),
(572,79,l),
(158,668,l),
(89,668,l),
(89,0,l),
(148,0,l),
(148,589,l),
(575,-18,l),
(575,-55,ls),
(575,-114,o),
(547,-139,o),
(495,-139,cs),
(480,-139,o),
(461,-138,o),
(450,-135,c),
(450,-182,l),
(463,-186,o),
(484,-188,o),
(503,-188,cs)
);
}
);
width = 720;
},
{
anchors = (
{
name = bottom;
pos = (300,0);
},
{
name = top;
pos = (300,668);
}
);
layerId = "80ECBAB3-F383-4124-9E35-EC531BFDEBDA";
shapes = (
{
closed = 1;
nodes = (
(592,-188,o),
(638,-145,o),
(638,-50,cs),
(638,668,l),
(552,668,l),
(552,122,l),
(178,668,l),
(82,668,l),
(82,0,l),
(168,0,l),
(168,546,l),
(557,-21,l),
(557,-44,ls),
(557,-93,o),
(533,-118,o),
(484,-118,cs),
(469,-118,o),
(452,-117,o),
(439,-114,c),
(439,-181,l),
(455,-185,o),
(478,-188,o),
(499,-188,cs)
);
}
);
width = 720;
},
{
anchors = (
{
name = bottom;
pos = (300,0);
},
{
name = top;
pos = (300,668);
}
);
layerId = "96D04FCA-9746-4118-8F04-D3655F0185C2";
shapes = (
{
closed = 1;
nodes = (
(598,-188,o),
(645,-142,o),
(645,-42,cs),
(645,668,l),
(530,668,l),
(530,169,l),
(200,668,l),
(75,668,l),
(75,0,l),
(190,0,l),
(190,499,l),
(537,-23,l),
(537,-33,ls),
(537,-76,o),
(515,-97,o),
(471,-97,cs),
(456,-97,o),
(441,-96,o),
(427,-94,c),
(427,-180,l),
(447,-185,o),
(469,-188,o),
(494,-188,cs)
);
}
);
width = 720;
},
{
anchors = (
{
name = bottom;
pos = (300,0);
},
{
name = top;
pos = (300,668);
}
);
layerId = "ED0E349C-8452-4A2C-86CF-88CCE81BCF85";
shapes = (
{
closed = 1;
nodes = (
(603,-188,o),
(652,-139,o),
(652,-35,cs),
(652,668,l),
(511,668,l),
(511,211,l),
(219,668,l),
(68,668,l),
(68,0,l),
(209,0,l),
(209,457,l),
(501,0,l),
(519,-27,l),
(519,-65,o),
(499,-79,o),
(459,-79,cs),
(446,-79,o),
(432,-78,o),
(416,-76,c),
(416,-179,l),
(439,-184,o),
(465,-188,o),
(490,-188,cs)
);
}
);
width = 720;
},
{
anchors = (
{
name = bottom;
pos = (300,0);
},
{
name = top;
pos = (300,668);
}
);
layerId = "19C37293-DF0C-4049-8F1C-5BECA685D590";
shapes = (
{
closed = 1;
nodes = (
(609,-188,o),
(658,-135,o),
(658,-27,cs),
(658,668,l),
(491,668,l),
(491,253,l),
(239,668,l),
(62,668,l),
(62,0,l),
(229,0,l),
(229,415,l),
(486,8,l),
(500,-12,l),
(500,-43,o),
(485,-60,o),
(448,-60,cs),
(433,-60,o),
(422,-61,o),
(406,-58,c),
(406,-179,l),
(429,-184,o),
(459,-188,o),
(486,-188,cs)
);
}
);
width = 720;
},
{
anchors = (
{
name = bottom;
pos = (300,0);
},
{
name = top;
pos = (300,668);
}
);
layerId = "42F8977D-8264-44FF-8A66-A72BD7D3E619";
shapes = (
{
closed = 1;
nodes = (
(613,-188,o),
(664,-134,o),
(664,-21,cs),
(664,668,l),
(474,668,l),
(474,290,l),
(256,668,l),
(56,668,l),
(56,0,l),
(246,0,l),
(246,378,l),
(477,8,l),
(484,-3,l),
(484,-27,o),
(472,-44,o),
(437,-44,cs),
(424,-44,o),
(413,-45,o),
(396,-42,c),
(396,-178,l),
(423,-185,o),
(453,-188,o),
(482,-188,cs)
);
}
);
width = 720;
}
);
unicode = 330;
},
{
color = 6;
glyphname = O;
kernLeft = _C1;
kernRight = _D;
lastChange = "2022-05-20 09:19:55 +0000";
layers = (
{
anchors = (
{
name = bottom;
pos = (390,0);
},
{
name = center;
pos = (390,334);
},
{
name = ogonek;
pos = (702,10);
},
{
name = top;
pos = (390,668);
},
{
name = topleft;
pos = (20,668);
},
{
name = topright;
pos = (760,668);
}
);
background = {
shapes = (
{
closed = 1;
nodes = (
(610,-10,o),
(754,134,o),
(754,334,cs),
(754,534,o),
(610,678,o),
(390,678,cs),
(171,678,o),
(26,534,o),
(26,334,cs),
(26,134,o),
(170,-10,o),
(390,-10,cs)
);
},
{
closed = 1;
nodes = (
(289,154,o),
(218,226,o),
(218,334,cs),
(218,442,o),
(289,514,o),
(390,514,cs),
(490,514,o),
(562,442,o),
(562,334,cs),
(562,226,o),
(490,154,o),
(390,154,cs)
);
}
);
};
layerId = "42F8977D-8264-44FF-8A66-A72BD7D3E619";
shapes = (
{
closed = 1;
nodes = (
(610,-10,o),
(754,134,o),
(754,334,cs),
(754,534,o),
(610,678,o),
(390,678,cs),
(171,678,o),
(26,534,o),
(26,334,cs),
(26,134,o),
(170,-10,o),
(390,-10,cs)
);
},
{
closed = 1;
nodes = (
(289,154,o),
(218,226,o),
(218,334,cs),
(218,442,o),
(289,514,o),
(390,514,cs),
(490,514,o),
(562,442,o),
(562,334,cs),
(562,226,o),
(490,154,o),
(390,154,cs)
);
}
);
width = 780;
},
{
anchors = (
{
name = bottom;
pos = (390,0);
},
{
name = center;
pos = (390,334);
},
{
name = ogonek;
pos = (702,10);
},
{
name = top;
pos = (390,668);
},
{
name = topleft;
pos = (20,668);
},
{
name = topright;
pos = (760,668);
}
);
background = {
shapes = (
{
closed = 1;
nodes = (
(595,-10,o),
(721,134,o),
(721,334,cs),
(721,534,o),
(595,678,o),
(390,678,cs),
(183,678,o),
(59,534,o),
(59,334,cs),
(59,134,o),
(183,-10,o),
(390,-10,cs)
);
},
{
closed = 1;
nodes = (
(222,43,o),
(120,160,o),
(120,334,cs),
(120,507,o),
(222,625,o),
(390,625,cs),
(558,625,o),
(660,507,o),
(660,334,cs),
(660,160,o),
(558,43,o),
(390,43,cs)
);
}
);
};
layerId = "5AACEF06-708C-4913-83FC-D570AD12060A";
shapes = (
{
closed = 1;
nodes = (
(595,-10,o),
(721,134,o),
(721,334,cs),
(721,534,o),
(595,678,o),
(390,678,cs),
(183,678,o),
(59,534,o),
(59,334,cs),
(59,134,o),
(183,-10,o),
(390,-10,cs)
);
},
{
closed = 1;
nodes = (
(222,43,o),
(120,160,o),
(120,334,cs),
(120,507,o),
(222,625,o),
(390,625,cs),
(558,625,o),
(660,507,o),
(660,334,cs),
(660,160,o),
(558,43,o),
(390,43,cs)
);
}
);
width = 780;
},
{
anchors = (
{
name = bottom;
pos = (390,0);
},
{
name = center;
pos = (390,334);
},
{
name = ogonek;
pos = (702,10);
},
{
name = top;
pos = (390,668);
},
{
name = topleft;
pos = (20,668);
},
{
name = topright;
pos = (760,668);
}
);
background = {
shapes = (
{
closed = 1;
nodes = (
(605,-10,o),
(742,134,o),
(742,334,cs),
(742,534,o),
(605,678,o),
(390,678,cs),
(177,678,o),
(38,534,o),
(38,334,cs),
(38,134,o),
(175,-10,o),
(390,-10,cs)
);
},
{
closed = 1;
nodes = (
(265,113,o),
(181,202,o),
(181,334,cs),
(181,466,o),
(265,555,o),
(390,555,cs),
(515,555,o),
(599,466,o),
(599,334,cs),
(599,202,o),
(515,113,o),
(390,113,cs)
);
}
);
};
layerId = "ED0E349C-8452-4A2C-86CF-88CCE81BCF85";
shapes = (
{
closed = 1;
nodes = (
(605,-10,o),
(742,134,o),
(742,334,cs),
(742,534,o),
(605,678,o),
(390,678,cs),
(177,678,o),
(38,534,o),
(38,334,cs),
(38,134,o),
(175,-10,o),
(390,-10,cs)
);
},
{
closed = 1;
nodes = (
(265,113,o),
(181,202,o),
(181,334,cs),
(181,466,o),
(265,555,o),
(390,555,cs),
(515,555,o),
(599,466,o),
(599,334,cs),
(599,202,o),
(515,113,o),
(390,113,cs)
);
}
);
width = 780;
},
{
anchors = (
{
name = bottom;
pos = (390,0);
},
{
name = center;
pos = (390,334);
},
{
name = ogonek;
pos = (702,10);
},
{
name = top;
pos = (390,668);
},
{
name = topleft;
pos = (20,668);
},
{
name = topright;
pos = (760,668);
}
);
background = {
shapes = (
{
closed = 1;
nodes = (
(608,-10,o),
(748,134,o),
(748,334,cs),
(748,534,o),
(608,678,o),
(390,678,cs),
(173,678,o),
(32,534,o),
(32,334,cs),
(32,134,o),
(172,-10,o),
(390,-10,cs)
);
},
{
closed = 1;
nodes = (
(277,135,o),
(201,215,o),
(201,334,cs),
(201,453,o),
(277,533,o),
(390,533,cs),
(502,533,o),
(579,453,o),
(579,334,cs),
(579,215,o),
(502,135,o),
(390,135,cs)
);
}
);
};
layerId = "19C37293-DF0C-4049-8F1C-5BECA685D590";
shapes = (
{
closed = 1;
nodes = (
(608,-10,o),
(748,134,o),
(748,334,cs),
(748,534,o),
(608,678,o),
(390,678,cs),
(173,678,o),
(32,534,o),
(32,334,cs),
(32,134,o),
(172,-10,o),
(390,-10,cs)
);
},
{
closed = 1;
nodes = (
(277,135,o),
(201,215,o),
(201,334,cs),
(201,453,o),
(277,533,o),
(390,533,cs),
(502,533,o),
(579,453,o),
(579,334,cs),
(579,215,o),
(502,135,o),
(390,135,cs)
);
}
);
width = 780;
},
{
anchors = (
{
name = bottom;
pos = (390,0);
},
{
name = center;
pos = (390,334);
},
{
name = ogonek;
pos = (702,10);
},
{
name = top;
pos = (390,668);
},
{
name = topleft;
pos = (20,668);
},
{
name = topright;
pos = (760,668);
}
);
background = {
shapes = (
{
closed = 1;
nodes = (
(599,-10,o),
(728,134,o),
(728,334,cs),
(728,534,o),
(599,678,o),
(390,678,cs),
(181,678,o),
(52,534,o),
(52,334,cs),
(52,134,o),
(181,-10,o),
(390,-10,cs)
);
},
{
closed = 1;
nodes = (
(236,66,o),
(140,174,o),
(140,334,cs),
(140,494,o),
(236,602,o),
(390,602,cs),
(544,602,o),
(640,494,o),
(640,334,cs),
(640,174,o),
(544,66,o),
(390,66,cs)
);
}
);
};
layerId = "80ECBAB3-F383-4124-9E35-EC531BFDEBDA";
shapes = (
{
closed = 1;
nodes = (
(599,-10,o),
(728,134,o),
(728,334,cs),
(728,534,o),
(599,678,o),
(390,678,cs),
(181,678,o),
(52,534,o),
(52,334,cs),
(52,134,o),
(181,-10,o),
(390,-10,cs)
);
},
{
closed = 1;
nodes = (
(236,66,o),
(140,174,o),
(140,334,cs),
(140,494,o),
(236,602,o),
(390,602,cs),
(544,602,o),
(640,494,o),
(640,334,cs),
(640,174,o),
(544,66,o),
(390,66,cs)
);
}
);
width = 780;
},
{
anchors = (
{
name = bottom;
pos = (390,0);
},
{
name = center;
pos = (390,334);
},
{
name = ogonek;
pos = (702,10);
},
{
name = top;
pos = (390,668);
},
{
name = topleft;
pos = (20,668);
},
{
name = topright;
pos = (760,668);
}
);
background = {
shapes = (
{
closed = 1;
nodes = (
(602,-10,o),
(735,134,o),
(735,334,cs),
(735,534,o),
(602,678,o),
(390,678,cs),
(178,678,o),
(45,534,o),
(45,334,cs),
(45,134,o),
(178,-10,o),
(390,-10,cs)
);
},
{
closed = 1;
nodes = (
(251,91,o),
(162,189,o),
(162,334,cs),
(162,479,o),
(251,577,o),
(390,577,cs),
(529,577,o),
(618,479,o),
(618,334,cs),
(618,189,o),
(529,91,o),
(390,91,cs)
);
}
);
};
layerId = "96D04FCA-9746-4118-8F04-D3655F0185C2";
shapes = (
{
closed = 1;
nodes = (
(602,-10,o),
(735,134,o),
(735,334,cs),
(735,534,o),
(602,678,o),
(390,678,cs),
(178,678,o),
(45,534,o),
(45,334,cs),
(45,134,o),
(178,-10,o),
(390,-10,cs)
);
},
{
closed = 1;
nodes = (
(251,91,o),
(162,189,o),
(162,334,cs),
(162,479,o),
(251,577,o),
(390,577,cs),
(529,577,o),
(618,479,o),
(618,334,cs),
(618,189,o),
(529,91,o),
(390,91,cs)
);
}
);
width = 780;
},
{
anchors = (
{
name = bottom;
pos = (390,0);
},
{
name = center;
pos = (390,334);
},
{
name = ogonek;
pos = (702,10);
},
{
name = top;
pos = (390,668);
},
{
name = topleft;
pos = (20,668);
},
{
name = topright;
pos = (760,668);
}
);
background = {
shapes = (
{
closed = 1;
nodes = (
(594,-10,o),
(714,134,o),
(714,334,cs),
(714,534,o),
(594,678,o),
(390,678,cs),
(186,678,o),
(66,534,o),
(66,334,cs),
(66,134,o),
(186,-10,o),
(390,-10,cs)
);
},
{
closed = 1;
nodes = (
(208,20,o),
(100,147,o),
(100,334,cs),
(100,521,o),
(208,648,o),
(390,648,cs),
(572,648,o),
(680,521,o),
(680,334,cs),
(680,147,o),
(572,20,o),
(390,20,cs)
);
}
);
};
layerId = "1750929F-40DF-47FF-8B11-7621AD6711F1";
shapes = (
{
closed = 1;
nodes = (
(594,-10,o),
(714,134,o),
(714,334,cs),
(714,534,o),
(594,678,o),
(390,678,cs),
(186,678,o),
(66,534,o),
(66,334,cs),
(66,134,o),
(186,-10,o),
(390,-10,cs)
);
},
{
closed = 1;
nodes = (
(208,20,o),
(100,147,o),
(100,334,cs),
(100,521,o),
(208,648,o),
(390,648,cs),
(572,648,o),
(680,521,o),
(680,334,cs),
(680,147,o),
(572,20,o),
(390,20,cs)
);
}
);
width = 780;
}
);
unicode = 79;
},
{
color = 10;
glyphname = Oacute;
kernLeft = _C1;
kernRight = _D;
lastChange = "2022-05-20 09:34:44 +0000";
layers = (
{
background = {
shapes = (
{
closed = 1;
nodes = (
(610,-10,o),
(754,134,o),
(754,334,cs),
(754,534,o),
(610,678,o),
(390,678,cs),
(171,678,o),
(26,534,o),
(26,334,cs),
(26,134,o),
(170,-10,o),
(390,-10,cs)
);
},
{
closed = 1;
nodes = (
(289,154,o),
(218,226,o),
(218,334,cs),
(218,442,o),
(289,514,o),
(390,514,cs),
(490,514,o),
(562,442,o),
(562,334,cs),
(562,226,o),
(490,154,o),
(390,154,cs)
);
},
{
closed = 1;
nodes = (
(450,726,l),
(564,888,l),
(390,888,l),
(330,726,l)
);
}
);
};
layerId = "42F8977D-8264-44FF-8A66-A72BD7D3E619";
shapes = (
{
ref = O;
},
{
pos = (135,198);
ref = acutecomb;
}
);
width = 780;
},
{
background = {
shapes = (
{
closed = 1;
nodes = (
(595,-10,o),
(721,134,o),
(721,334,cs),
(721,534,o),
(595,678,o),
(390,678,cs),
(183,678,o),
(59,534,o),
(59,334,cs),
(59,134,o),
(183,-10,o),
(390,-10,cs)
);
},
{
closed = 1;
nodes = (
(222,43,o),
(120,160,o),
(120,334,cs),
(120,507,o),
(222,625,o),
(390,625,cs),
(558,625,o),
(660,507,o),
(660,334,cs),
(660,160,o),
(558,43,o),
(390,43,cs)
);
},
{
closed = 1;
nodes = (
(410,742,l),
(506,888,l),
(447,888,l),
(370,742,l)
);
}
);
};
layerId = "5AACEF06-708C-4913-83FC-D570AD12060A";
shapes = (
{
ref = O;
},
{
pos = (136,198);
ref = acutecomb;
}
);
width = 780;
},
{
background = {
shapes = (
{
closed = 1;
nodes = (
(605,-10,o),
(742,134,o),
(742,334,cs),
(742,534,o),
(605,678,o),
(390,678,cs),
(177,678,o),
(38,534,o),
(38,334,cs),
(38,134,o),
(175,-10,o),
(390,-10,cs)
);
},
{
closed = 1;
nodes = (
(265,113,o),
(181,202,o),
(181,334,cs),
(181,466,o),
(265,555,o),
(390,555,cs),
(515,555,o),
(599,466,o),
(599,334,cs),
(599,202,o),
(515,113,o),
(390,113,cs)
);
},
{
closed = 1;
nodes = (
(435,732,l),
(542,888,l),
(412,888,l),
(345,732,l)
);
}
);
};
layerId = "ED0E349C-8452-4A2C-86CF-88CCE81BCF85";
shapes = (
{
ref = O;
},
{
pos = (136,198);
ref = acutecomb;
}
);
width = 780;
},
{
background = {
shapes = (
{
closed = 1;
nodes = (
(608,-10,o),
(748,134,o),
(748,334,cs),
(748,534,o),
(608,678,o),
(390,678,cs),
(173,678,o),
(32,534,o),
(32,334,cs),
(32,134,o),
(172,-10,o),
(390,-10,cs)
);
},
{
closed = 1;
nodes = (
(277,135,o),
(201,215,o),
(201,334,cs),
(201,453,o),
(277,533,o),
(390,533,cs),
(502,533,o),
(579,453,o),
(579,334,cs),
(579,215,o),
(502,135,o),
(390,135,cs)
);
},
{
closed = 1;
nodes = (
(443,729,l),
(554,888,l),
(400,888,l),
(337,729,l)
);
}
);
};
layerId = "19C37293-DF0C-4049-8F1C-5BECA685D590";
shapes = (
{
ref = O;
},
{
pos = (133,198);
ref = acutecomb;
}
);
width = 780;
},
{
background = {
shapes = (
{
closed = 1;
nodes = (
(599,-10,o),
(728,134,o),
(728,334,cs),
(728,534,o),
(599,678,o),
(390,678,cs),
(181,678,o),
(52,534,o),
(52,334,cs),
(52,134,o),
(181,-10,o),
(390,-10,cs)
);
},
{
closed = 1;
nodes = (
(236,66,o),
(140,174,o),
(140,334,cs),
(140,494,o),
(236,602,o),
(390,602,cs),
(544,602,o),
(640,494,o),
(640,334,cs),
(640,174,o),
(544,66,o),
(390,66,cs)
);
},
{
closed = 1;
nodes = (
(418,739,l),
(518,888,l),
(436,888,l),
(362,739,l)
);
}
);
};
layerId = "80ECBAB3-F383-4124-9E35-EC531BFDEBDA";
shapes = (
{
ref = O;
},
{
pos = (135,198);
ref = acutecomb;
}
);
width = 780;
},
{
background = {
shapes = (
{
closed = 1;
nodes = (
(602,-10,o),
(735,134,o),
(735,334,cs),
(735,534,o),
(602,678,o),
(390,678,cs),
(178,678,o),
(45,534,o),
(45,334,cs),
(45,134,o),
(178,-10,o),
(390,-10,cs)
);
},
{
closed = 1;
nodes = (
(251,91,o),
(162,189,o),
(162,334,cs),
(162,479,o),
(251,577,o),
(390,577,cs),
(529,577,o),
(618,479,o),
(618,334,cs),
(618,189,o),
(529,91,o),
(390,91,cs)
);
},
{
closed = 1;
nodes = (
(427,735,l),
(531,888,l),
(423,888,l),
(353,735,l)
);
}
);
};
layerId = "96D04FCA-9746-4118-8F04-D3655F0185C2";
shapes = (
{
ref = O;
},
{
pos = (135,198);
ref = acutecomb;
}
);
width = 780;
},
{
background = {
shapes = (
{
closed = 1;
nodes = (
(594,-10,o),
(714,134,o),
(714,334,cs),
(714,534,o),
(594,678,o),
(390,678,cs),
(186,678,o),
(66,534,o),
(66,334,cs),
(66,134,o),
(186,-10,o),
(390,-10,cs)
);
},
{
closed = 1;
nodes = (
(208,20,o),
(100,147,o),
(100,334,cs),
(100,521,o),
(208,648,o),
(390,648,cs),
(572,648,o),
(680,521,o),
(680,334,cs),
(680,147,o),
(572,20,o),
(390,20,cs)
);
},
{
closed = 1;
nodes = (
(402,746,l),
(495,888,l),
(459,888,l),
(378,746,l)
);
}
);
};
layerId = "1750929F-40DF-47FF-8B11-7621AD6711F1";
shapes = (
{
ref = O;
},
{
pos = (135,198);
ref = acutecomb;
}
);
width = 780;
}
);
unicode = 211;
},
{
color = 10;
glyphname = Ocircumflex;
kernLeft = _C1;
kernRight = _D;
lastChange = "2022-05-20 09:19:55 +0000";
layers = (
{
background = {
shapes = (
{
closed = 1;
nodes = (
(610,-10,o),
(754,134,o),
(754,334,cs),
(754,534,o),
(610,678,o),
(390,678,cs),
(171,678,o),
(26,534,o),
(26,334,cs),
(26,134,o),
(170,-10,o),
(390,-10,cs)
);
},
{
closed = 1;
nodes = (
(289,154,o),
(218,226,o),
(218,334,cs),
(218,442,o),
(289,514,o),
(390,514,cs),
(490,514,o),
(562,442,o),
(562,334,cs),
(562,226,o),
(490,154,o),
(390,154,cs)
);
},
{
closed = 1;
nodes = (
(346,726,l),
(390,797,l),
(434,726,l),
(564,726,l),
(470,888,l),
(310,888,l),
(216,726,l)
);
}
);
};
layerId = "42F8977D-8264-44FF-8A66-A72BD7D3E619";
shapes = (
{
ref = O;
},
{
pos = (90,198);
ref = circumflexcomb;
}
);
width = 780;
},
{
background = {
shapes = (
{
closed = 1;
nodes = (
(595,-10,o),
(721,134,o),
(721,334,cs),
(721,534,o),
(595,678,o),
(390,678,cs),
(183,678,o),
(59,534,o),
(59,334,cs),
(59,134,o),
(183,-10,o),
(390,-10,cs)
);
},
{
closed = 1;
nodes = (
(222,43,o),
(120,160,o),
(120,334,cs),
(120,507,o),
(222,625,o),
(390,625,cs),
(558,625,o),
(660,507,o),
(660,334,cs),
(660,160,o),
(558,43,o),
(390,43,cs)
);
},
{
closed = 1;
nodes = (
(306,742,l),
(390,855,l),
(474,742,l),
(522,742,l),
(418,888,l),
(361,888,l),
(257,742,l)
);
}
);
};
layerId = "5AACEF06-708C-4913-83FC-D570AD12060A";
shapes = (
{
ref = O;
},
{
pos = (90,198);
ref = circumflexcomb;
}
);
width = 780;
},
{
background = {
shapes = (
{
closed = 1;
nodes = (
(605,-10,o),
(742,134,o),
(742,334,cs),
(742,534,o),
(605,678,o),
(390,678,cs),
(177,678,o),
(38,534,o),
(38,334,cs),
(38,134,o),
(175,-10,o),
(390,-10,cs)
);
},
{
closed = 1;
nodes = (
(265,113,o),
(181,202,o),
(181,334,cs),
(181,466,o),
(265,555,o),
(390,555,cs),
(515,555,o),
(599,466,o),
(599,334,cs),
(599,202,o),
(515,113,o),
(390,113,cs)
);
},
{
closed = 1;
nodes = (
(331,732,l),
(390,819,l),
(449,732,l),
(548,732,l),
(451,888,l),
(329,888,l),
(232,732,l)
);
}
);
};
layerId = "ED0E349C-8452-4A2C-86CF-88CCE81BCF85";
shapes = (
{
ref = O;
},
{
pos = (90,198);
ref = circumflexcomb;
}
);
width = 780;
},
{
background = {
shapes = (
{
closed = 1;
nodes = (
(608,-10,o),
(748,134,o),
(748,334,cs),
(748,534,o),
(608,678,o),
(390,678,cs),
(173,678,o),
(32,534,o),
(32,334,cs),
(32,134,o),
(172,-10,o),
(390,-10,cs)
);
},
{
closed = 1;
nodes = (
(277,135,o),
(201,215,o),
(201,334,cs),
(201,453,o),
(277,533,o),
(390,533,cs),
(502,533,o),
(579,453,o),
(579,334,cs),
(579,215,o),
(502,135,o),
(390,135,cs)
);
},
{
closed = 1;
nodes = (
(339,729,l),
(390,807,l),
(441,729,l),
(557,729,l),
(461,888,l),
(319,888,l),
(223,729,l)
);
}
);
};
layerId = "19C37293-DF0C-4049-8F1C-5BECA685D590";
shapes = (
{
ref = O;
},
{
pos = (90,198);
ref = circumflexcomb;
}
);
width = 780;
},
{
background = {
shapes = (
{
closed = 1;
nodes = (
(599,-10,o),
(728,134,o),
(728,334,cs),
(728,534,o),
(599,678,o),
(390,678,cs),
(181,678,o),
(52,534,o),
(52,334,cs),
(52,134,o),
(181,-10,o),
(390,-10,cs)
);
},
{
closed = 1;
nodes = (
(236,66,o),
(140,174,o),
(140,334,cs),
(140,494,o),
(236,602,o),
(390,602,cs),
(544,602,o),
(640,494,o),
(640,334,cs),
(640,174,o),
(544,66,o),
(390,66,cs)
);
},
{
closed = 1;
nodes = (
(314,739,l),
(390,843,l),
(466,739,l),
(531,739,l),
(429,888,l),
(351,888,l),
(249,739,l)
);
}
);
};
layerId = "80ECBAB3-F383-4124-9E35-EC531BFDEBDA";
shapes = (
{
ref = O;
},
{
pos = (90,198);
ref = circumflexcomb;
}
);
width = 780;
},
{
background = {
shapes = (
{
closed = 1;
nodes = (
(602,-10,o),
(735,134,o),
(735,334,cs),
(735,534,o),
(602,678,o),
(390,678,cs),
(178,678,o),
(45,534,o),
(45,334,cs),
(45,134,o),
(178,-10,o),
(390,-10,cs)
);
},
{
closed = 1;
nodes = (
(251,91,o),
(162,189,o),
(162,334,cs),
(162,479,o),
(251,577,o),
(390,577,cs),
(529,577,o),
(618,479,o),
(618,334,cs),
(618,189,o),
(529,91,o),
(390,91,cs)
);
},
{
closed = 1;
nodes = (
(323,735,l),
(390,830,l),
(457,735,l),
(540,735,l),
(440,888,l),
(340,888,l),
(240,735,l)
);
}
);
};
layerId = "96D04FCA-9746-4118-8F04-D3655F0185C2";
shapes = (
{
ref = O;
},
{
pos = (90,198);
ref = circumflexcomb;
}
);
width = 780;
},
{
background = {
shapes = (
{
closed = 1;
nodes = (
(594,-10,o),
(714,134,o),
(714,334,cs),
(714,534,o),
(594,678,o),
(390,678,cs),
(186,678,o),
(66,534,o),
(66,334,cs),
(66,134,o),
(186,-10,o),
(390,-10,cs)
);
},
{
closed = 1;
nodes = (
(208,20,o),
(100,147,o),
(100,334,cs),
(100,521,o),
(208,648,o),
(390,648,cs),
(572,648,o),
(680,521,o),
(680,334,cs),
(680,147,o),
(572,20,o),
(390,20,cs)
);
},
{
closed = 1;
nodes = (
(298,746,l),
(390,867,l),
(482,746,l),
(514,746,l),
(408,888,l),
(372,888,l),
(266,746,l)
);
}
);
};
layerId = "1750929F-40DF-47FF-8B11-7621AD6711F1";
shapes = (
{
ref = O;
},
{
pos = (90,198);
ref = circumflexcomb;
}
);
width = 780;
}
);
unicode = 212;
},
{
color = 10;
glyphname = Odieresis;
kernLeft = _C1;
kernRight = _D;
lastChange = "2022-05-20 09:19:55 +0000";
layers = (
{
background = {
shapes = (
{
closed = 1;
nodes = (
(610,-10,o),
(754,134,o),
(754,334,cs),
(754,534,o),
(610,678,o),
(390,678,cs),
(171,678,o),
(26,534,o),
(26,334,cs),
(26,134,o),
(170,-10,o),
(390,-10,cs)
);
},
{
closed = 1;
nodes = (
(289,154,o),
(218,226,o),
(218,334,cs),
(218,442,o),
(289,514,o),
(390,514,cs),
(490,514,o),
(562,442,o),
(562,334,cs),
(562,226,o),
(490,154,o),
(390,154,cs)
);
},
{
closed = 1;
nodes = (
(336,728,o),
(368,762,o),
(368,807,cs),
(368,852,o),
(336,886,o),
(285,886,cs),
(234,886,o),
(202,852,o),
(202,807,cs),
(202,762,o),
(234,728,o),
(285,728,cs)
);
},
{
closed = 1;
nodes = (
(546,728,o),
(578,762,o),
(578,807,cs),
(578,852,o),
(546,886,o),
(495,886,cs),
(444,886,o),
(412,852,o),
(412,807,cs),
(412,762,o),
(444,728,o),
(495,728,cs)
);
}
);
};
layerId = "42F8977D-8264-44FF-8A66-A72BD7D3E619";
shapes = (
{
ref = O;
},
{
pos = (90,198);
ref = dieresiscomb;
}
);
width = 780;
},
{
background = {
shapes = (
{
closed = 1;
nodes = (
(595,-10,o),
(721,134,o),
(721,334,cs),
(721,534,o),
(595,678,o),
(390,678,cs),
(183,678,o),
(59,534,o),
(59,334,cs),
(59,134,o),
(183,-10,o),
(390,-10,cs)
);
},
{
closed = 1;
nodes = (
(222,43,o),
(120,160,o),
(120,334,cs),
(120,507,o),
(222,625,o),
(390,625,cs),
(558,625,o),
(660,507,o),
(660,334,cs),
(660,160,o),
(558,43,o),
(390,43,cs)
);
},
{
closed = 1;
nodes = (
(319,782,o),
(333,795,o),
(333,815,cs),
(333,835,o),
(319,848,o),
(298,848,cs),
(277,848,o),
(263,835,o),
(263,815,cs),
(263,795,o),
(277,782,o),
(298,782,cs)
);
},
{
closed = 1;
nodes = (
(502,782,o),
(516,795,o),
(516,815,cs),
(516,835,o),
(502,848,o),
(481,848,cs),
(460,848,o),
(446,835,o),
(446,815,cs),
(446,795,o),
(460,782,o),
(481,782,cs)
);
}
);
};
layerId = "5AACEF06-708C-4913-83FC-D570AD12060A";
shapes = (
{
ref = O;
},
{
pos = (90,198);
ref = dieresiscomb;
}
);
width = 780;
},
{
background = {
shapes = (
{
closed = 1;
nodes = (
(605,-10,o),
(742,134,o),
(742,334,cs),
(742,534,o),
(605,678,o),
(390,678,cs),
(177,678,o),
(38,534,o),
(38,334,cs),
(38,134,o),
(175,-10,o),
(390,-10,cs)
);
},
{
closed = 1;
nodes = (
(265,113,o),
(181,202,o),
(181,334,cs),
(181,466,o),
(265,555,o),
(390,555,cs),
(515,555,o),
(599,466,o),
(599,334,cs),
(599,202,o),
(515,113,o),
(390,113,cs)
);
},
{
closed = 1;
nodes = (
(330,748,o),
(356,774,o),
(356,810,cs),
(356,846,o),
(330,872,o),
(290,872,cs),
(251,872,o),
(225,846,o),
(225,810,cs),
(225,774,o),
(251,748,o),
(290,748,cs)
);
},
{
closed = 1;
nodes = (
(529,748,o),
(555,774,o),
(555,810,cs),
(555,846,o),
(529,872,o),
(490,872,cs),
(450,872,o),
(424,846,o),
(424,810,cs),
(424,774,o),
(450,748,o),
(490,748,cs)
);
}
);
};
layerId = "ED0E349C-8452-4A2C-86CF-88CCE81BCF85";
shapes = (
{
ref = O;
},
{
pos = (90,198);
ref = dieresiscomb;
}
);
width = 780;
},
{
background = {
shapes = (
{
closed = 1;
nodes = (
(608,-10,o),
(748,134,o),
(748,334,cs),
(748,534,o),
(608,678,o),
(390,678,cs),
(173,678,o),
(32,534,o),
(32,334,cs),
(32,134,o),
(172,-10,o),
(390,-10,cs)
);
},
{
closed = 1;
nodes = (
(277,135,o),
(201,215,o),
(201,334,cs),
(201,453,o),
(277,533,o),
(390,533,cs),
(502,533,o),
(579,453,o),
(579,334,cs),
(579,215,o),
(502,135,o),
(390,135,cs)
);
},
{
closed = 1;
nodes = (
(334,737,o),
(362,768,o),
(362,809,cs),
(362,849,o),
(334,880,o),
(287,880,cs),
(242,880,o),
(213,849,o),
(213,809,cs),
(213,768,o),
(242,737,o),
(287,737,cs)
);
},
{
closed = 1;
nodes = (
(538,737,o),
(567,768,o),
(567,809,cs),
(567,849,o),
(538,880,o),
(493,880,cs),
(446,880,o),
(418,849,o),
(418,809,cs),
(418,768,o),
(446,737,o),
(493,737,cs)
);
}
);
};
layerId = "19C37293-DF0C-4049-8F1C-5BECA685D590";
shapes = (
{
ref = O;
},
{
pos = (90,198);
ref = dieresiscomb;
}
);
width = 780;
},
{
background = {
shapes = (
{
closed = 1;
nodes = (
(599,-10,o),
(728,134,o),
(728,334,cs),
(728,534,o),
(599,678,o),
(390,678,cs),
(181,678,o),
(52,534,o),
(52,334,cs),
(52,134,o),
(181,-10,o),
(390,-10,cs)
);
},
{
closed = 1;
nodes = (
(236,66,o),
(140,174,o),
(140,334,cs),
(140,494,o),
(236,602,o),
(390,602,cs),
(544,602,o),
(640,494,o),
(640,334,cs),
(640,174,o),
(544,66,o),
(390,66,cs)
);
},
{
closed = 1;
nodes = (
(324,770,o),
(342,787,o),
(342,814,cs),
(342,839,o),
(324,857,o),
(296,857,cs),
(268,857,o),
(250,839,o),
(250,814,cs),
(250,787,o),
(268,770,o),
(296,770,cs)
);
},
{
closed = 1;
nodes = (
(512,770,o),
(530,787,o),
(530,814,cs),
(530,839,o),
(512,857,o),
(484,857,cs),
(456,857,o),
(438,839,o),
(438,814,cs),
(438,787,o),
(456,770,o),
(484,770,cs)
);
}
);
};
layerId = "80ECBAB3-F383-4124-9E35-EC531BFDEBDA";
shapes = (
{
ref = O;
},
{
pos = (90,198);
ref = dieresiscomb;
}
);
width = 780;
},
{
background = {
shapes = (
{
closed = 1;
nodes = (
(602,-10,o),
(735,134,o),
(735,334,cs),
(735,534,o),
(602,678,o),
(390,678,cs),
(178,678,o),
(45,534,o),
(45,334,cs),
(45,134,o),
(178,-10,o),
(390,-10,cs)
);
},
{
closed = 1;
nodes = (
(251,91,o),
(162,189,o),
(162,334,cs),
(162,479,o),
(251,577,o),
(390,577,cs),
(529,577,o),
(618,479,o),
(618,334,cs),
(618,189,o),
(529,91,o),
(390,91,cs)
);
},
{
closed = 1;
nodes = (
(328,758,o),
(349,781,o),
(349,812,cs),
(349,843,o),
(328,865,o),
(293,865,cs),
(258,865,o),
(237,843,o),
(237,812,cs),
(237,781,o),
(258,758,o),
(293,758,cs)
);
},
{
closed = 1;
nodes = (
(522,758,o),
(543,781,o),
(543,812,cs),
(543,843,o),
(522,865,o),
(487,865,cs),
(452,865,o),
(431,843,o),
(431,812,cs),
(431,781,o),
(452,758,o),
(487,758,cs)
);
}
);
};
layerId = "96D04FCA-9746-4118-8F04-D3655F0185C2";
shapes = (
{
ref = O;
},
{
pos = (90,198);
ref = dieresiscomb;
}
);
width = 780;
},
{
background = {
shapes = (
{
closed = 1;
nodes = (
(594,-10,o),
(714,134,o),
(714,334,cs),
(714,534,o),
(594,678,o),
(390,678,cs),
(186,678,o),
(66,534,o),
(66,334,cs),
(66,134,o),
(186,-10,o),
(390,-10,cs)
);
},
{
closed = 1;
nodes = (
(208,20,o),
(100,147,o),
(100,334,cs),
(100,521,o),
(208,648,o),
(390,648,cs),
(572,648,o),
(680,521,o),
(680,334,cs),
(680,147,o),
(572,20,o),
(390,20,cs)
);
},
{
closed = 1;
nodes = (
(316,795,o),
(325,802,o),
(325,817,cs),
(325,832,o),
(316,839,o),
(301,839,cs),
(286,839,o),
(277,832,o),
(277,817,cs),
(277,802,o),
(286,795,o),
(301,795,cs)
);
},
{
closed = 1;
nodes = (
(494,795,o),
(503,802,o),
(503,817,cs),
(503,832,o),
(494,839,o),
(479,839,cs),
(464,839,o),
(455,832,o),
(455,817,cs),
(455,802,o),
(464,795,o),
(479,795,cs)
);
}
);
};
layerId = "1750929F-40DF-47FF-8B11-7621AD6711F1";
shapes = (
{
ref = O;
},
{
pos = (90,198);
ref = dieresiscomb;
}
);
width = 780;
}
);
unicode = 214;
},
{
color = 10;
glyphname = Ograve;
kernLeft = _C1;
kernRight = _D;
lastChange = "2022-05-20 09:35:09 +0000";
layers = (
{
background = {
shapes = (
{
closed = 1;
nodes = (
(610,-10,o),
(754,134,o),
(754,334,cs),
(754,534,o),
(610,678,o),
(390,678,cs),
(171,678,o),
(26,534,o),
(26,334,cs),
(26,134,o),
(170,-10,o),
(390,-10,cs)
);
},
{
closed = 1;
nodes = (
(289,154,o),
(218,226,o),
(218,334,cs),
(218,442,o),
(289,514,o),
(390,514,cs),
(490,514,o),
(562,442,o),
(562,334,cs),
(562,226,o),
(490,154,o),
(390,154,cs)
);
},
{
closed = 1;
nodes = (
(450,726,l),
(390,888,l),
(216,888,l),
(330,726,l)
);
}
);
};
layerId = "42F8977D-8264-44FF-8A66-A72BD7D3E619";
shapes = (
{
ref = O;
},
{
pos = (54,198);
ref = gravecomb;
}
);
width = 780;
},
{
background = {
shapes = (
{
closed = 1;
nodes = (
(595,-10,o),
(721,134,o),
(721,334,cs),
(721,534,o),
(595,678,o),
(390,678,cs),
(183,678,o),
(59,534,o),
(59,334,cs),
(59,134,o),
(183,-10,o),
(390,-10,cs)
);
},
{
closed = 1;
nodes = (
(222,43,o),
(120,160,o),
(120,334,cs),
(120,507,o),
(222,625,o),
(390,625,cs),
(558,625,o),
(660,507,o),
(660,334,cs),
(660,160,o),
(558,43,o),
(390,43,cs)
);
},
{
closed = 1;
nodes = (
(410,742,l),
(332,888,l),
(273,888,l),
(370,742,l)
);
}
);
};
layerId = "5AACEF06-708C-4913-83FC-D570AD12060A";
shapes = (
{
ref = O;
},
{
pos = (56,198);
ref = gravecomb;
}
);
width = 780;
},
{
background = {
shapes = (
{
closed = 1;
nodes = (
(605,-10,o),
(742,134,o),
(742,334,cs),
(742,534,o),
(605,678,o),
(390,678,cs),
(177,678,o),
(38,534,o),
(38,334,cs),
(38,134,o),
(175,-10,o),
(390,-10,cs)
);
},
{
closed = 1;
nodes = (
(265,113,o),
(181,202,o),
(181,334,cs),
(181,466,o),
(265,555,o),
(390,555,cs),
(515,555,o),
(599,466,o),
(599,334,cs),
(599,202,o),
(515,113,o),
(390,113,cs)
);
},
{
closed = 1;
nodes = (
(435,732,l),
(368,888,l),
(238,888,l),
(345,732,l)
);
}
);
};
layerId = "ED0E349C-8452-4A2C-86CF-88CCE81BCF85";
shapes = (
{
ref = O;
},
{
pos = (56,198);
ref = gravecomb;
}
);
width = 780;
},
{
background = {
shapes = (
{
closed = 1;
nodes = (
(608,-10,o),
(748,134,o),
(748,334,cs),
(748,534,o),
(608,678,o),
(390,678,cs),
(173,678,o),
(32,534,o),
(32,334,cs),
(32,134,o),
(172,-10,o),
(390,-10,cs)
);
},
{
closed = 1;
nodes = (
(277,135,o),
(201,215,o),
(201,334,cs),
(201,453,o),
(277,533,o),
(390,533,cs),
(502,533,o),
(579,453,o),
(579,334,cs),
(579,215,o),
(502,135,o),
(390,135,cs)
);
},
{
closed = 1;
nodes = (
(443,729,l),
(380,888,l),
(226,888,l),
(337,729,l)
);
}
);
};
layerId = "19C37293-DF0C-4049-8F1C-5BECA685D590";
shapes = (
{
ref = O;
},
{
pos = (54,198);
ref = gravecomb;
}
);
width = 780;
},
{
background = {
shapes = (
{
closed = 1;
nodes = (
(599,-10,o),
(728,134,o),
(728,334,cs),
(728,534,o),
(599,678,o),
(390,678,cs),
(181,678,o),
(52,534,o),
(52,334,cs),
(52,134,o),
(181,-10,o),
(390,-10,cs)
);
},
{
closed = 1;
nodes = (
(236,66,o),
(140,174,o),
(140,334,cs),
(140,494,o),
(236,602,o),
(390,602,cs),
(544,602,o),
(640,494,o),
(640,334,cs),
(640,174,o),
(544,66,o),
(390,66,cs)
);
},
{
closed = 1;
nodes = (
(418,739,l),
(344,888,l),
(262,888,l),
(362,739,l)
);
}
);
};
layerId = "80ECBAB3-F383-4124-9E35-EC531BFDEBDA";
shapes = (
{
ref = O;
},
{
pos = (56,198);
ref = gravecomb;
}
);
width = 780;
},
{
background = {
shapes = (
{
closed = 1;
nodes = (
(602,-10,o),
(735,134,o),
(735,334,cs),
(735,534,o),
(602,678,o),
(390,678,cs),
(178,678,o),
(45,534,o),
(45,334,cs),
(45,134,o),
(178,-10,o),
(390,-10,cs)
);
},
{
closed = 1;
nodes = (
(251,91,o),
(162,189,o),
(162,334,cs),
(162,479,o),
(251,577,o),
(390,577,cs),
(529,577,o),
(618,479,o),
(618,334,cs),
(618,189,o),
(529,91,o),
(390,91,cs)
);
},
{
closed = 1;
nodes = (
(427,735,l),
(357,888,l),
(249,888,l),
(353,735,l)
);
}
);
};
layerId = "96D04FCA-9746-4118-8F04-D3655F0185C2";
shapes = (
{
ref = O;
},
{
pos = (54,198);
ref = gravecomb;
}
);
width = 780;
},
{
background = {
shapes = (
{
closed = 1;
nodes = (
(594,-10,o),
(714,134,o),
(714,334,cs),
(714,534,o),
(594,678,o),
(390,678,cs),
(186,678,o),
(66,534,o),
(66,334,cs),
(66,134,o),
(186,-10,o),
(390,-10,cs)
);
},
{
closed = 1;
nodes = (
(208,20,o),
(100,147,o),
(100,334,cs),
(100,521,o),
(208,648,o),
(390,648,cs),
(572,648,o),
(680,521,o),
(680,334,cs),
(680,147,o),
(572,20,o),
(390,20,cs)
);
},
{
closed = 1;
nodes = (
(402,746,l),
(321,888,l),
(285,888,l),
(378,746,l)
);
}
);
};
layerId = "1750929F-40DF-47FF-8B11-7621AD6711F1";
shapes = (
{
ref = O;
},
{
pos = (56,198);
ref = gravecomb;
}
);
width = 780;
}
);
unicode = 210;
},
{
color = 6;
glyphname = Oslash;
kernLeft = _C1;
kernRight = _D;
lastChange = "2022-05-20 09:19:55 +0000";
layers = (
{
anchors = (
{
name = bottom;
pos = (390,0);
},
{
name = top;
pos = (390,668);
}
);
background = {
shapes = (
{
closed = 1;
nodes = (
(161,57,l),
(221,14,o),
(298,-10,o),
(390,-10,cs),
(610,-10,o),
(754,134,o),
(754,334,cs),
(754,415,o),
(730,486,o),
(687,543,c),
(754,605,l),
(692,678,l),
(618,610,l),
(558,653,o),
(481,678,o),
(390,678,cs),
(171,678,o),
(26,534,o),
(26,334,cs),
(26,253,o),
(49,181,o),
(92,124,c),
(26,63,l),
(88,-10,l)
);
},
{
closed = 1;
nodes = (
(353,154,o),
(321,163,o),
(294,180,c),
(546,413,l),
(557,388,o),
(562,362,o),
(562,334,cs),
(562,226,o),
(490,154,o),
(390,154,cs)
);
},
{
closed = 1;
nodes = (
(223,278,o),
(218,305,o),
(218,334,cs),
(218,442,o),
(289,514,o),
(390,514,cs),
(426,514,o),
(458,505,o),
(485,487,c),
(233,254,l)
);
}
);
};
layerId = "42F8977D-8264-44FF-8A66-A72BD7D3E619";
shapes = (
{
closed = 1;
nodes = (
(161,57,l),
(221,14,o),
(298,-10,o),
(390,-10,cs),
(610,-10,o),
(754,134,o),
(754,334,cs),
(754,415,o),
(730,486,o),
(687,543,c),
(754,605,l),
(692,678,l),
(618,610,l),
(558,653,o),
(481,678,o),
(390,678,cs),
(171,678,o),
(26,534,o),
(26,334,cs),
(26,253,o),
(49,181,o),
(92,124,c),
(26,63,l),
(88,-10,l)
);
},
{
closed = 1;
nodes = (
(353,154,o),
(321,163,o),
(294,180,c),
(546,413,l),
(557,388,o),
(562,362,o),
(562,334,cs),
(562,226,o),
(490,154,o),
(390,154,cs)
);
},
{
closed = 1;
nodes = (
(223,278,o),
(218,305,o),
(218,334,cs),
(218,442,o),
(289,514,o),
(390,514,cs),
(426,514,o),
(458,505,o),
(485,487,c),
(233,254,l)
);
}
);
width = 780;
},
{
anchors = (
{
name = bottom;
pos = (390,0);
},
{
name = top;
pos = (390,668);
}
);
background = {
shapes = (
{
closed = 1;
nodes = (
(164,69,l),
(220,18,o),
(297,-10,o),
(390,-10,cs),
(595,-10,o),
(721,134,o),
(721,334,cs),
(721,427,o),
(694,508,o),
(643,568,c),
(721,649,l),
(692,678,l),
(615,598,l),
(559,649,o),
(482,678,o),
(390,678,cs),
(183,678,o),
(59,534,o),
(59,334,cs),
(59,239,o),
(85,160,o),
(136,99,c),
(59,19,l),
(88,-10,l)
);
},
{
closed = 1;
nodes = (
(313,43,o),
(251,66,o),
(204,111,c),
(603,526,l),
(641,476,o),
(660,412,o),
(660,334,cs),
(660,160,o),
(558,43,o),
(390,43,cs)
);
},
{
closed = 1;
nodes = (
(139,192,o),
(120,256,o),
(120,334,cs),
(120,507,o),
(222,625,o),
(390,625,cs),
(467,625,o),
(528,600,o),
(575,557,c),
(176,141,l)
);
}
);
};
layerId = "5AACEF06-708C-4913-83FC-D570AD12060A";
shapes = (
{
closed = 1;
nodes = (
(164,69,l),
(220,18,o),
(297,-10,o),
(390,-10,cs),
(595,-10,o),
(721,134,o),
(721,334,cs),
(721,427,o),
(694,508,o),
(643,568,c),
(721,649,l),
(692,678,l),
(615,598,l),
(559,649,o),
(482,678,o),
(390,678,cs),
(183,678,o),
(59,534,o),
(59,334,cs),
(59,239,o),
(85,160,o),
(136,99,c),
(59,19,l),
(88,-10,l)
);
},
{
closed = 1;
nodes = (
(313,43,o),
(251,66,o),
(204,111,c),
(603,526,l),
(641,476,o),
(660,412,o),
(660,334,cs),
(660,160,o),
(558,43,o),
(390,43,cs)
);
},
{
closed = 1;
nodes = (
(139,192,o),
(120,256,o),
(120,334,cs),
(120,507,o),
(222,625,o),
(390,625,cs),
(467,625,o),
(528,600,o),
(575,557,c),
(176,141,l)
);
}
);
width = 780;
},
{
anchors = (
{
name = bottom;
pos = (390,0);
},
{
name = top;
pos = (390,668);
}
);
background = {
shapes = (
{
closed = 1;
nodes = (
(162,61,l),
(222,16,o),
(298,-10,o),
(390,-10,cs),
(605,-10,o),
(742,134,o),
(742,334,cs),
(742,419,o),
(718,494,o),
(671,553,c),
(742,621,l),
(692,678,l),
(617,606,l),
(558,653,o),
(482,678,o),
(390,678,cs),
(177,678,o),
(38,534,o),
(38,334,cs),
(38,247,o),
(63,174,o),
(108,115,c),
(38,47,l),
(88,-10,l)
);
},
{
closed = 1;
nodes = (
(338,113,o),
(294,127,o),
(259,155,c),
(570,455,l),
(589,420,o),
(599,381,o),
(599,334,cs),
(599,202,o),
(515,113,o),
(390,113,cs)
);
},
{
closed = 1;
nodes = (
(191,246,o),
(181,287,o),
(181,334,cs),
(181,466,o),
(265,555,o),
(390,555,cs),
(441,555,o),
(485,541,o),
(521,513,c),
(210,213,l)
);
}
);
};
layerId = "ED0E349C-8452-4A2C-86CF-88CCE81BCF85";
shapes = (
{
closed = 1;
nodes = (
(162,61,l),
(222,16,o),
(298,-10,o),
(390,-10,cs),
(605,-10,o),
(742,134,o),
(742,334,cs),
(742,419,o),
(718,494,o),
(671,553,c),
(742,621,l),
(692,678,l),
(617,606,l),
(558,653,o),
(482,678,o),
(390,678,cs),
(177,678,o),
(38,534,o),
(38,334,cs),
(38,247,o),
(63,174,o),
(108,115,c),
(38,47,l),
(88,-10,l)
);
},
{
closed = 1;
nodes = (
(338,113,o),
(294,127,o),
(259,155,c),
(570,455,l),
(589,420,o),
(599,381,o),
(599,334,cs),
(599,202,o),
(515,113,o),
(390,113,cs)
);
},
{
closed = 1;
nodes = (
(191,246,o),
(181,287,o),
(181,334,cs),
(181,466,o),
(265,555,o),
(390,555,cs),
(441,555,o),
(485,541,o),
(521,513,c),
(210,213,l)
);
}
);
width = 780;
},
{
anchors = (
{
name = bottom;
pos = (390,0);
},
{
name = top;
pos = (390,668);
}
);
background = {
shapes = (
{
closed = 1;
nodes = (
(161,59,l),
(221,15,o),
(298,-10,o),
(390,-10,cs),
(608,-10,o),
(748,134,o),
(748,334,cs),
(748,418,o),
(723,491,o),
(679,548,c),
(748,613,l),
(692,678,l),
(618,608,l),
(558,652,o),
(482,678,o),
(390,678,cs),
(173,678,o),
(32,534,o),
(32,334,cs),
(32,250,o),
(56,178,o),
(100,119,c),
(32,55,l),
(88,-10,l)
);
},
{
closed = 1;
nodes = (
(347,135,o),
(309,146,o),
(277,169,c),
(557,433,l),
(572,404,o),
(579,371,o),
(579,334,cs),
(579,215,o),
(502,135,o),
(390,135,cs)
);
},
{
closed = 1;
nodes = (
(208,263,o),
(201,296,o),
(201,334,cs),
(201,453,o),
(277,533,o),
(390,533,cs),
(434,533,o),
(471,522,o),
(502,499,c),
(222,234,l)
);
}
);
};
layerId = "19C37293-DF0C-4049-8F1C-5BECA685D590";
shapes = (
{
closed = 1;
nodes = (
(161,59,l),
(221,15,o),
(298,-10,o),
(390,-10,cs),
(608,-10,o),
(748,134,o),
(748,334,cs),
(748,418,o),
(723,491,o),
(679,548,c),
(748,613,l),
(692,678,l),
(618,608,l),
(558,652,o),
(482,678,o),
(390,678,cs),
(173,678,o),
(32,534,o),
(32,334,cs),
(32,250,o),
(56,178,o),
(100,119,c),
(32,55,l),
(88,-10,l)
);
},
{
closed = 1;
nodes = (
(347,135,o),
(309,146,o),
(277,169,c),
(557,433,l),
(572,404,o),
(579,371,o),
(579,334,cs),
(579,215,o),
(502,135,o),
(390,135,cs)
);
},
{
closed = 1;
nodes = (
(208,263,o),
(201,296,o),
(201,334,cs),
(201,453,o),
(277,533,o),
(390,533,cs),
(434,533,o),
(471,522,o),
(502,499,c),
(222,234,l)
);
}
);
width = 780;
},
{
anchors = (
{
name = bottom;
pos = (390,0);
},
{
name = top;
pos = (390,668);
}
);
background = {
shapes = (
{
closed = 1;
nodes = (
(164,67,l),
(221,18,o),
(297,-10,o),
(390,-10,cs),
(599,-10,o),
(728,134,o),
(728,334,cs),
(728,425,o),
(701,503,o),
(653,563,c),
(728,640,l),
(692,678,l),
(616,601,l),
(559,649,o),
(482,678,o),
(390,678,cs),
(181,678,o),
(52,534,o),
(52,334,cs),
(52,242,o),
(79,164,o),
(127,104,c),
(52,28,l),
(88,-10,l)
);
},
{
closed = 1;
nodes = (
(321,66,o),
(265,86,o),
(222,125,c),
(593,502,l),
(624,458,o),
(640,401,o),
(640,334,cs),
(640,174,o),
(544,66,o),
(390,66,cs)
);
},
{
closed = 1;
nodes = (
(156,210,o),
(140,266,o),
(140,334,cs),
(140,494,o),
(236,602,o),
(390,602,cs),
(459,602,o),
(515,581,o),
(558,542,c),
(187,165,l)
);
}
);
};
layerId = "80ECBAB3-F383-4124-9E35-EC531BFDEBDA";
shapes = (
{
closed = 1;
nodes = (
(164,67,l),
(221,18,o),
(297,-10,o),
(390,-10,cs),
(599,-10,o),
(728,134,o),
(728,334,cs),
(728,425,o),
(701,503,o),
(653,563,c),
(728,640,l),
(692,678,l),
(616,601,l),
(559,649,o),
(482,678,o),
(390,678,cs),
(181,678,o),
(52,534,o),
(52,334,cs),
(52,242,o),
(79,164,o),
(127,104,c),
(52,28,l),
(88,-10,l)
);
},
{
closed = 1;
nodes = (
(321,66,o),
(265,86,o),
(222,125,c),
(593,502,l),
(624,458,o),
(640,401,o),
(640,334,cs),
(640,174,o),
(544,66,o),
(390,66,cs)
);
},
{
closed = 1;
nodes = (
(156,210,o),
(140,266,o),
(140,334,cs),
(140,494,o),
(236,602,o),
(390,602,cs),
(459,602,o),
(515,581,o),
(558,542,c),
(187,165,l)
);
}
);
width = 780;
},
{
anchors = (
{
name = bottom;
pos = (390,0);
},
{
name = top;
pos = (390,668);
}
);
background = {
shapes = (
{
closed = 1;
nodes = (
(163,64,l),
(222,17,o),
(298,-10,o),
(390,-10,cs),
(602,-10,o),
(735,134,o),
(735,334,cs),
(735,422,o),
(709,498,o),
(662,558,c),
(735,630,l),
(692,678,l),
(617,603,l),
(558,650,o),
(482,678,o),
(390,678,cs),
(178,678,o),
(45,534,o),
(45,334,cs),
(45,246,o),
(71,170,o),
(118,110,c),
(45,38,l),
(88,-10,l)
);
},
{
closed = 1;
nodes = (
(330,91,o),
(280,108,o),
(241,141,c),
(580,477,l),
(604,438,o),
(618,390,o),
(618,334,cs),
(618,189,o),
(529,91,o),
(390,91,cs)
);
},
{
closed = 1;
nodes = (
(174,230,o),
(162,278,o),
(162,334,cs),
(162,479,o),
(251,577,o),
(390,577,cs),
(450,577,o),
(500,560,o),
(539,526,c),
(199,190,l)
);
}
);
};
layerId = "96D04FCA-9746-4118-8F04-D3655F0185C2";
shapes = (
{
closed = 1;
nodes = (
(163,64,l),
(222,17,o),
(298,-10,o),
(390,-10,cs),
(602,-10,o),
(735,134,o),
(735,334,cs),
(735,422,o),
(709,498,o),
(662,558,c),
(735,630,l),
(692,678,l),
(617,603,l),
(558,650,o),
(482,678,o),
(390,678,cs),
(178,678,o),
(45,534,o),
(45,334,cs),
(45,246,o),
(71,170,o),
(118,110,c),
(45,38,l),
(88,-10,l)
);
},
{
closed = 1;
nodes = (
(330,91,o),
(280,108,o),
(241,141,c),
(580,477,l),
(604,438,o),
(618,390,o),
(618,334,cs),
(618,189,o),
(529,91,o),
(390,91,cs)
);
},
{
closed = 1;
nodes = (
(174,230,o),
(162,278,o),
(162,334,cs),
(162,479,o),
(251,577,o),
(390,577,cs),
(450,577,o),
(500,560,o),
(539,526,c),
(199,190,l)
);
}
);
width = 780;
},
{
anchors = (
{
name = bottom;
pos = (390,0);
},
{
name = top;
pos = (390,668);
}
);
background = {
shapes = (
{
closed = 1;
nodes = (
(165,73,l),
(221,20,o),
(295,-10,o),
(390,-10,cs),
(594,-10,o),
(714,134,o),
(714,334,cs),
(714,430,o),
(686,513,o),
(634,573,c),
(714,658,l),
(692,678,l),
(614,595,l),
(558,647,o),
(483,678,o),
(390,678,cs),
(186,678,o),
(66,534,o),
(66,334,cs),
(66,238,o),
(93,155,o),
(145,94,c),
(66,10,l),
(88,-10,l)
);
},
{
closed = 1;
nodes = (
(305,20,o),
(236,47,o),
(187,96,c),
(612,550,l),
(656,494,o),
(680,422,o),
(680,334,cs),
(680,147,o),
(572,20,o),
(390,20,cs)
);
},
{
closed = 1;
nodes = (
(122,173,o),
(100,245,o),
(100,334,cs),
(100,521,o),
(208,648,o),
(390,648,cs),
(474,648,o),
(543,620,o),
(592,572,c),
(167,118,l)
);
}
);
};
layerId = "1750929F-40DF-47FF-8B11-7621AD6711F1";
shapes = (
{
closed = 1;
nodes = (
(165,73,l),
(221,20,o),
(295,-10,o),
(390,-10,cs),
(594,-10,o),
(714,134,o),
(714,334,cs),
(714,430,o),
(686,513,o),
(634,573,c),
(714,658,l),
(692,678,l),
(614,595,l),
(558,647,o),
(483,678,o),
(390,678,cs),
(186,678,o),
(66,534,o),
(66,334,cs),
(66,238,o),
(93,155,o),
(145,94,c),
(66,10,l),
(88,-10,l)
);
},
{
closed = 1;
nodes = (
(305,20,o),
(236,47,o),
(187,96,c),
(612,550,l),
(656,494,o),
(680,422,o),
(680,334,cs),
(680,147,o),
(572,20,o),
(390,20,cs)
);
},
{
closed = 1;
nodes = (
(122,173,o),
(100,245,o),
(100,334,cs),
(100,521,o),
(208,648,o),
(390,648,cs),
(474,648,o),
(543,620,o),
(592,572,c),
(167,118,l)
);
}
);
width = 780;
}
);
unicode = 216;
},
{
color = 10;
glyphname = Otilde;
kernLeft = _C1;
kernRight = _D;
lastChange = "2022-05-20 09:19:55 +0000";
layers = (
{
background = {
shapes = (
{
closed = 1;
nodes = (
(610,-10,o),
(754,134,o),
(754,334,cs),
(754,534,o),
(610,678,o),
(390,678,cs),
(171,678,o),
(26,534,o),
(26,334,cs),
(26,134,o),
(170,-10,o),
(390,-10,cs)
);
},
{
closed = 1;
nodes = (
(289,154,o),
(218,226,o),
(218,334,cs),
(218,442,o),
(289,514,o),
(390,514,cs),
(490,514,o),
(562,442,o),
(562,334,cs),
(562,226,o),
(490,154,o),
(390,154,cs)
);
},
{
closed = 1;
nodes = (
(302,726,l),
(303,757,o),
(314,778,o),
(330,778,cs),
(357,778,o),
(395,726,o),
(456,726,cs),
(544,726,o),
(574,797,o),
(574,888,c),
(478,888,l),
(477,857,o),
(466,836,o),
(450,836,cs),
(423,836,o),
(385,888,o),
(324,888,cs),
(236,888,o),
(206,817,o),
(206,726,c)
);
}
);
};
layerId = "42F8977D-8264-44FF-8A66-A72BD7D3E619";
shapes = (
{
ref = O;
},
{
pos = (90,198);
ref = tildecomb;
}
);
width = 780;
},
{
background = {
shapes = (
{
closed = 1;
nodes = (
(595,-10,o),
(721,134,o),
(721,334,cs),
(721,534,o),
(595,678,o),
(390,678,cs),
(183,678,o),
(59,534,o),
(59,334,cs),
(59,134,o),
(183,-10,o),
(390,-10,cs)
);
},
{
closed = 1;
nodes = (
(222,43,o),
(120,160,o),
(120,334,cs),
(120,507,o),
(222,625,o),
(390,625,cs),
(558,625,o),
(660,507,o),
(660,334,cs),
(660,160,o),
(558,43,o),
(390,43,cs)
);
},
{
closed = 1;
nodes = (
(285,759,l),
(288,816,o),
(301,831,o),
(324,831,cs),
(361,831,o),
(400,759,o),
(456,759,cs),
(504,759,o),
(532,788,o),
(532,871,c),
(495,871,l),
(492,814,o),
(479,799,o),
(456,799,cs),
(416,799,o),
(381,871,o),
(324,871,cs),
(276,871,o),
(247,842,o),
(247,759,c)
);
}
);
};
layerId = "5AACEF06-708C-4913-83FC-D570AD12060A";
shapes = (
{
ref = O;
},
{
pos = (90,198);
ref = tildecomb;
}
);
width = 780;
},
{
background = {
shapes = (
{
closed = 1;
nodes = (
(605,-10,o),
(742,134,o),
(742,334,cs),
(742,534,o),
(605,678,o),
(390,678,cs),
(177,678,o),
(38,534,o),
(38,334,cs),
(38,134,o),
(175,-10,o),
(390,-10,cs)
);
},
{
closed = 1;
nodes = (
(265,113,o),
(181,202,o),
(181,334,cs),
(181,466,o),
(265,555,o),
(390,555,cs),
(515,555,o),
(599,466,o),
(599,334,cs),
(599,202,o),
(515,113,o),
(390,113,cs)
);
},
{
closed = 1;
nodes = (
(296,738,l),
(298,778,o),
(308,798,o),
(327,798,cs),
(358,798,o),
(397,738,o),
(456,738,cs),
(529,738,o),
(558,794,o),
(558,882,c),
(484,882,l),
(482,842,o),
(472,822,o),
(453,822,cs),
(422,822,o),
(383,882,o),
(324,882,cs),
(251,882,o),
(222,826,o),
(222,738,c)
);
}
);
};
layerId = "ED0E349C-8452-4A2C-86CF-88CCE81BCF85";
shapes = (
{
ref = O;
},
{
pos = (90,198);
ref = tildecomb;
}
);
width = 780;
},
{
background = {
shapes = (
{
closed = 1;
nodes = (
(608,-10,o),
(748,134,o),
(748,334,cs),
(748,534,o),
(608,678,o),
(390,678,cs),
(173,678,o),
(32,534,o),
(32,334,cs),
(32,134,o),
(172,-10,o),
(390,-10,cs)
);
},
{
closed = 1;
nodes = (
(277,135,o),
(201,215,o),
(201,334,cs),
(201,453,o),
(277,533,o),
(390,533,cs),
(502,533,o),
(579,453,o),
(579,334,cs),
(579,215,o),
(502,135,o),
(390,135,cs)
);
},
{
closed = 1;
nodes = (
(299,732,l),
(301,769,o),
(311,787,o),
(329,787,cs),
(358,787,o),
(395,732,o),
(456,732,cs),
(537,732,o),
(567,796,o),
(567,885,c),
(481,885,l),
(479,848,o),
(469,830,o),
(451,830,cs),
(423,830,o),
(384,885,o),
(324,885,cs),
(243,885,o),
(213,821,o),
(213,732,c)
);
}
);
};
layerId = "19C37293-DF0C-4049-8F1C-5BECA685D590";
shapes = (
{
ref = O;
},
{
pos = (90,198);
ref = tildecomb;
}
);
width = 780;
},
{
background = {
shapes = (
{
closed = 1;
nodes = (
(599,-10,o),
(728,134,o),
(728,334,cs),
(728,534,o),
(599,678,o),
(390,678,cs),
(181,678,o),
(52,534,o),
(52,334,cs),
(52,134,o),
(181,-10,o),
(390,-10,cs)
);
},
{
closed = 1;
nodes = (
(236,66,o),
(140,174,o),
(140,334,cs),
(140,494,o),
(236,602,o),
(390,602,cs),
(544,602,o),
(640,494,o),
(640,334,cs),
(640,174,o),
(544,66,o),
(390,66,cs)
);
},
{
closed = 1;
nodes = (
(290,752,l),
(293,804,o),
(304,820,o),
(324,820,cs),
(359,820,o),
(400,752,o),
(456,752,cs),
(512,752,o),
(541,791,o),
(541,875,c),
(490,875,l),
(487,823,o),
(476,807,o),
(456,807,cs),
(420,807,o),
(381,875,o),
(324,875,cs),
(268,875,o),
(239,836,o),
(239,752,c)
);
}
);
};
layerId = "80ECBAB3-F383-4124-9E35-EC531BFDEBDA";
shapes = (
{
ref = O;
},
{
pos = (90,198);
ref = tildecomb;
}
);
width = 780;
},
{
background = {
shapes = (
{
closed = 1;
nodes = (
(602,-10,o),
(735,134,o),
(735,334,cs),
(735,534,o),
(602,678,o),
(390,678,cs),
(178,678,o),
(45,534,o),
(45,334,cs),
(45,134,o),
(178,-10,o),
(390,-10,cs)
);
},
{
closed = 1;
nodes = (
(251,91,o),
(162,189,o),
(162,334,cs),
(162,479,o),
(251,577,o),
(390,577,cs),
(529,577,o),
(618,479,o),
(618,334,cs),
(618,189,o),
(529,91,o),
(390,91,cs)
);
},
{
closed = 1;
nodes = (
(293,745,l),
(296,792,o),
(307,808,o),
(326,808,cs),
(359,808,o),
(397,745,o),
(456,745,cs),
(521,745,o),
(550,792,o),
(550,879,c),
(487,879,l),
(484,832,o),
(473,815,o),
(454,815,cs),
(421,815,o),
(383,879,o),
(324,879,cs),
(259,879,o),
(230,832,o),
(230,745,c)
);
}
);
};
layerId = "96D04FCA-9746-4118-8F04-D3655F0185C2";
shapes = (
{
ref = O;
},
{
pos = (90,198);
ref = tildecomb;
}
);
width = 780;
},
{
background = {
shapes = (
{
closed = 1;
nodes = (
(594,-10,o),
(714,134,o),
(714,334,cs),
(714,534,o),
(594,678,o),
(390,678,cs),
(186,678,o),
(66,534,o),
(66,334,cs),
(66,134,o),
(186,-10,o),
(390,-10,cs)
);
},
{
closed = 1;
nodes = (
(208,20,o),
(100,147,o),
(100,334,cs),
(100,521,o),
(208,648,o),
(390,648,cs),
(572,648,o),
(680,521,o),
(680,334,cs),
(680,147,o),
(572,20,o),
(390,20,cs)
);
},
{
closed = 1;
nodes = (
(280,766,l),
(281,829,o),
(300,842,o),
(324,842,cs),
(365,842,o),
(400,766,o),
(456,766,cs),
(496,766,o),
(524,788,o),
(524,868,c),
(500,868,l),
(497,805,o),
(480,792,o),
(456,792,cs),
(415,792,o),
(378,868,o),
(324,868,cs),
(284,868,o),
(256,846,o),
(256,766,c)
);
}
);
};
layerId = "1750929F-40DF-47FF-8B11-7621AD6711F1";
shapes = (
{
ref = O;
},
{
pos = (90,198);
ref = tildecomb;
}
);
width = 780;
}
);
unicode = 213;
},
